<?xml version="1.0" encoding="UTF-8"?>
<!-- Generator: Adobe Illustrator 19.0.0, SVG Export Plug-In . SVG Version: 6.00 Build 0)  -->
<svg xmlns="http://www.w3.org/2000/svg" xmlns:xlink="http://www.w3.org/1999/xlink" version="1.1" id="Layer_1" x="0px" y="0px" viewBox="0 0 110 90" style="enable-background:new 0 0 110 90;" xml:space="preserve">
<style type="text/css">
	.st0{fill:url(#XMLID_132_);}
	.st1{fill:#23A2B7;}
	.st2{fill:#39BCC9;}
	.st3{fill:#1D9DAA;}
	.st4{fill:#66D0E2;}
	.st5{fill:#3AB1CC;}
	.st6{fill:#004E8B;}
	.st7{fill:#8CC8F0;}
	.st8{fill:#80D2F3;}
	.st9{fill:#A4EAFF;}
	.st10{fill:#FFFFFF;}
	.st11{fill:#44A1B7;}
	.st12{fill:#FCB900;}
	.st13{fill:url(#XMLID_133_);}
	.st14{fill:#BDEBF9;}
	.st15{font-family:'Antonio-Bold';}
	.st16{font-size:3.7131px;}
	.st17{fill:url(#XMLID_134_);}
	.st18{fill:url(#XMLID_135_);}
	.st19{fill:none;stroke:url(#XMLID_136_);stroke-width:1.0601;stroke-linecap:round;stroke-miterlimit:10;}
	.st20{fill:url(#XMLID_137_);}
	.st21{fill:#E1EFF9;}
	.st22{fill:#71A8C6;}
	.st23{opacity:0.25;fill:#BBC3FA;}
	.st24{fill:none;stroke:#FFFFFF;stroke-width:3;stroke-linecap:round;stroke-linejoin:round;stroke-miterlimit:10;}
</style>
<g id="XMLID_1901_">
	<linearGradient id="XMLID_132_" gradientUnits="userSpaceOnUse" x1="0.9636" y1="44.9995" x2="109.0364" y2="44.9995">
		<stop offset="0" style="stop-color:#6EC1E4"></stop>
		<stop offset="1" style="stop-color:#61CE70"></stop>
	</linearGradient>
	<path id="XMLID_1955_" class="st0" d="M109,56.1c0,11.9-3.8,22.9-10.4,31.8H11.3C4.8,79,1,68,1,56.1c0-29.8,24.2-54,54-54   S109,26.3,109,56.1z"></path>
	<g id="XMLID_1899_">
		<g id="XMLID_1915_">
			<path id="XMLID_1950_" class="st1" d="M91.6,83.5l-4.1-1c-0.2,0-0.3-0.2-0.2-0.4l7.1-28.9c0-0.2,0.2-0.3,0.4-0.2l4.1,1     c0.2,0,0.3,0.2,0.2,0.4L92,83.2C92,83.4,91.8,83.5,91.6,83.5z"></path>
			<g id="XMLID_1916_">
				<path id="XMLID_1949_" class="st2" d="M92.4,81.9l-0.1,0.3l-1.5-0.4c-0.1,0-0.1-0.1-0.1-0.2c0-0.1,0.1-0.1,0.2-0.1L92.4,81.9z"></path>
				<path id="XMLID_1948_" class="st2" d="M92.1,82.8L92.1,83l-1.5-0.4c-0.1,0-0.1-0.1-0.1-0.2c0-0.1,0.1-0.1,0.2-0.1L92.1,82.8z"></path>
				<path id="XMLID_1947_" class="st2" d="M99,54.7L99,55l-1.5-0.4c-0.1,0-0.1-0.1-0.1-0.2c0-0.1,0.1-0.1,0.2-0.1L99,54.7z"></path>
				<path id="XMLID_1946_" class="st2" d="M98.8,55.6l-0.1,0.3l-1.5-0.4c-0.1,0-0.1-0.1-0.1-0.2c0-0.1,0.1-0.1,0.2-0.1L98.8,55.6z"></path>
				<path id="XMLID_1945_" class="st2" d="M98.6,56.5l-0.1,0.3l-1.5-0.4c-0.1,0-0.1-0.1-0.1-0.2c0-0.1,0.1-0.1,0.2-0.1L98.6,56.5z"></path>
				<path id="XMLID_1944_" class="st2" d="M98.4,57.3l-0.1,0.3l-1.5-0.4c-0.1,0-0.1-0.1-0.1-0.2c0-0.1,0.1-0.1,0.2-0.1L98.4,57.3z"></path>
				<path id="XMLID_1943_" class="st2" d="M98.2,58.2l-0.1,0.3l-1.5-0.4c-0.1,0-0.1-0.1-0.1-0.2c0-0.1,0.1-0.1,0.2-0.1L98.2,58.2z"></path>
				<path id="XMLID_1942_" class="st2" d="M98,59.1l-0.1,0.3L96.4,59c-0.1,0-0.1-0.1-0.1-0.2c0-0.1,0.1-0.1,0.2-0.1L98,59.1z"></path>
				<path id="XMLID_1941_" class="st2" d="M97.7,60l-0.1,0.3l-1.5-0.4c-0.1,0-0.1-0.1-0.1-0.2c0-0.1,0.1-0.1,0.2-0.1L97.7,60z"></path>
				<path id="XMLID_1940_" class="st2" d="M97.5,60.8l-0.1,0.3L96,60.8c-0.1,0-0.1-0.1-0.1-0.2c0-0.1,0.1-0.1,0.2-0.1L97.5,60.8z"></path>
				<path id="XMLID_1939_" class="st2" d="M97.3,61.7L97.2,62l-1.5-0.4c-0.1,0-0.1-0.1-0.1-0.2c0-0.1,0.1-0.1,0.2-0.1L97.3,61.7z"></path>
				<path id="XMLID_1938_" class="st2" d="M97.1,62.6L97,62.9l-1.5-0.4c-0.1,0-0.1-0.1-0.1-0.2c0-0.1,0.1-0.1,0.2-0.1L97.1,62.6z"></path>
				<path id="XMLID_1937_" class="st2" d="M96.9,63.5l-0.1,0.3l-1.5-0.4c-0.1,0-0.1-0.1-0.1-0.2c0-0.1,0.1-0.1,0.2-0.1L96.9,63.5z"></path>
				<path id="XMLID_1936_" class="st2" d="M96.7,64.4l-0.1,0.3l-1.5-0.4c-0.1,0-0.1-0.1-0.1-0.2c0-0.1,0.1-0.1,0.2-0.1L96.7,64.4z"></path>
				<path id="XMLID_1935_" class="st2" d="M96.4,65.2l-0.1,0.3l-1.5-0.4c-0.1,0-0.1-0.1-0.1-0.2c0-0.1,0.1-0.1,0.2-0.1L96.4,65.2z"></path>
				<path id="XMLID_1934_" class="st2" d="M96.2,66.1l-0.1,0.3L94.7,66c-0.1,0-0.1-0.1-0.1-0.2c0-0.1,0.1-0.1,0.2-0.1L96.2,66.1z"></path>
				<path id="XMLID_1933_" class="st2" d="M96,67l-0.1,0.3l-1.5-0.4c-0.1,0-0.1-0.1-0.1-0.2c0-0.1,0.1-0.1,0.2-0.1L96,67z"></path>
				<path id="XMLID_1932_" class="st2" d="M95.8,67.9l-0.1,0.3l-1.5-0.4c-0.1,0-0.1-0.1-0.1-0.2c0-0.1,0.1-0.1,0.2-0.1L95.8,67.9z"></path>
				<path id="XMLID_1931_" class="st2" d="M95.6,68.7L95.5,69l-1.5-0.4c-0.1,0-0.1-0.1-0.1-0.2c0-0.1,0.1-0.1,0.2-0.1L95.6,68.7z"></path>
				<path id="XMLID_1930_" class="st2" d="M95.4,69.6l-0.1,0.3l-1.5-0.4c-0.1,0-0.1-0.1-0.1-0.2c0-0.1,0.1-0.1,0.2-0.1L95.4,69.6z"></path>
				<path id="XMLID_1929_" class="st2" d="M95.2,70.5l-0.1,0.3l-1.5-0.4c-0.1,0-0.1-0.1-0.1-0.2c0-0.1,0.1-0.1,0.2-0.1L95.2,70.5z"></path>
				<path id="XMLID_1928_" class="st2" d="M94.9,71.4l-0.1,0.3l-1.5-0.4c-0.1,0-0.1-0.1-0.1-0.2c0-0.1,0.1-0.1,0.2-0.1L94.9,71.4z"></path>
				<path id="XMLID_1927_" class="st2" d="M94.7,72.2l-0.1,0.3l-1.5-0.4c-0.1,0-0.1-0.1-0.1-0.2c0-0.1,0.1-0.1,0.2-0.1L94.7,72.2z"></path>
				<path id="XMLID_1926_" class="st2" d="M94.5,73.1l-0.1,0.3L93,73c-0.1,0-0.1-0.1-0.1-0.2c0-0.1,0.1-0.1,0.2-0.1L94.5,73.1z"></path>
				<path id="XMLID_1925_" class="st2" d="M94.3,74l-0.1,0.3l-1.5-0.4c-0.1,0-0.1-0.1-0.1-0.2c0-0.1,0.1-0.1,0.2-0.1L94.3,74z"></path>
				<path id="XMLID_1924_" class="st2" d="M94.1,74.9L94,75.1l-1.5-0.4c-0.1,0-0.1-0.1-0.1-0.2c0-0.1,0.1-0.1,0.2-0.1L94.1,74.9z"></path>
				<path id="XMLID_1923_" class="st2" d="M93.9,75.7L93.8,76l-1.5-0.4c-0.1,0-0.1-0.1-0.1-0.2c0-0.1,0.1-0.1,0.2-0.1L93.9,75.7z"></path>
				<path id="XMLID_1922_" class="st2" d="M93.6,76.6l-0.1,0.3l-1.5-0.4c-0.1,0-0.1-0.1-0.1-0.2c0-0.1,0.1-0.1,0.2-0.1L93.6,76.6z"></path>
				<path id="XMLID_1921_" class="st2" d="M93.4,77.5l-0.1,0.3l-1.5-0.4c-0.1,0-0.1-0.1-0.1-0.2c0-0.1,0.1-0.1,0.2-0.1L93.4,77.5z"></path>
				<path id="XMLID_1920_" class="st2" d="M93.2,78.4l-0.1,0.3l-1.5-0.4c-0.1,0-0.1-0.1-0.1-0.2c0-0.1,0.1-0.1,0.2-0.1L93.2,78.4z"></path>
				<path id="XMLID_1919_" class="st2" d="M93,79.3l-0.1,0.3l-1.5-0.4c-0.1,0-0.1-0.1-0.1-0.2c0-0.1,0.1-0.1,0.2-0.1L93,79.3z"></path>
				<path id="XMLID_1918_" class="st2" d="M92.8,80.1l-0.1,0.3L91.3,80c-0.1,0-0.1-0.1-0.1-0.2c0-0.1,0.1-0.1,0.2-0.1L92.8,80.1z"></path>
				<path id="XMLID_1917_" class="st2" d="M92.6,81l-0.1,0.3L91,80.9c-0.1,0-0.1-0.1-0.1-0.2c0-0.1,0.1-0.1,0.2-0.1L92.6,81z"></path>
			</g>
		</g>
		<g id="XMLID_1912_">
			<path id="XMLID_1914_" class="st3" d="M82.1,59L82.1,59c-0.7,0.2-1.1,0.8-0.9,1.5l0.2,0.8l2.5-0.6l-0.2-0.8     C83.4,59.3,82.8,58.8,82.1,59z"></path>
			<path id="XMLID_1913_" class="st1" d="M81.3,61.3l4.6,20.1c0.1,0.6,0.3,1.1,0.6,1.6c0.3,0.7,0.9,1.6,1.4,2.2l0.2,0.8     c0,0.1,0.1,0.2,0.3,0.2c0.1,0,0.2-0.1,0.2-0.3L88.3,85c0.2-0.7,0.3-1.8,0.3-2.6c0-0.6-0.1-1.2-0.2-1.7l-4.6-20.1L81.3,61.3z"></path>
		</g>
		<g id="XMLID_1909_">
			<path id="XMLID_1911_" class="st3" d="M86.3,81.7L86.3,81.7c0.7,0.1,1.3-0.4,1.4-1.1l0.1-0.8l-2.5-0.3l-0.1,0.8     C85.1,81.1,85.6,81.7,86.3,81.7z"></path>
			<path id="XMLID_1910_" class="st3" d="M89.2,80.3l2.1-20.5c0.1-0.6,0-1.2,0-1.7c-0.1-0.6-0.2-1.3-0.4-1.9     c-0.1-0.4-0.2-0.9-0.1-1.3l0-0.1c0-0.1-0.1-0.2-0.2-0.2c-0.1,0-0.2,0.1-0.2,0.2l0,0.1c0,0.4-0.2,0.9-0.4,1.3     c-0.3,0.6-0.6,1.3-0.8,1.8c-0.2,0.5-0.3,1.1-0.4,1.7L86.7,80L89.2,80.3z"></path>
		</g>
		<g id="XMLID_1907_">
			<path id="XMLID_1908_" class="st1" d="M88.6,80.6L87.9,60c0-0.6-0.1-1.2-0.3-1.7c-0.2-0.6-0.4-1.3-0.6-1.9     c-0.2-0.4-0.3-0.8-0.3-1.3l0-0.1c0-0.1-0.1-0.2-0.2-0.2c-0.1,0-0.2,0.1-0.2,0.2l0,0.1c0,0.4-0.1,0.9-0.2,1.3     c-0.2,0.6-0.4,1.3-0.5,1.9c-0.1,0.6-0.2,1.1-0.2,1.7L86,80.7L88.6,80.6z"></path>
		</g>
		<g id="XMLID_1903_">
			<path id="XMLID_1904_" class="st4" d="M92,58.5c-0.7,0-1.3,0.5-1.3,1.2L89.5,79c0,0.6,0,1.2,0.1,1.7c0.1,0.8,0.4,1.8,0.7,2.5     l0,0.8c0,0.1,0.1,0.2,0.2,0.2c0.1,0,0.2-0.1,0.2-0.2l0-0.8c0.4-0.7,0.7-1.7,1-2.4c0.2-0.6,0.3-1.1,0.3-1.7l1.2-19.3     C93.2,59.1,92.7,58.5,92,58.5L92,58.5z"></path>
		</g>
		<path id="XMLID_1900_" class="st5" d="M92.8,87.7h-7.6c-0.8,0-1.5-0.6-1.5-1.4l-1.4-17.1c0-0.3,0.2-0.5,0.5-0.5h12.6    c0.3,0,0.5,0.2,0.5,0.5l-1.4,17.1C94.3,87.1,93.6,87.7,92.8,87.7z"></path>
	</g>
	<g id="XMLID_1878_">
		<g id="XMLID_1880_">
			<g id="XMLID_1881_">
				<rect id="XMLID_1896_" x="49.3" y="78.5" class="st6" width="9.9" height="6.8"></rect>
				<polygon id="XMLID_1893_" class="st6" points="59.1,81.6 49.3,80.6 49.3,78.5 59.1,78.5     "></polygon>
				<path id="XMLID_1890_" d="M66.2,85.2H42.1c-0.8,0-1.4,0.6-1.4,1.4v1.4h26.9v-1.4C67.6,85.8,67,85.2,66.2,85.2z"></path>
				<path id="XMLID_1884_" d="M85,36.8H23.3c-0.7,0-1.2,0.5-1.2,1.2v40.7c0,0.7,0.5,1.2,1.2,1.2H85c0.7,0,1.2-0.5,1.2-1.2V38      C86.2,37.3,85.7,36.8,85,36.8L85,36.8z"></path>
				<path id="XMLID_1683_" class="st6" d="M83.2,75.1H25.1c-1.1,0-2-0.9-2-2V40c0-1.1,0.9-2,2-2h58.1c1.1,0,2,0.9,2,2v33.1      C85.2,74.2,84.3,75.1,83.2,75.1z"></path>
				<circle id="XMLID_1882_" class="st7" cx="54.2" cy="77.3" r="1.2"></circle>
			</g>
		</g>
		<path id="XMLID_1879_" class="st8" d="M81.5,73.3H26.8c-0.9,0-1.6-0.7-1.6-1.6V41.4c0-0.9,0.7-1.6,1.6-1.6h54.8    c0.9,0,1.6,0.7,1.6,1.6v30.3C83.1,72.6,82.4,73.3,81.5,73.3z"></path>
	</g>
	<g id="XMLID_1847_">
		<path id="XMLID_1877_" class="st9" d="M68.8,36.8v34.7c0,0.5-0.4,0.9-0.9,0.9H38.1c-0.5,0-0.9-0.4-0.9-0.9V36.8H68.8z"></path>
		<path id="XMLID_1876_" class="st10" d="M39.1,29.5c-1.7,0-3.1,1.4-3.1,3.1v37.8c0,0.5,0.4,0.9,0.9,0.9h29.9c0.5,0,0.9-0.4,0.9-0.9    V32.6c0-1.7,1.4-3.1,3.1-3.1H39.1z"></path>
		<path id="XMLID_1873_" class="st11" d="M70.7,29.5c-1.7,0-3.1,1.4-3.1,3.1v4.2h6.2v-4.2C73.8,30.9,72.4,29.5,70.7,29.5z"></path>
		<g id="XMLID_1540_">
			<g id="XMLID_1676_">
				<path id="XMLID_1678_" class="st12" d="M57.4,68.1l-0.5-1.2c-0.1-0.1-0.2-0.2-0.4-0.2l-1.2,0.4c-0.1,0-0.3-0.1-0.2-0.2l2.1-4.6      l2.7,1.2l-2.1,4.6C57.7,68.2,57.5,68.2,57.4,68.1z"></path>
				<path id="XMLID_1677_" class="st12" d="M62.2,68.1l0.5-1.2c0.1-0.1,0.2-0.2,0.4-0.2l1.2,0.4c0.1,0,0.3-0.1,0.2-0.2l-2.1-4.6      l-2.7,1.2l2.1,4.6C61.9,68.2,62.1,68.2,62.2,68.1z"></path>
			</g>
			<path id="XMLID_1675_" class="st12" d="M65.2,59.7c0,0.3-0.5,0.6-0.6,0.9c-0.1,0.3,0.3,0.7,0.2,1c-0.1,0.3-0.7,0.4-0.8,0.6     c-0.2,0.3,0.1,0.8-0.1,1c-0.2,0.2-0.7,0.1-1,0.3c-0.2,0.2-0.2,0.8-0.5,0.9c-0.3,0.1-0.7-0.2-1-0.1C61.2,64.4,61,65,60.7,65     c-0.3,0.1-0.6-0.4-0.9-0.4c-0.3,0-0.6,0.4-0.9,0.4c-0.3-0.1-0.5-0.6-0.7-0.7c-0.3-0.1-0.8,0.2-1,0.1c-0.3-0.2-0.2-0.7-0.5-0.9     c-0.2-0.2-0.8-0.1-1-0.3c-0.2-0.2,0-0.7-0.1-1c-0.1-0.3-0.7-0.3-0.8-0.6c-0.1-0.3,0.3-0.7,0.2-1c-0.1-0.3-0.6-0.5-0.6-0.9     c0-0.3,0.5-0.6,0.6-0.9c0.1-0.3-0.3-0.7-0.2-1c0.1-0.3,0.7-0.4,0.8-0.6c0.2-0.3-0.1-0.8,0.1-1c0.2-0.2,0.7-0.1,1-0.3     c0.2-0.2,0.2-0.8,0.5-0.9c0.3-0.1,0.7,0.2,1,0.1c0.3-0.1,0.4-0.6,0.7-0.7c0.3-0.1,0.6,0.4,0.9,0.4c0.3,0,0.6-0.4,0.9-0.4     c0.3,0.1,0.5,0.6,0.7,0.7c0.3,0.1,0.8-0.2,1-0.1c0.3,0.2,0.2,0.7,0.5,0.9c0.2,0.2,0.8,0.1,1,0.3c0.2,0.2,0,0.7,0.1,1     c0.1,0.3,0.7,0.3,0.8,0.6c0.1,0.3-0.3,0.7-0.2,1C64.7,59.2,65.2,59.4,65.2,59.7z"></path>
			<linearGradient id="XMLID_133_" gradientUnits="userSpaceOnUse" x1="62.5185" y1="62.4313" x2="56.1678" y2="56.0806">
				<stop offset="0" style="stop-color:#FAC25B"></stop>
				<stop offset="1" style="stop-color:#EC7832"></stop>
			</linearGradient>
			<circle id="XMLID_1674_" class="st13" cx="59.8" cy="59.7" r="4"></circle>
			<circle id="XMLID_1673_" class="st12" cx="59.8" cy="59.7" r="3.7"></circle>
			<path id="XMLID_1672_" class="st10" d="M59.7,61.3l-1.3,0.7c-0.1,0-0.2,0-0.2-0.1l0.2-1.4c0,0,0-0.1,0-0.1l-1-1     c-0.1-0.1,0-0.2,0.1-0.2l1.4-0.2c0,0,0.1,0,0.1-0.1l0.6-1.3c0-0.1,0.2-0.1,0.2,0l0.6,1.3c0,0,0.1,0.1,0.1,0.1l1.4,0.2     c0.1,0,0.1,0.1,0.1,0.2l-1,1c0,0,0,0.1,0,0.1l0.2,1.4c0,0.1-0.1,0.2-0.2,0.1l-1.3-0.7C59.8,61.3,59.8,61.3,59.7,61.3z"></path>
		</g>
		<g id="XMLID_1851_">
			<path id="XMLID_1864_" class="st14" d="M56,38.4h-8.4c-0.2,0-0.4-0.2-0.4-0.4v0c0-0.2,0.2-0.4,0.4-0.4H56c0.2,0,0.4,0.2,0.4,0.4     v0C56.4,38.2,56.2,38.4,56,38.4z"></path>
			<path id="XMLID_1863_" class="st14" d="M60.9,41.5H42.7c-0.2,0-0.4-0.2-0.4-0.4v0c0-0.2,0.2-0.4,0.4-0.4h18.2     c0.2,0,0.4,0.2,0.4,0.4v0C61.3,41.4,61.1,41.5,60.9,41.5z"></path>
			<path id="XMLID_1862_" class="st14" d="M60.9,43.8H42.7c-0.2,0-0.4-0.2-0.4-0.4v0c0-0.2,0.2-0.4,0.4-0.4h18.2     c0.2,0,0.4,0.2,0.4,0.4v0C61.3,43.7,61.1,43.8,60.9,43.8z"></path>
			<path id="XMLID_1682_" class="st14" d="M60.9,46.1H42.7c-0.2,0-0.4-0.2-0.4-0.4v0c0-0.2,0.2-0.4,0.4-0.4h18.2     c0.2,0,0.4,0.2,0.4,0.4v0C61.3,46,61.1,46.1,60.9,46.1z"></path>
			<path id="XMLID_1860_" class="st14" d="M60.9,48.4l-18.2,0c-0.2,0-0.4-0.2-0.4-0.4v0c0-0.2,0.2-0.4,0.4-0.4h18.2     c0.2,0,0.4,0.2,0.4,0.4v0C61.3,48.3,61.1,48.4,60.9,48.4z"></path>
			<path id="XMLID_1859_" class="st14" d="M60.9,50.7H42.7c-0.2,0-0.4-0.2-0.4-0.4v0c0-0.2,0.2-0.4,0.4-0.4h18.2     c0.2,0,0.4,0.2,0.4,0.4v0C61.3,50.6,61.1,50.7,60.9,50.7z"></path>
			<path id="XMLID_1858_" class="st14" d="M60.9,53H42.7c-0.2,0-0.4-0.2-0.4-0.4v0c0-0.2,0.2-0.4,0.4-0.4h18.2     c0.2,0,0.4,0.2,0.4,0.4v0C61.3,52.9,61.1,53,60.9,53z"></path>
			<path id="XMLID_1681_" class="st14" d="M51.4,57.6h-8.7c-0.2,0-0.4-0.2-0.4-0.4v0c0-0.2,0.2-0.4,0.4-0.4h8.7     c0.2,0,0.4,0.2,0.4,0.4v0C51.8,57.5,51.7,57.6,51.4,57.6z"></path>
			<path id="XMLID_1680_" class="st14" d="M51.4,55.3h-8.7c-0.2,0-0.4-0.2-0.4-0.4v0c0-0.2,0.2-0.4,0.4-0.4h8.7     c0.2,0,0.4,0.2,0.4,0.4v0C51.8,55.2,51.7,55.3,51.4,55.3z"></path>
			<path id="XMLID_1855_" class="st14" d="M51.4,62.2h-8.7c-0.2,0-0.4-0.2-0.4-0.4v0c0-0.2,0.2-0.4,0.4-0.4h8.7     c0.2,0,0.4,0.2,0.4,0.4v0C51.8,62,51.7,62.2,51.4,62.2z"></path>
			<path id="XMLID_1854_" class="st14" d="M51.4,59.9h-8.7c-0.2,0-0.4-0.2-0.4-0.4v0c0-0.2,0.2-0.4,0.4-0.4h8.7     c0.2,0,0.4,0.2,0.4,0.4v0C51.8,59.7,51.7,59.9,51.4,59.9z"></path>
			<path id="XMLID_1853_" class="st14" d="M51.4,66.8h-8.7c-0.2,0-0.4-0.2-0.4-0.4v0c0-0.2,0.2-0.4,0.4-0.4h8.7     c0.2,0,0.4,0.2,0.4,0.4v0C51.8,66.6,51.7,66.8,51.4,66.8z"></path>
			<path id="XMLID_1852_" class="st14" d="M51.4,64.5h-8.7c-0.2,0-0.4-0.2-0.4-0.4v0c0-0.2,0.2-0.4,0.4-0.4h8.7     c0.2,0,0.4,0.2,0.4,0.4v0C51.8,64.3,51.7,64.5,51.4,64.5z"></path>
		</g>
		<g id="XMLID_1848_">
			<text id="XMLID_153_" transform="matrix(1 0 0 1 42.3201 35.8895)" class="st11 st15 st16">CERTIFICATION</text>
		</g>
	</g>
	<g id="XMLID_1829_">
		<path id="XMLID_1836_" class="st10" d="M91.6,46.1H80.8c-2.6,0-4.7-2.1-4.7-4.7v-12c0-2.6,2.1-4.7,4.7-4.7h10.8    c2.6,0,4.7,2.1,4.7,4.7v12C96.3,44,94.2,46.1,91.6,46.1z"></path>
		<g id="XMLID_1830_">
			<path id="XMLID_1835_" class="st6" d="M85.8,38l-8.3-3.5c-0.3-0.1-0.3-0.5,0-0.6l8.3-3.5c0.3-0.1,0.6-0.1,0.9,0l8.3,3.5     c0.3,0.1,0.3,0.5,0,0.6L86.7,38C86.4,38.1,86.1,38.1,85.8,38z"></path>
			<linearGradient id="XMLID_134_" gradientUnits="userSpaceOnUse" x1="82.0439" y1="36.7439" x2="90.4152" y2="36.7439">
				<stop offset="0" style="stop-color:#084975"></stop>
				<stop offset="1" style="stop-color:#082E66"></stop>
			</linearGradient>
			<path id="XMLID_1834_" class="st17" d="M86.2,33.7c-2.3,0-4.2,0.3-4.2,0.6v4.9c0,0.3,1.9,0.6,4.2,0.6c2.3,0,4.2-0.3,4.2-0.6v-4.9     C90.4,34,88.5,33.7,86.2,33.7z"></path>
			<linearGradient id="XMLID_135_" gradientUnits="userSpaceOnUse" x1="82.418" y1="38.9917" x2="90.041" y2="38.9917">
				<stop offset="0" style="stop-color:#082E66"></stop>
				<stop offset="1" style="stop-color:#084975"></stop>
			</linearGradient>
			<ellipse id="XMLID_1833_" class="st18" cx="86.2" cy="39" rx="3.8" ry="0.6"></ellipse>
			<linearGradient id="XMLID_136_" gradientUnits="userSpaceOnUse" x1="91.1879" y1="40.3118" x2="91.1879" y2="31.8078">
				<stop offset="0" style="stop-color:#EC7832"></stop>
				<stop offset="1" style="stop-color:#FAC25B"></stop>
			</linearGradient>
			<line id="XMLID_1832_" class="st19" x1="91.2" y1="32.3" x2="91.2" y2="39.8"></line>
			<linearGradient id="XMLID_137_" gradientUnits="userSpaceOnUse" x1="91.188" y1="42.1421" x2="91.188" y2="39.7817">
				<stop offset="0" style="stop-color:#EC7832"></stop>
				<stop offset="1" style="stop-color:#FAC25B"></stop>
			</linearGradient>
			<path id="XMLID_1831_" class="st20" d="M91.7,42.1h-1.1v-1.8c0-0.3,0.2-0.5,0.5-0.5l0,0c0.3,0,0.5,0.2,0.5,0.5V42.1z"></path>
		</g>
	</g>
	<g id="XMLID_1771_">
		<polygon id="XMLID_1797_" class="st21" points="29.3,34.1 22.6,38.7 15.8,34.1   "></polygon>
		<path id="XMLID_1796_" class="st21" d="M29.3,34.1l-6.2-6.4c-0.3-0.3-0.7-0.3-1,0l-6.2,6.4H29.3z"></path>
		<g id="XMLID_1774_">
			<rect id="XMLID_1795_" x="16.9" y="29.5" class="st22" width="11.3" height="11.1"></rect>
			<rect id="XMLID_1792_" x="16.9" y="29.5" class="st11" width="11.3" height="1.5"></rect>
			<circle id="XMLID_1791_" class="st10" cx="17.8" cy="30.2" r="0.3"></circle>
			<circle id="XMLID_1790_" class="st10" cx="18.9" cy="30.2" r="0.3"></circle>
			<circle id="XMLID_1789_" class="st10" cx="19.9" cy="30.2" r="0.3"></circle>
			<g id="XMLID_1775_">
				<g id="XMLID_1785_">
					<path id="XMLID_1786_" class="st10" d="M20.4,34.7h-1.7l-0.3,0.8h-0.7l1.6-3.4h0.6l1.6,3.4h-0.7L20.4,34.7z M20.2,34.2       l-0.7-1.5l-0.6,1.5H20.2z"></path>
				</g>
				<rect id="XMLID_1784_" x="22.2" y="32" class="st10" width="5.1" height="0.3"></rect>
				<rect id="XMLID_1783_" x="22.2" y="32.9" class="st10" width="5.1" height="0.3"></rect>
				<rect id="XMLID_1782_" x="22.2" y="33.8" class="st10" width="5.1" height="0.3"></rect>
				<rect id="XMLID_1781_" x="22.2" y="34.6" class="st10" width="5.1" height="0.3"></rect>
				<rect id="XMLID_1780_" x="22.2" y="35.5" class="st10" width="5.1" height="0.3"></rect>
				<rect id="XMLID_1779_" x="17.8" y="36.4" class="st10" width="9.5" height="0.3"></rect>
				<rect id="XMLID_1778_" x="17.8" y="37.2" class="st10" width="9.5" height="0.3"></rect>
				<rect id="XMLID_1777_" x="17.8" y="38.1" class="st10" width="9.5" height="0.3"></rect>
				<rect id="XMLID_1776_" x="17.8" y="39" class="st10" width="9.5" height="0.3"></rect>
			</g>
		</g>
		<path id="XMLID_1773_" class="st10" d="M29.3,34.1v8.3c0,0.2-0.1,0.5-0.3,0.6c-0.1,0.1-0.3,0.2-0.5,0.2H16.6    c-0.4,0-0.8-0.4-0.8-0.8v-8.3l6.7,4.6h0L29.3,34.1z"></path>
		<path id="XMLID_1772_" class="st23" d="M29.3,34.1v8.3c0,0.2-0.1,0.5-0.3,0.6l-6.5-4.4L29.3,34.1z"></path>
	</g>
	<g id="XMLID_1720_">
		<polyline id="XMLID_1722_" class="st24" points="74.8,63.2 72.6,61 74.8,58.9   "></polyline>
		<line id="XMLID_1721_" class="st24" x1="72.6" y1="61" x2="78.2" y2="61"></line>
	</g>
</g>
</svg>
