<?xml version="1.0" encoding="UTF-8"?>
<!-- Generator: Adobe Illustrator 19.0.0, SVG Export Plug-In . SVG Version: 6.00 Build 0)  -->
<svg xmlns="http://www.w3.org/2000/svg" xmlns:xlink="http://www.w3.org/1999/xlink" version="1.1" id="Layer_1" x="0px" y="0px" viewBox="0 0 110 90" style="enable-background:new 0 0 110 90;" xml:space="preserve">
<style type="text/css">
	.st0{fill:url(#XMLID_132_);}
	.st1{fill:#CF2E2E;}
	.st2{fill:#F1553F;}
	.st3{fill:#FCB900;}
	.st4{fill:#2A3B4D;}
	.st5{fill:#314A5E;}
	.st6{fill:#FFFFFF;}
	.st7{fill:#8AD6F8;}
	.st8{fill:#55C0EC;}
	.st9{fill:#00406B;}
</style>
<g id="XMLID_1902_">
	<linearGradient id="XMLID_132_" gradientUnits="userSpaceOnUse" x1="0.9504" y1="44.9041" x2="109.0496" y2="44.9041">
		<stop offset="0" style="stop-color:#6EC1E4"></stop>
		<stop offset="1" style="stop-color:#61CE70"></stop>
	</linearGradient>
	<path id="XMLID_1577_" class="st0" d="M109,56c0,11.9-3.8,22.9-10.4,31.8H11.3C4.8,78.9,1,67.9,1,56C1,26.2,25.1,2,55,2   S109,26.2,109,56z"></path>
	<g id="XMLID_1666_">
		<path id="XMLID_1667_" class="st1" d="M91.4,80.3c0,4-3.2,7.2-7.2,7.2H27.5c-4,0-7.2-3.2-7.2-7.2c0-4,3.2-7.2,7.2-7.2    c2.7,0,5.1,1.5,6.3,3.7c0.4-0.1,0.9-0.2,1.4-0.2c0.7,0,1.3,0.1,1.9,0.4c1.2-1.4,2.9-2.2,4.8-2.2c0.4,0,0.8,0,1.2,0.1l-1-5.7h5.4    l-1.2,7.3c0.2,0.2,0.4,0.4,0.6,0.6c-0.1-0.4-0.2-0.9-0.2-1.4c0-2,1.1-3.8,2.7-4.7l-1.9-4.3h16.1l-1.7,4.1c1,0.4,1.8,1.1,2.3,2    l-0.6-3.5H69l-1,5.8c0.6-0.2,1.2-0.3,1.9-0.3c1.9,0,3.7,0.9,4.8,2.2c0.6-0.2,1.2-0.3,1.9-0.3c0.5,0,0.9,0.1,1.4,0.2    c1.2-2.2,3.6-3.7,6.3-3.7C88.2,73.2,91.4,76.4,91.4,80.3z"></path>
	</g>
	<g id="XMLID_1664_">
		<path id="XMLID_1665_" class="st2" d="M74.6,83.4c0,2.3-1.9,4.2-4.2,4.2H41.4c-2.3,0-4.2-1.9-4.2-4.2c0-2.3,1.9-4.2,4.2-4.2    c1.1,0,2,0.4,2.8,1.1l-0.6-10.6h2.4l-0.5,9.7c0.4-0.2,0.9-0.4,1.5-0.4c0.1,0,0.2,0,0.2,0c0.2-0.5,0.6-0.9,1-1.3    c0-0.2-0.1-0.4-0.1-0.6c0-1.7,1.4-3.1,3.1-3.1c0.5,0,0.9,0.1,1.3,0.3l-1.6-7.7h10.1l-1.6,7.7c0.4-0.2,0.9-0.3,1.3-0.3    c1.7,0,3.1,1.4,3.1,3.1c0,0.2,0,0.4-0.1,0.6c0.4,0.3,0.8,0.8,1,1.3c0.1,0,0.2,0,0.2,0c0.2,0,0.4,0,0.6,0.1L65,69.6h2.4l-0.6,10    c0.3,0.2,0.5,0.5,0.7,0.7c0.8-0.8,1.8-1.2,3-1.2C72.7,79.2,74.6,81.1,74.6,83.4z"></path>
	</g>
	<g id="XMLID_1658_">
		<path id="XMLID_1659_" class="st3" d="M72.6,29.8c-0.4-8.5-7.3-15.5-15.8-16.1c-10-0.7-18.2,7.2-18.2,17c0,4.3,1.6,8.3,4.2,11.3    c3.9,4.4,6.2,10.1,6.2,16v0.3h13.2v-0.3c0-5.9,2.3-11.6,6.2-16C71.2,38.7,72.8,34.4,72.6,29.8z"></path>
	</g>
	<g id="XMLID_1656_">
		<rect id="XMLID_1657_" x="47.5" y="57.9" class="st4" width="16.1" height="8.8"></rect>
	</g>
	<g id="XMLID_1654_">
		<path id="XMLID_1655_" class="st5" d="M66.3,53.5c-1.5,0-2.7,1.2-2.7,2.7v13.2H69V56.2C69,54.7,67.8,53.5,66.3,53.5z"></path>
	</g>
	<g id="XMLID_1652_">
		<path id="XMLID_1653_" class="st5" d="M44.8,53.5c-1.5,0-2.7,1.2-2.7,2.7v13.2h5.4V56.2C47.5,54.7,46.3,53.5,44.8,53.5z"></path>
	</g>
	<g id="XMLID_1650_">
		<circle id="XMLID_1651_" class="st6" cx="55.6" cy="29.8" r="8.8"></circle>
	</g>
	<g id="XMLID_1648_">
		<path id="XMLID_1649_" class="st7" d="M62.6,29.8c0,3.9-3.2,7-7,7c-1.4,0-2.7-0.4-3.8-1.1c-0.3-0.2-0.6-0.4-0.8-0.6    c-0.5-0.5-1-1-1.3-1.6c-0.4-0.6-0.7-1.3-0.9-2v0c-0.1-0.6-0.2-1.2-0.2-1.8c0-3.9,3.2-7,7-7c0.6,0,1.2,0.1,1.8,0.2    c0.7,0.2,1.4,0.5,2,0.9c0.6,0.4,1.1,0.8,1.6,1.3c0.2,0.3,0.4,0.5,0.6,0.8C62.2,27.1,62.6,28.4,62.6,29.8z"></path>
	</g>
	<g id="XMLID_1646_">
		<path id="XMLID_1647_" class="st8" d="M59.3,23.8l-9.7,9.7c-0.4-0.6-0.7-1.3-0.9-2v0l8.6-8.6C58,23.1,58.7,23.4,59.3,23.8z"></path>
	</g>
	<g id="XMLID_1644_">
		<path id="XMLID_1645_" class="st8" d="M61.5,26l-9.7,9.7c-0.3-0.2-0.6-0.4-0.8-0.6l9.9-9.9C61.1,25.4,61.3,25.7,61.5,26z"></path>
	</g>
	<g id="XMLID_1628_">
		<path id="XMLID_1629_" class="st9" d="M84.8,88c4.5-0.3,7.9-4.4,7.1-9c3.7-6.4,5.7-13.7,5.7-21.1c0-16-9.2-30.5-23.1-37.5l1-0.6    c0.2-0.1,0.3-0.5,0.2-0.7c-0.1-0.2-0.5-0.3-0.7-0.2l-1.6,0.9c-1.9-0.9-3.9-1.7-6-2.3c-2.8-2.5-6.4-4.1-10.5-4.4    c-4.8-0.3-9.4,1.2-12.9,4.4c-2.1,0.6-4.1,1.4-6,2.3l-1.6-0.9c-0.2-0.1-0.6-0.1-0.7,0.2c-0.1,0.2-0.1,0.6,0.2,0.7l1,0.6    c-13.9,7-23.1,21.5-23.1,37.5c0,7.8,2.2,15.4,6.2,22c-0.2,4.1,2.7,7.4,6.4,8 M71.9,21.3c0.1,0.2,0.3,0.3,0.4,0.3    c0.1,0,0.2,0,0.3-0.1l0.8-0.4c13.9,6.7,23.1,21,23.1,36.9c0,6.9-1.7,13.7-5.1,19.7c-1.1-2.9-3.9-5-7.2-5c-2.7,0-5.2,1.4-6.6,3.7    c-1-0.2-1.9-0.1-2.9,0.2c-1.3-1.4-3.1-2.1-5-2.1c-0.4,0-0.8,0-1.2,0.1l0.8-4.8c0-0.1,0-0.1,0-0.2V56.2c0-1.8-1.4-3.2-3.2-3.2    c-1.8,0-3.2,1.4-3.2,3.2v1.2h-0.4c0.1-5.5,2.3-10.8,6.1-15.1c3-3.5,4.6-7.9,4.3-12.5c-0.2-4-1.8-7.7-4.3-10.6    c1.1,0.4,2.3,0.8,3.4,1.3L72,20.6C71.8,20.7,71.7,21.1,71.9,21.3z M63.1,58.4v1.9H48v-1.9H63.1z M53.6,46.7h-1.4    c-0.8,0-1.4-0.6-1.4-1.4c0-0.8,0.6-1.4,1.4-1.4c0.8,0,1.4,0.6,1.4,1.4V46.7z M56.5,57.4h-1.9v-9.7h1.9V57.4z M48,61.3h15v2H48    V61.3z M47,57.9v8.8v2.2h-4.3V56.2c0-1.2,1-2.2,2.2-2.2c1.2,0,2.2,1,2.2,2.2V57.9z M48,64.4h15v1.9H48V64.4z M64.1,66.7v-8.8v-1.7    c0-1.2,1-2.2,2.2-2.2s2.2,1,2.2,2.2v12.7h-4.3V66.7z M56.7,14.2c3.7,0.3,7.1,1.8,9.8,4.1c0,0.1,0.1,0.1,0.2,0.2    c3.1,2.8,5.1,6.8,5.3,11.3c0.2,4.3-1.2,8.5-4.1,11.8c-4,4.5-6.2,10.1-6.3,15.8h-4.1v-9.7h1.4c1.3,0,2.4-1.1,2.4-2.4    c0-1.3-1.1-2.4-2.4-2.4c-1.3,0-2.4,1.1-2.4,2.4v1.4h-1.9v-1.4c0-1.3-1.1-2.4-2.4-2.4c-1.3,0-2.4,1.1-2.4,2.4    c0,1.3,1.1,2.4,2.4,2.4h1.4v9.7h-4.1c-0.1-5.7-2.4-11.3-6.3-15.8c-2.7-3-4.1-6.9-4.1-10.9c0-4.6,1.9-9,5.2-12.1    C47.7,15.4,52.1,13.9,56.7,14.2z M57.5,46.7v-1.4c0-0.8,0.6-1.4,1.4-1.4c0.8,0,1.4,0.6,1.4,1.4c0,0.8-0.6,1.4-1.4,1.4H57.5z     M14.6,57.9c0-15.8,9.2-30.1,23.1-36.9l0.8,0.4c0.1,0,0.2,0.1,0.3,0.1c0.2,0,0.4-0.1,0.4-0.3c0.1-0.2,0.1-0.6-0.2-0.7l-0.1-0.1    c1.1-0.5,2.2-0.9,3.4-1.3c-2.7,3.2-4.3,7.3-4.3,11.5c0,4.3,1.6,8.4,4.4,11.6c3.8,4.3,5.9,9.7,6.1,15.1H48v-1.2    c0-1.8-1.4-3.2-3.2-3.2c-1.8,0-3.2,1.4-3.2,3.2v13.2c0,0.1,0,0.1,0,0.2l0.8,4.7c-2.1-0.2-4.1,0.6-5.6,2.1    c-0.9-0.3-1.9-0.3-2.9-0.2c-1.4-2.3-3.9-3.7-6.6-3.7c-3.5,0-6.5,2.4-7.4,5.7C16.5,72.1,14.6,65.1,14.6,57.9z M84.2,87H27.5    c-3.7,0-6.7-3-6.7-6.7c0-3.7,3-6.7,6.7-6.7c2.4,0,4.7,1.3,5.9,3.5c0.1,0.2,0.4,0.3,0.6,0.3c1-0.3,2-0.2,3,0.2    c0.2,0.1,0.4,0,0.6-0.1c1.1-1.3,2.7-2,4.4-2c0.4,0,0.7,0,1.1,0.1c0.2,0,0.3,0,0.5-0.1c0.1-0.1,0.2-0.3,0.1-0.5l-0.8-4.9h4.7    c0.3,0,0.5-0.2,0.5-0.5v-2.2h15v2.2c0,0.3,0.2,0.5,0.5,0.5h4.7L67.4,75c-0.1,0.4,0.3,0.7,0.7,0.6c0.5-0.2,1.1-0.3,1.7-0.3    c1.7,0,3.3,0.7,4.4,2c0.1,0.2,0.4,0.2,0.6,0.1c0.9-0.4,2-0.4,3-0.2c0.2,0.1,0.5,0,0.6-0.3c1.2-2.1,3.4-3.5,5.9-3.5    c3.7,0,6.7,3,6.7,6.7C90.9,84,87.9,87,84.2,87z"></path>
	</g>
	<g id="XMLID_1543_">
		<g id="XMLID_1604_">
			<path id="XMLID_1605_" class="st9" d="M55.6,11.9c0.3,0,0.5-0.2,0.5-0.5V8.1c0-0.3-0.2-0.5-0.5-0.5c-0.3,0-0.5,0.2-0.5,0.5v3.3     C55,11.7,55.3,11.9,55.6,11.9z"></path>
		</g>
		<g id="XMLID_1600_">
			<path id="XMLID_1603_" class="st9" d="M65,14.4c0.1,0,0.2,0.1,0.3,0.1c0.2,0,0.4-0.1,0.4-0.3l1.7-2.9c0.1-0.2,0.1-0.6-0.2-0.7     c-0.2-0.1-0.6-0.1-0.7,0.2l-1.7,2.9C64.6,14,64.7,14.3,65,14.4z"></path>
		</g>
		<g id="XMLID_1596_">
			<path id="XMLID_1599_" class="st9" d="M74.9,31.2h3.3c0.3,0,0.5-0.2,0.5-0.5c0-0.3-0.2-0.5-0.5-0.5h-3.3c-0.3,0-0.5,0.2-0.5,0.5     C74.4,31,74.6,31.2,74.9,31.2z"></path>
		</g>
		<g id="XMLID_1592_">
			<path id="XMLID_1595_" class="st9" d="M75.4,41.6l-2.9-1.7c-0.2-0.1-0.6-0.1-0.7,0.2c-0.1,0.2-0.1,0.6,0.2,0.7l2.9,1.7     c0.1,0,0.2,0.1,0.3,0.1c0.2,0,0.4-0.1,0.4-0.3C75.8,42,75.7,41.7,75.4,41.6z"></path>
		</g>
		<g id="XMLID_1589_">
			<path id="XMLID_1590_" class="st9" d="M45.4,14.2c0.1,0.2,0.3,0.3,0.4,0.3c0.1,0,0.2,0,0.3-0.1c0.2-0.1,0.3-0.5,0.2-0.7l-1.7-2.9     c-0.1-0.2-0.5-0.3-0.7-0.2c-0.2,0.1-0.3,0.5-0.2,0.7L45.4,14.2z"></path>
		</g>
		<g id="XMLID_1584_">
			<path id="XMLID_1586_" class="st9" d="M32.9,31.2h3.3c0.3,0,0.5-0.2,0.5-0.5c0-0.3-0.2-0.5-0.5-0.5h-3.3c-0.3,0-0.5,0.2-0.5,0.5     C32.4,31,32.6,31.2,32.9,31.2z"></path>
		</g>
		<g id="XMLID_1579_">
			<path id="XMLID_1582_" class="st9" d="M35.5,42.3c0.1,0.2,0.3,0.3,0.4,0.3c0.1,0,0.2,0,0.3-0.1l2.9-1.7c0.2-0.1,0.3-0.5,0.2-0.7     c-0.1-0.2-0.5-0.3-0.7-0.2l-2.9,1.7C35.4,41.7,35.4,42,35.5,42.3z"></path>
		</g>
	</g>
</g>
</svg>
