<?xml version="1.0" encoding="UTF-8"?>
<!-- Generator: Adobe Illustrator 19.0.0, SVG Export Plug-In . SVG Version: 6.00 Build 0)  -->
<svg xmlns="http://www.w3.org/2000/svg" xmlns:xlink="http://www.w3.org/1999/xlink" version="1.1" id="Layer_1" x="0px" y="0px" viewBox="0 0 100 100" style="enable-background:new 0 0 100 100;" xml:space="preserve">
<style type="text/css">
	.st0{fill:#FFFFFF;}
</style>
<g id="XMLID_1668_">
	<g id="XMLID_50_">
		<path id="XMLID_70_" class="st0" d="M62.5,55.3c-0.4,0-0.8-0.1-1.2-0.4L50,46.7l-11.4,8.2c-0.7,0.5-1.6,0.5-2.3,0s-1-1.4-0.7-2.2    l4.3-13.3l-11.4-8.2c-0.7-0.5-1-1.4-0.7-2.2c0.3-0.8,1-1.4,1.9-1.4h14L48,14.3c0.3-0.8,1-1.4,1.9-1.4s1.6,0.6,1.9,1.4l4.3,13.3h14    c0.9,0,1.6,0.6,1.9,1.4s0,1.7-0.7,2.2l-11.4,8.2l4.3,13.3c0.3,0.8,0,1.7-0.7,2.2C63.3,55.2,62.9,55.3,62.5,55.3z M35.8,31.5    l7.6,5.5c0.7,0.5,1,1.4,0.7,2.2l-2.9,8.9l7.6-5.5c0.7-0.5,1.6-0.5,2.3,0l7.6,5.5l-2.9-8.9c-0.3-0.8,0-1.7,0.7-2.2l7.6-5.5h-9.4    c-0.9,0-1.6-0.6-1.9-1.4L50,21.2l-2.9,8.9c-0.3,0.8-1,1.4-1.9,1.4H35.8z"></path>
	</g>
	<g id="XMLID_51_">
		<path id="XMLID_67_" class="st0" d="M50,71.7c-19.7,0-35.6-16-35.6-35.6S30.3,0.4,50,0.4s35.6,16,35.6,35.6S69.7,71.7,50,71.7z     M50,4.4c-17.5,0-31.7,14.2-31.7,31.7S32.5,67.8,50,67.8s31.7-14.2,31.7-31.7S67.5,4.4,50,4.4z"></path>
	</g>
	<g id="XMLID_52_">
		<polygon id="XMLID_66_" class="st0" points="42.3,99.4 34.1,90.1 21.8,92.1 31.5,64.7 35.2,66 27.8,87.1 35.6,85.8 40.8,91.7     48.4,70.5 52.1,71.8   "></polygon>
	</g>
	<g id="XMLID_53_">
		<polygon id="XMLID_55_" class="st0" points="57.7,99.6 47.4,70.4 51.2,69.1 59.1,91.5 64,85.4 72.2,87 65,66.5 68.7,65.2     78.2,92.2 65.6,89.8   "></polygon>
	</g>
</g>
</svg>
