<?xml version="1.0" encoding="UTF-8"?>
<!-- Generator: Adobe Illustrator 19.0.0, SVG Export Plug-In . SVG Version: 6.00 Build 0)  -->
<svg xmlns="http://www.w3.org/2000/svg" xmlns:xlink="http://www.w3.org/1999/xlink" version="1.1" id="Layer_1" x="0px" y="0px" viewBox="0 0 200 200" style="enable-background:new 0 0 200 200;" xml:space="preserve">
<style type="text/css">
	.st0{fill:#61CE70;}
</style>
<g id="XMLID_9_">
	<g id="XMLID_38_">
		<g id="XMLID_46_">
			<path id="XMLID_37_" class="st0" d="M104.9,126.6c0.1-0.3,0.1-0.8,0.1-1.1c-1.2-4.1-1.9-8.4-4.5-11.9c-1.5-2.1-1.5-4-0.1-6.1     c0.8-1.2,1.3-2.7,2.1-4.3c-3.2,0-4.8-2.1-6.7-4c-0.5-0.5-1.1-0.8-1.8-1c-2.2-0.6-4.5-1.1-6.7-1.5c-0.7-0.1-1-0.5-1.3-1.1     c-0.7-1.6-1.5-3.1-2.2-4.7c-0.1,0-0.1,0-0.2,0c0,1,0,2,0,3c-0.9,0.3-1.4,0-1.8-0.6c-2.1-2.9-4.2-5.7-6.3-8.6     c-0.3-0.4-0.5-1-0.5-1.6c-0.1-2.2,0-4.4,0-6.6c0-0.5-0.2-1.1-0.4-1.5c-1.4-2.3-2.9-4.6-4.2-7c-0.5-0.9-1.1-1.2-2.1-1     c-3.6,0.7-7.2,1.4-10.9,1.4c-2.1,0-3.5-0.9-5-2c1.2-0.9,2.3-1.8,3.4-2.7c-1,0.1-2,0.3-2.9,0.5c-0.3,0.1-0.6,0.3-0.7,0.6     C49,69.7,47,75,46,80.5c-0.4,2.4-0.7,4.9-1,7.3c0,1.8,0,3.6,0,5.5c0.3,2,0.4,4.1,0.8,6.1c3.1,16.5,12.1,28.8,26.9,36.9     c6.3,3.5,13.1,5.3,20.3,5.8c0.3,0,0.5,0.1,0.8,0.2c1.9,0,3.8,0,5.7,0c1.3-0.2,2.5-0.3,3.9-0.5c0-0.5-0.1-1-0.1-1.5     c-0.1-2.3-0.6-4.7,0.1-7C104,131,104.4,128.8,104.9,126.6z"></path>
		</g>
		<g id="XMLID_45_">
			<path id="XMLID_36_" class="st0" d="M120.4,61c-0.7-0.6-1.1-1.3-1.4-2.2c-0.8-3-2-5.6-4.6-7.7c-1.9-1.6-4.1-1.4-6.1-2     c-0.4,1.4-0.2,2.5,0.9,3.4c1.2,0.9,2.2,2.1,3.3,3.2c0.9,1,1.8,2,2.6,3c-1.6,1.5-3.3,1.7-5.1,0.7c-0.4-0.2-0.9-0.4-1.3-0.5     c-1.2-0.3-1.7-1-1.5-2.2c0.1-0.3,0-1-0.2-1.1c-1.3-0.6-2.6-1.1-3.9-1.6c-0.4,1.6-0.8,3.1-1,4.6c-0.2,1.2-0.7,1.7-1.9,1.9     c-0.8,0.1-2.1,0.1-2.4,0.6c-0.4,0.7-0.1,1.8,0,2.7c0,0.3,0.3,0.7,0.5,0.7c1.7,0.4,3.3,0.7,5.1,1c0.3-1.8,0.7-3.6,1-5.4     c1.7,0.3,3.4,0.3,4.8,1c1.4,0.7,2.8,1.1,4.3,1c0.7-0.1,1.1,0.2,1.4,0.8c1,2.7,2.7,5,4.9,6.9c0.7,0.6,1.4,1.4,2.1,2.1     c1.2,1.2,1.3,1.8,0.4,3.6c-3.2-1.2-6-0.2-8.9,1.3c-3,1.6-5.6,3.4-7.7,6.2c-1.5,2-3.4,3.7-3.6,6.4c0,0.2-0.3,0.5-0.5,0.5     c-0.9-0.1-1.7-0.1-2.6-0.4c-1-0.3-1.9-0.9-2.9-1.3c-0.3-0.1-0.6-0.2-0.8-0.1c-1.2,0.5-2.4,1.1-3.7,1.7c0.3,1.4,0.6,2.7,1,4.1     c0.1,0.1,0.1,0.2,0.2,0.3c0.9-2.3,2.7-2.4,4.7-2.1c-0.1,1.2-0.1,2.5-0.2,3.8c1.7,0.2,3.1,0.9,4,2.3c0.7,1.1,1.5,1.2,2.7,0.8     c1-0.4,2.1-0.7,3-0.6c2.5,0.3,4.9,1,7.3,1.5c1.4,0.3,2.8,0.5,4.2,0.9c0.5,0.1,1.2,0.4,1.5,0.8c2.5,3.3,5.6,5.9,9.3,7.7     c1,0.5,2,1.1,3,1.7c0.3,0.1,0.5,0.3,0.8,0.5c-1.9,3.6-3.7,7.2-5.6,10.7c-0.2,0.3-0.5,0.5-0.8,0.7c-1.6,0.8-3.2,1.4-4.7,2.2     c-0.4,0.2-0.8,0.7-1,1.1c-0.6,1.5-1.1,3.1-1.8,4.6c-0.2,0.5-0.6,1.1-1.1,1.4c-2.2,1.5-4.3,3.1-6.7,4.4c-1.8,1-1.8,2.7-2.3,4.3     c0.2,0,0.3,0,0.3,0c0.1,0,0.3-0.1,0.4-0.1c9.2-2.4,17.2-7,23.9-13.8c7.6-7.7,12.3-16.9,14.2-27.5c0.4-2.2,0.5-4.4,0.8-6.6     c0-1.6,0-3.1,0-4.7c-0.1-0.3-0.1-0.7-0.2-1c-0.6-8.6-3.1-16.6-7.7-23.9c-0.9-1.4-0.9-1.4-2.4-1.1c-0.2,0-0.3,0-0.5,0.1     c-2.3,0.2-4.6,0.4-6.9,0.6c-0.7,0.1-1.2,0.3-1.5,0.9c-0.6,1-1.2,1.9-1.9,3.1c-0.9-0.6-1.8-1.1-2.6-1.7     C123.3,63.7,121.9,62.3,120.4,61z"></path>
		</g>
		<g id="XMLID_44_">
			<path id="XMLID_35_" class="st0" d="M97,33.9c9.2-21.6,23.5-21.4,23.5-21.4C104.6,17,98.9,36.4,98.9,36.4     c21.2,3.5,27.6-26.6,27.6-26.6s-15.8-2.5-24.7,3.3C92.9,18.9,97,33.9,97,33.9z"></path>
		</g>
		<g id="XMLID_40_">
			<path class="st0" d="M72.3,31.4c7.7,6.9,21.6,3.7,21.6,3.7c0.6,0.5,1.4,2,2.1,3.5c-0.8,0-1.6,0-2.4,0c-1.7,0.2-3.5,0.4-5.2,0.7     C78.7,41,70.1,45,62.7,51.4c-2,1.8-3.9,3.8-5.8,5.7c0.1,0.1,0.1,0.2,0.2,0.2c0.3-0.1,0.6-0.2,0.9-0.3c3.6-1.1,7.2-2.1,11-2.4     c2.8-0.2,5.4-0.8,7.7-2.5c0.6-0.4,1.2-0.4,1.9-0.2c1.4,0.4,2.7,1,4.1,1c2.2,0.1,4.4-0.1,6.6-0.3c0.4,0,0.9-0.3,1.1-0.7     c0.7-0.9,1.2-1.9,1.9-2.9c0.2-0.3,0.7-0.5,1-0.4c1.3,0.1,2.7,0.4,4,0.4c2.6-0.1,5.2-0.4,7.7-0.7c0.4,0,0.8-0.3,1.1-0.6     c1-0.9,1.9-1.9,2.9-2.8c1.8-1.7,3.8-2.1,6.2-1.4c1,0.3,2.1,0.1,3.1,0.2c0-0.1,0-0.2,0-0.3c-4.1-1.9-8.3-3.3-12.8-4     c-1.9-0.3-3.8-0.5-5.7-0.8c-0.8,0-1.6,0-2.4,0c-12.8-29.1-42-32.9-42-32.9c20.1-2.2,38.5,20.2,38.5,20.2c-0.9-4.1,2-10,2-10     C76.5-10.6,48.9,6.1,48.9,6.1C58,10.1,64.6,24.4,72.3,31.4z M83.5,48.9c-0.2,0-0.5-0.1-0.6-0.2C81.9,48.2,81,47.6,80,47     c1.2-0.9,2.3-1.8,3.5-2.7c0,0,0.1,0,0.1,0c1.4,0.9,2.8,0.8,4.3,0.1c0.6-0.3,1-0.1,1.3,0.5c0.3,0.7,0.8,1.3,1.2,2.1     C88,47.7,85.8,48.3,83.5,48.9z M103.9,41.1c0.2-0.1,0.5-0.1,0.7,0c1,0.5,1.9,1.1,3,1.7c-1.7,1.3-3.1,2.7-4.8,3.5     c-1.4,0.6-3.1,0.6-4.7,0.6c-0.7,0-1.4-0.8-2.3-1.3c1-0.5,1.9-1.1,2.8-1.6c0.2,0,0.3-0.1,0.5-0.3C100.7,42.9,102.3,42,103.9,41.1z     "></path>
		</g>
		<g id="XMLID_39_">
			<path id="XMLID_34_" class="st0" d="M144.5,58.8c-0.7-1.1-2.4-0.6-2.4,0.7h0c6.8,9.9,10.4,22,9.5,35.1     c-2,27.6-24.8,49.6-52.5,50.7c-31.2,1.2-57-23.8-57-54.8c0-11.5,2.9-21.1,8.9-30c0-1.3-1.7-1.8-2.5-0.7     c-6.2,9.7-9.5,21.4-8.8,33.8c1.5,28.5,24.3,51.8,52.8,54c33.6,2.5,61.7-24.1,61.7-57.1C154,78.7,150.5,67.8,144.5,58.8z"></path>
		</g>
	</g>
	<g id="XMLID_26_">
		<g id="XMLID_30_">
			<path id="XMLID_33_" class="st0" d="M135.6,35.5c-0.4,0-0.7-0.3-0.7-0.7V23.8c0-0.4,0.3-0.7,0.7-0.7c0.4,0,0.7,0.3,0.7,0.7v11.1     C136.3,35.2,136,35.5,135.6,35.5z"></path>
		</g>
		<g id="XMLID_29_">
			<path id="XMLID_32_" class="st0" d="M135.6,51.9c-0.4,0-0.7-0.3-0.7-0.7V40.2c0-0.4,0.3-0.7,0.7-0.7c0.4,0,0.7,0.3,0.7,0.7v11.1     C136.3,51.6,136,51.9,135.6,51.9z"></path>
		</g>
		<g id="XMLID_28_">
			<path id="XMLID_31_" class="st0" d="M124.4,37.6c0-0.4,0.2-0.7,0.5-0.7h7.7c0.3,0,0.5,0.3,0.5,0.7s-0.2,0.7-0.5,0.7h-7.7     C124.7,38.3,124.4,38,124.4,37.6z"></path>
		</g>
		<g id="XMLID_27_">
			<path id="XMLID_25_" class="st0" d="M138.3,37.6c0-0.4,0.2-0.7,0.5-0.7h7.7c0.3,0,0.5,0.3,0.5,0.7s-0.2,0.7-0.5,0.7h-7.7     C138.5,38.3,138.3,38,138.3,37.6z"></path>
		</g>
	</g>
	<g id="XMLID_1_">
		<g id="XMLID_2_">
			<g id="XMLID_67_">
				<path class="st0" d="M90.2,186.5H71.8c-0.5,0-1-0.3-1.1-0.8c0,0-0.6-1.9-3.4-6.4c-2.8-4.6-16-15.2-23.2-17.9      c-6.9-2.6-10.3-5.6-11.5-9.7c-0.4-1.6-2.5-5.6-4.3-9.1c-1.9-3.6-3.1-5.9-3.3-7c-0.6-2.4,0.9-25.1,1.6-29.1      c0.5-2.5,2-2.9,2.7-2.9c2.1-0.1,4.4,2.2,5.2,5.2c1,3.8,1.5,18.7,1.5,19.3c0,0.1,0,0.3-0.1,0.4c1.7,0.2,3.3,1.4,4,2.1      c0.9,1,8.9,6.9,13.7,10.5c6.4,4.8,11.3,6.2,16.1,7.5c3.9,1.1,7.6,2.1,11.8,4.9c9.7,6.3,9.9,30.8,9.9,31.8c0,0.3-0.1,0.6-0.3,0.8      C90.9,186.4,90.6,186.5,90.2,186.5z M72.6,184.2h16.5c-0.2-4.9-1.3-23.8-8.8-28.7c-3.9-2.6-7.4-3.5-11.2-4.6      c-4.9-1.4-10-2.8-16.8-7.9c-1.3-0.9-12.7-9.3-14.1-10.8c-0.8-0.8-2.5-1.7-3.3-1.4c-0.4,0.1-0.6,0.8-0.6,1.3      c-0.1,2,2.7,4.6,5.1,6.9c1.9,1.7,3.6,3.4,4.6,5.1l0.4,0.8c2.4,4.2,7,12.1,14.3,14.3c0.6,0.2,1,0.8,0.8,1.4      c-0.2,0.6-0.8,1-1.4,0.8c-8.2-2.5-13-10.9-15.6-15.4l-0.4-0.8c-0.8-1.4-2.5-3-4.2-4.5c-3-2.8-6.1-5.6-5.9-8.7      c0.1-2.1,1.1-2.9,1.8-3.3c-0.1-0.2-0.2-0.4-0.2-0.6c0-0.2-0.5-15.3-1.4-18.8c-0.6-2.2-2.2-3.5-2.8-3.5c-0.2,0-0.4,0.5-0.5,1      c-0.8,4.3-2.1,26.4-1.7,28.1c0.2,0.8,1.8,3.8,3.1,6.4c2,3.8,4,7.7,4.5,9.5c0.6,2.4,2.3,5.2,10.1,8.2c7.8,3,21.4,14,24.4,18.9      C71.2,181.2,72.1,183.2,72.6,184.2z"></path>
			</g>
		</g>
		<g id="XMLID_15_">
			<g id="XMLID_66_">
				<path id="XMLID_24_" class="st0" d="M39.2,131.1c0,0-0.1,0-0.1,0c-0.6-0.1-1.1-0.6-1.1-1.3c0.4-4.7,0.1-12.7-2.5-14.2      c-0.6-0.3-0.7-1-0.4-1.6c0.3-0.6,1-0.7,1.6-0.4c4.6,2.7,3.7,15,3.6,16.4C40.3,130.7,39.8,131.1,39.2,131.1z"></path>
			</g>
		</g>
		<g id="XMLID_3_">
			<g id="XMLID_65_">
				<path id="XMLID_23_" class="st0" d="M42.9,134.5C42.9,134.5,42.9,134.5,42.9,134.5c-0.7-0.1-1.2-0.6-1.2-1.3      c0.3-3.9,0.1-10-1.3-11.9c-0.1,0.1-0.3,0.1-0.5,0.1c-0.6,0-1.2-0.5-1.2-1.2c0-0.6,0.3-1.1,0.8-1.4c0.5-0.3,1.1-0.3,1.6,0      c3.7,2.2,3.1,12.5,2.9,14.5C44,134.1,43.5,134.5,42.9,134.5z"></path>
			</g>
		</g>
		<g id="XMLID_4_">
			<g id="XMLID_64_">
				<path id="XMLID_22_" class="st0" d="M46.2,137.3c0,0-0.1,0-0.1,0c-0.6-0.1-1.1-0.6-1-1.3c0.3-3.3,0.1-8.5-1.4-9.4      c-0.6-0.3-0.7-1-0.4-1.6c0.3-0.6,1-0.7,1.6-0.4c3.3,1.9,2.7,10,2.5,11.6C47.3,136.9,46.7,137.3,46.2,137.3z"></path>
			</g>
		</g>
	</g>
	<g id="XMLID_6_">
		<g id="XMLID_16_">
			<g id="XMLID_61_">
				<path class="st0" d="M123.5,186.5H105c-0.3,0-0.6-0.1-0.8-0.3c-0.2-0.2-0.3-0.5-0.3-0.8c0-1,0.2-25.5,9.9-31.8      c4.2-2.8,7.9-3.8,11.8-4.9c4.7-1.3,9.6-2.7,16-7.5c4.8-3.5,12.8-9.5,13.7-10.5c0.7-0.8,2.4-1.9,4-2.2c0-0.1-0.1-0.3-0.1-0.4      c0-0.6,0.5-15.5,1.5-19.3c0.8-2.9,3.1-5.2,5.2-5.2c0.7,0,2.3,0.4,2.7,2.9c0.7,4,2.2,26.7,1.6,29.1c-0.3,1-1.4,3.3-3.3,6.9      c-1.8,3.5-3.9,7.4-4.3,9.1c-1.1,4.2-4.6,7.1-11.5,9.7c-7.3,2.8-20.4,13.4-23.2,17.9c-2.7,4.5-3.4,6.4-3.4,6.4      C124.4,186.1,124,186.5,123.5,186.5z M106.2,184.2h16.5c0.4-1,1.4-3,3.3-6.1c3-4.9,16.6-15.9,24.4-18.9      c7.7-2.9,9.4-5.8,10.1-8.2c0.5-1.9,2.5-5.8,4.5-9.5c1.4-2.6,2.9-5.6,3.1-6.4c0.4-1.7-0.9-23.8-1.7-28.1c-0.1-0.5-0.3-1-0.5-1      c0,0,0,0,0,0c-0.7,0-2.2,1.3-2.8,3.5c-0.9,3.5-1.4,18.6-1.4,18.8c0,0.2-0.1,0.4-0.2,0.6c0.7,0.4,1.7,1.2,1.8,3.3      c0.2,3.1-2.9,6-5.9,8.7c-1.7,1.5-3.4,3.1-4.2,4.5l-0.4,0.8c-2.6,4.5-7.4,12.9-15.6,15.4c-0.6,0.2-1.3-0.2-1.4-0.8      c-0.2-0.6,0.2-1.3,0.8-1.4c7.3-2.2,11.9-10.1,14.3-14.3l0.4-0.8c1-1.7,2.8-3.3,4.6-5.1c2.5-2.3,5.3-4.9,5.1-6.9      c0-0.5-0.2-1.2-0.6-1.3c-0.8-0.3-2.5,0.5-3.3,1.4c-1.4,1.5-12.8,9.8-14.1,10.8c-6.7,5.1-11.9,6.5-16.8,7.9      c-3.7,1-7.2,2-11.2,4.6C107.5,160.3,106.4,179.3,106.2,184.2z"></path>
			</g>
		</g>
		<g id="XMLID_14_">
			<g id="XMLID_60_">
				<path id="XMLID_21_" class="st0" d="M156.1,131.1c-0.6,0-1.1-0.5-1.2-1.1c-0.1-1.4-1-13.6,3.6-16.4c0.6-0.3,1.3-0.1,1.6,0.4      c0.3,0.6,0.1,1.3-0.4,1.6c-2.5,1.5-2.9,9.5-2.5,14.2c0.1,0.6-0.4,1.2-1.1,1.3C156.1,131.1,156.1,131.1,156.1,131.1z"></path>
			</g>
		</g>
		<g id="XMLID_8_">
			<g id="XMLID_59_">
				<path id="XMLID_20_" class="st0" d="M152.4,134.5c-0.6,0-1.1-0.5-1.2-1.1c-0.2-2-0.8-12.3,2.9-14.5c0.5-0.3,1.1-0.3,1.6,0      c0.5,0.3,0.8,0.8,0.8,1.4c0,0.6-0.5,1.2-1.2,1.2c-0.2,0-0.3,0-0.5-0.1c-1.4,1.9-1.7,7.9-1.3,11.9      C153.6,133.9,153.1,134.5,152.4,134.5C152.4,134.5,152.4,134.5,152.4,134.5z"></path>
			</g>
		</g>
		<g id="XMLID_7_">
			<g id="XMLID_58_">
				<path id="XMLID_19_" class="st0" d="M149.1,137.3c-0.6,0-1.1-0.5-1.2-1.1c-0.1-1.6-0.7-9.7,2.5-11.6c0.6-0.3,1.3-0.1,1.6,0.4      c0.3,0.6,0.1,1.3-0.4,1.6c-1.5,0.9-1.7,6.1-1.4,9.4c0.1,0.6-0.4,1.2-1,1.3C149.2,137.3,149.2,137.3,149.1,137.3z"></path>
			</g>
		</g>
	</g>
	<g id="XMLID_47_">
		<rect id="XMLID_18_" x="22.1" y="190.6" class="st0" width="120.6" height="2.3"></rect>
	</g>
	<g id="XMLID_100_">
		<rect id="XMLID_17_" x="49.1" y="196.8" class="st0" width="128.8" height="2.3"></rect>
	</g>
	<g id="XMLID_13_">
		<path id="XMLID_5_" class="st0" d="M163.5,93c0.2,0.2,0.5,0.3,0.8,0.3s0.6-0.1,0.8-0.3l1.1-1.1l1.1,1.1c0.2,0.2,0.5,0.3,0.8,0.3    c0.3,0,0.6-0.1,0.8-0.3c0.5-0.5,0.5-1.2,0-1.6l-1.1-1.1l1.1-1.1c0.5-0.5,0.5-1.2,0-1.6c-0.5-0.5-1.2-0.5-1.6,0l-1.1,1.1l-1.1-1.1    c-0.5-0.5-1.2-0.5-1.6,0c-0.5,0.5-0.5,1.2,0,1.6l1.1,1.1l-1.1,1.1C163.1,91.9,163.1,92.6,163.5,93z"></path>
	</g>
	<g id="XMLID_10_">
		<path class="st0" d="M28.7,78.3c2.5,0,4.6-2.1,4.6-4.6s-2.1-4.6-4.6-4.6c-2.5,0-4.6,2.1-4.6,4.6S26.2,78.3,28.7,78.3z M28.7,71.4    c1.3,0,2.3,1,2.3,2.3s-1,2.3-2.3,2.3c-1.3,0-2.3-1-2.3-2.3S27.5,71.4,28.7,71.4z"></path>
	</g>
</g>
</svg>
