<svg width="17" height="24" viewBox="0 0 17 24" fill="none" xmlns="http://www.w3.org/2000/svg">
<g clip-path="url(#clip0_35_132)">
<path d="M16.5294 5.70588L12.2353 10V22.1176C12.2353 22.5686 12.0735 22.9559 11.75 23.2794C11.4265 23.6029 11.0392 23.7647 10.5882 23.7647C10.1373 23.7647 9.75 23.6029 9.42647 23.2794C9.10294 22.9559 8.94118 22.5686 8.94118 22.1176V16.4706H8V22.1176C8 22.5686 7.83823 22.9559 7.51471 23.2794C7.19118 23.6029 6.80392 23.7647 6.35294 23.7647C5.90196 23.7647 5.51471 23.6029 5.19118 23.2794C4.86765 22.9559 4.70588 22.5686 4.70588 22.1176V10L0.411765 5.70588C0.137255 5.43137 0 5.09804 0 4.70588C0 4.31373 0.137255 3.98039 0.411765 3.70588C0.696078 3.43137 1.03186 3.29412 1.41912 3.29412C1.80637 3.29412 2.13725 3.43137 2.41176 3.70588L5.76471 7.05882H11.1765L14.5294 3.70588C14.8039 3.43137 15.1373 3.29412 15.5294 3.29412C15.9216 3.29412 16.2549 3.43137 16.5294 3.70588C16.8039 3.9902 16.9412 4.32598 16.9412 4.71324C16.9412 5.10049 16.8039 5.43137 16.5294 5.70588ZM11.7647 3.29412C11.7647 4.20588 11.4436 4.98284 10.8015 5.625C10.1593 6.26716 9.38235 6.58824 8.47059 6.58824C7.55882 6.58824 6.78186 6.26716 6.13971 5.625C5.49755 4.98284 5.17647 4.20588 5.17647 3.29412C5.17647 2.38235 5.49755 1.60539 6.13971 0.963235C6.78186 0.321078 7.55882 0 8.47059 0C9.38235 0 10.1593 0.321078 10.8015 0.963235C11.4436 1.60539 11.7647 2.38235 11.7647 3.29412Z" fill="url(#paint0_linear_35_132)"/>
</g>
<defs>
<linearGradient id="paint0_linear_35_132" x1="0" y1="0" x2="22.4656" y2="16.0151" gradientUnits="userSpaceOnUse">
<stop stop-color="#23B0FF"/>
<stop offset="1" stop-color="#9DB31C"/>
</linearGradient>
<clipPath id="clip0_35_132">
<rect width="16.9412" height="24" fill="white"/>
</clipPath>
</defs>
</svg>
