<?xml version="1.0" encoding="UTF-8"?>
<!-- Generator: Adobe Illustrator 19.0.0, SVG Export Plug-In . SVG Version: 6.00 Build 0)  -->
<svg xmlns="http://www.w3.org/2000/svg" xmlns:xlink="http://www.w3.org/1999/xlink" version="1.1" id="Layer_1" x="0px" y="0px" viewBox="0 0 100 100" style="enable-background:new 0 0 100 100;" xml:space="preserve">
<style type="text/css">
	.st0{fill:#F78DA7;}
</style>
<g id="XMLID_105_">
	<g id="XMLID_165_">
		<g id="XMLID_178_">
			<path id="XMLID_179_" class="st0" d="M50,80.2c-16.6,0-30.2-13.5-30.2-30.2S33.3,19.8,50,19.8c16.6,0,30.2,13.5,30.2,30.2     S66.6,80.2,50,80.2z M50,23.1C35.1,23.1,23,35.2,23,50C23,64.8,35.1,76.9,50,76.9c14.8,0,26.9-12.1,26.9-26.9     C76.9,35.2,64.8,23.1,50,23.1z"></path>
		</g>
		<g id="XMLID_176_">
			<path id="XMLID_177_" class="st0" d="M49.9,36.6c-9.7,0-15.9-0.5-22.7-3.1c-0.8-0.3-1.3-1.3-0.9-2.1c0.3-0.8,1.3-1.3,2.1-0.9     c6.3,2.4,12.2,2.9,21.5,2.9c9.6,0,15.3-0.4,21.6-2.9c0.8-0.3,1.8,0.1,2.1,0.9c0.3,0.8-0.1,1.8-0.9,2.1C66,36.1,60,36.6,49.9,36.6     z"></path>
		</g>
		<g id="XMLID_174_">
			<path id="XMLID_175_" class="st0" d="M72.1,70c-0.2,0-0.4,0-0.6-0.1c-6.3-2.4-11.9-2.9-21.6-2.9c-9.3,0-15.2,0.4-21.5,2.9     c-0.8,0.3-1.8-0.1-2.1-0.9c-0.3-0.8,0.1-1.8,0.9-2.1c6.8-2.6,13-3.1,22.7-3.1c10.1,0,16,0.5,22.8,3.1c0.8,0.3,1.3,1.3,0.9,2.1     C73.4,69.6,72.8,70,72.1,70z"></path>
		</g>
		<g id="XMLID_170_">
			<path id="XMLID_171_" class="st0" d="M50,80.1c-9.3,0-16.5-13.2-16.5-30.1S40.7,19.9,50,19.9c9.3,0,16.5,13.2,16.5,30.1     S59.2,80.1,50,80.1z M50,23.1c-7.2,0-13.3,12.3-13.3,26.9S42.8,76.9,50,76.9c7.2,0,13.3-12.3,13.3-26.9S57.2,23.1,50,23.1z"></path>
		</g>
		<g id="XMLID_168_">
			<path id="XMLID_169_" class="st0" d="M78.5,51.6H21.4c-0.9,0-1.6-0.7-1.6-1.6s0.7-1.6,1.6-1.6h57.1c0.9,0,1.6,0.7,1.6,1.6     S79.4,51.6,78.5,51.6z"></path>
		</g>
		<g id="XMLID_166_">
			<path id="XMLID_167_" class="st0" d="M50,80.2c-0.9,0-1.6-0.7-1.6-1.6V21.5c0-0.9,0.7-1.6,1.6-1.6c0.9,0,1.6,0.7,1.6,1.6v57.1     C51.6,79.4,50.9,80.2,50,80.2z"></path>
		</g>
	</g>
	<g id="XMLID_163_">
		<path id="XMLID_164_" class="st0" d="M17.1,23c-0.4,0-0.8-0.1-1.1-0.4c-0.7-0.6-0.7-1.6-0.2-2.3c6.6-7.6,15.6-12.8,25.4-14.7    c0.9-0.2,1.7,0.4,1.9,1.3c0.2,0.9-0.4,1.7-1.3,1.9c-9.1,1.8-17.5,6.6-23.6,13.6C18,22.8,17.6,23,17.1,23z"></path>
	</g>
	<g id="XMLID_161_">
		<path id="XMLID_162_" class="st0" d="M8.8,65.8c-0.7,0-1.3-0.4-1.5-1.1C5.6,60,4.8,55,4.8,50c0-5,0.8-10,2.4-14.7    c0.3-0.9,1.2-1.3,2.1-1c0.9,0.3,1.3,1.2,1,2.1C8.8,40.7,8,45.3,8,50c0,4.7,0.8,9.3,2.3,13.6c0.3,0.9-0.2,1.8-1,2.1    C9.1,65.8,8.9,65.8,8.8,65.8z"></path>
	</g>
	<g id="XMLID_159_">
		<path id="XMLID_160_" class="st0" d="M41.6,94.4c-0.1,0-0.2,0-0.3,0c-9.8-1.9-18.8-7.1-25.4-14.7c-0.6-0.7-0.5-1.7,0.2-2.3    c0.7-0.6,1.7-0.5,2.3,0.2c6.1,7,14.5,11.9,23.6,13.6c0.9,0.2,1.5,1,1.3,1.9C43.1,93.9,42.4,94.4,41.6,94.4z"></path>
	</g>
	<g id="XMLID_156_">
		<path id="XMLID_158_" class="st0" d="M58.4,94.4c-0.8,0-1.4-0.5-1.6-1.3c-0.2-0.9,0.4-1.7,1.3-1.9c9.1-1.8,17.5-6.6,23.6-13.6    c0.6-0.7,1.6-0.7,2.3-0.2c0.7,0.6,0.7,1.6,0.2,2.3c-6.6,7.6-15.6,12.8-25.4,14.7C58.6,94.4,58.5,94.4,58.4,94.4z"></path>
	</g>
	<g id="XMLID_153_">
		<path id="XMLID_155_" class="st0" d="M91.2,65.8c-0.2,0-0.4,0-0.5-0.1c-0.9-0.3-1.3-1.2-1-2.1c1.5-4.4,2.3-9,2.3-13.6    c0-4.7-0.8-9.3-2.3-13.6c-0.3-0.9,0.2-1.8,1-2.1c0.9-0.3,1.8,0.2,2.1,1C94.4,40,95.2,45,95.2,50c0,5-0.8,10-2.4,14.7    C92.6,65.4,91.9,65.8,91.2,65.8z"></path>
	</g>
	<g id="XMLID_151_">
		<path id="XMLID_152_" class="st0" d="M82.7,22.8c-0.5,0-0.9-0.2-1.2-0.6C75.4,15.3,67.1,10.5,58,8.8c-0.9-0.2-1.5-1-1.3-1.9    c0.2-0.9,1-1.5,1.9-1.3c9.7,1.9,18.7,7,25.3,14.5c0.6,0.7,0.5,1.7-0.1,2.3C83.5,22.7,83.1,22.8,82.7,22.8z"></path>
	</g>
	<g id="XMLID_144_">
		<g id="XMLID_145_">
			<path id="XMLID_147_" class="st0" d="M50,12.1c-3.1,0-5.7-2.5-5.7-5.7c0-3.1,2.5-5.7,5.7-5.7c3.1,0,5.7,2.5,5.7,5.7     C55.7,9.5,53.1,12.1,50,12.1z M50,4c-1.3,0-2.4,1.1-2.4,2.4c0,1.3,1.1,2.4,2.4,2.4c1.3,0,2.4-1.1,2.4-2.4C52.4,5.1,51.3,4,50,4z"></path>
		</g>
	</g>
	<g id="XMLID_136_">
		<g id="XMLID_138_">
			<path id="XMLID_139_" class="st0" d="M12.2,33.9c-1,0-2-0.3-2.8-0.8c-2.7-1.6-3.6-5-2.1-7.8c1-1.8,2.9-2.8,4.9-2.8     c1,0,2,0.3,2.8,0.8c1.3,0.8,2.3,2,2.6,3.4c0.4,1.5,0.2,3-0.6,4.3C16.2,32.8,14.3,33.9,12.2,33.9z M12.2,25.8     c-0.9,0-1.7,0.5-2.1,1.2c-0.7,1.2-0.3,2.6,0.9,3.3c0.4,0.2,0.8,0.3,1.2,0.3c0.9,0,1.7-0.5,2.1-1.2c0.3-0.6,0.4-1.2,0.2-1.8     c-0.2-0.6-0.6-1.1-1.1-1.5C13.1,25.9,12.7,25.8,12.2,25.8z"></path>
		</g>
	</g>
	<g id="XMLID_129_">
		<g id="XMLID_130_">
			<path id="XMLID_132_" class="st0" d="M12.2,77.5c-2,0-3.9-1.1-4.9-2.8c-1.6-2.7-0.6-6.2,2.1-7.8c0.9-0.5,1.8-0.8,2.8-0.8     c2,0,3.9,1.1,4.9,2.8c0.8,1.3,1,2.8,0.6,4.3c-0.4,1.5-1.3,2.7-2.6,3.4C14.2,77.2,13.2,77.5,12.2,77.5z M12.2,69.4     c-0.4,0-0.8,0.1-1.2,0.3c-1.2,0.7-1.6,2.2-0.9,3.3c0.4,0.7,1.2,1.2,2.1,1.2c0.4,0,0.8-0.1,1.2-0.3c0.6-0.3,1-0.8,1.1-1.5     c0.2-0.6,0.1-1.3-0.2-1.8C13.9,69.8,13.1,69.4,12.2,69.4z"></path>
		</g>
	</g>
	<g id="XMLID_121_">
		<g id="XMLID_123_">
			<path id="XMLID_124_" class="st0" d="M50,99.3c-3.1,0-5.7-2.5-5.7-5.7c0-3.1,2.5-5.7,5.7-5.7c1.5,0,2.9,0.6,4,1.7     c1.1,1.1,1.7,2.5,1.7,4c0,1.5-0.6,2.9-1.7,4C52.9,98.7,51.5,99.3,50,99.3z M50,91.2c-1.3,0-2.4,1.1-2.4,2.4     c0,1.3,1.1,2.4,2.4,2.4c0.6,0,1.3-0.3,1.7-0.7c0.5-0.5,0.7-1.1,0.7-1.7c0-0.6-0.3-1.3-0.7-1.7C51.3,91.4,50.6,91.2,50,91.2z"></path>
		</g>
	</g>
	<g id="XMLID_114_">
		<g id="XMLID_115_">
			<path id="XMLID_117_" class="st0" d="M87.8,77.5c-1,0-2-0.3-2.8-0.8c-1.3-0.8-2.3-2-2.6-3.4c-0.4-1.5-0.2-3,0.6-4.3     c1-1.8,2.9-2.8,4.9-2.8c1,0,2,0.3,2.8,0.8c1.3,0.8,2.3,2,2.6,3.4c0.4,1.5,0.2,3-0.6,4.3C91.7,76.4,89.8,77.5,87.8,77.5z      M87.8,69.4c-0.9,0-1.7,0.5-2.1,1.2c-0.3,0.6-0.4,1.2-0.2,1.8c0.2,0.6,0.6,1.1,1.1,1.5c0.4,0.2,0.8,0.3,1.2,0.3     c0.9,0,1.7-0.5,2.1-1.2c0.3-0.6,0.4-1.2,0.2-1.8c-0.2-0.6-0.6-1.1-1.1-1.5C88.6,69.5,88.2,69.4,87.8,69.4z"></path>
		</g>
	</g>
	<g id="XMLID_106_">
		<g id="XMLID_108_">
			<path id="XMLID_109_" class="st0" d="M87.8,33.9c-2,0-3.9-1.1-4.9-2.8c-0.8-1.3-1-2.8-0.6-4.3c0.4-1.5,1.3-2.7,2.6-3.4     c0.9-0.5,1.8-0.8,2.8-0.8c2,0,3.9,1.1,4.9,2.8c0.8,1.3,1,2.8,0.6,4.3c-0.4,1.5-1.3,2.7-2.6,3.4C89.7,33.6,88.8,33.9,87.8,33.9z      M87.8,25.8c-0.4,0-0.8,0.1-1.2,0.3c-0.6,0.3-1,0.8-1.1,1.5c-0.2,0.6-0.1,1.3,0.2,1.8c0.4,0.7,1.2,1.2,2.1,1.2     c0.4,0,0.8-0.1,1.2-0.3c0.6-0.3,1-0.8,1.1-1.5c0.2-0.6,0.1-1.3-0.2-1.8C89.4,26.2,88.6,25.8,87.8,25.8z"></path>
		</g>
	</g>
</g>
</svg>
