<?xml version="1.0" encoding="UTF-8"?>
<!-- Generator: Adobe Illustrator 19.0.0, SVG Export Plug-In . SVG Version: 6.00 Build 0)  -->
<svg xmlns="http://www.w3.org/2000/svg" xmlns:xlink="http://www.w3.org/1999/xlink" version="1.1" id="Layer_1" x="0px" y="0px" viewBox="0 0 100 100" style="enable-background:new 0 0 100 100;" xml:space="preserve">
<style type="text/css">
	.st0{fill:#9B51E0;}
</style>
<g id="XMLID_182_">
	<g id="XMLID_92_">
		<path id="XMLID_18_" class="st0" d="M73.6,93.5h-3.1c0-11.2-9.1-20.2-20.2-20.2s-20.2,9.1-20.2,20.2h-3.1    c0-12.9,10.5-23.4,23.4-23.4S73.6,80.6,73.6,93.5z M50.2,68.9c-7.5,0-13.6-6.1-13.6-13.6s6.1-13.6,13.6-13.6s13.6,6.1,13.6,13.6    S57.7,68.9,50.2,68.9z M50.2,44.9c-5.8,0-10.4,4.7-10.4,10.4s4.7,10.4,10.4,10.4s10.4-4.7,10.4-10.4S55.9,44.9,50.2,44.9z"></path>
	</g>
	<g id="XMLID_101_">
		<path id="XMLID_14_" class="st0" d="M68.4,46.5h-3.1c0-8.3-6.8-15.1-15.1-15.1S35,38.1,35,46.5h-3.1c0-10.1,8.2-18.3,18.3-18.3    S68.4,36.4,68.4,46.5z M50.2,28c-5.9,0-10.8-4.8-10.8-10.8S44.2,6.5,50.2,6.5s10.8,4.8,10.8,10.8S56.1,28,50.2,28z M50.2,9.6    c-4.2,0-7.6,3.4-7.6,7.6s3.4,7.6,7.6,7.6s7.6-3.4,7.6-7.6S54.4,9.6,50.2,9.6z"></path>
	</g>
	<g id="XMLID_87_">
		<path id="XMLID_10_" class="st0" d="M21.6,89H0.8v-1.6c0-10.7,8.7-19.3,19.3-19.3c3.6,0,7.1,1,10.1,2.9l-1.7,2.7    c-2.5-1.6-5.5-2.4-8.5-2.4c-8.4,0-15.3,6.4-16.1,14.6h17.6V89z M20.1,67.7c-6.3,0-11.3-5.1-11.3-11.3S13.8,45,20.1,45    s11.3,5.1,11.3,11.3S26.3,67.7,20.1,67.7z M20.1,48.1c-4.5,0-8.2,3.7-8.2,8.2s3.7,8.2,8.2,8.2c4.5,0,8.2-3.7,8.2-8.2    S24.6,48.1,20.1,48.1z"></path>
	</g>
	<g id="XMLID_96_">
		<path id="XMLID_5_" class="st0" d="M99.3,89H78.8v-3.1H96c-0.8-8.2-7.7-14.6-16.1-14.6c-3.2,0-6.3,0.9-8.9,2.7l-1.7-2.6    c3.2-2.1,6.8-3.2,10.6-3.2c10.7,0,19.3,8.7,19.3,19.3V89z M79.9,67.7c-6.3,0-11.3-5.1-11.3-11.3S73.7,45,79.9,45    c6.3,0,11.3,5.1,11.3,11.3S86.2,67.7,79.9,67.7z M79.9,48.1c-4.5,0-8.2,3.7-8.2,8.2s3.7,8.2,8.2,8.2s8.2-3.7,8.2-8.2    S84.4,48.1,79.9,48.1z"></path>
	</g>
</g>
</svg>
