<?xml version="1.0" encoding="UTF-8"?>
<!-- Generator: Adobe Illustrator 19.0.0, SVG Export Plug-In . SVG Version: 6.00 Build 0)  -->
<svg xmlns="http://www.w3.org/2000/svg" xmlns:xlink="http://www.w3.org/1999/xlink" version="1.1" id="Layer_1" x="0px" y="0px" viewBox="0 0 200 200" style="enable-background:new 0 0 200 200;" xml:space="preserve">
<style type="text/css">
	.st0{fill:#6EC1E4;}
	.st1{fill:#F5F5F5;}
</style>
<g id="XMLID_133_">
	<g id="XMLID_81_">
		<path id="XMLID_32_" class="st0" d="M195.2,174.5H4.5v-15.9h11.2c0-0.3-0.1-0.7-0.1-1V80c0-4.3,3.5-7.7,7.7-7.7h37.2v83.6    c0,0.9,0.1,1.8,0.4,2.7h2.2c0-0.3-0.1-0.7-0.1-1V51c0-4.3,3.5-7.7,7.7-7.7H129c4.3,0,7.7,3.5,7.7,7.7v106.5c0,0.4,0,0.7-0.1,1h2.2    c0.2-0.9,0.4-1.8,0.4-2.7V72.3h38.1c4.3,0,7.7,3.5,7.7,7.7v77.5c0,0.3,0,0.7-0.1,1h10.3V174.5z M6.7,172.3h186.5v-11.6h-11    l0.5-1.4c0.2-0.6,0.3-1.2,0.3-1.8V80c0-3.1-2.5-5.6-5.6-5.6h-36v81.5c0,1.4-0.2,2.8-0.7,4.1l-0.3,0.7h-6.6l0.5-1.4    c0.2-0.6,0.3-1.2,0.3-1.8V51c0-3.1-2.5-5.6-5.6-5.6H70.8c-3.1,0-5.6,2.5-5.6,5.6v106.5c0,0.6,0.1,1.2,0.3,1.8l0.5,1.4h-6.6    l-0.3-0.7c-0.5-1.3-0.7-2.7-0.7-4.1V74.4H23.3c-3.1,0-5.6,2.5-5.6,5.6v77.5c0,0.6,0.1,1.2,0.3,1.8l0.5,1.4H6.7V172.3z     M115.8,160.3H85.6v-37.1h30.1V160.3z M87.8,158.1h25.9v-32.8H87.8V158.1z M176.4,133.5h-11.7v-11.7h11.7V133.5z M166.8,131.4h7.4    V124h-7.4V131.4z M161.5,133.5h-11.7v-11.7h11.7V133.5z M152,131.4h7.4V124H152V131.4z M52.6,133.5H40.9v-11.7h11.7V133.5z     M43,131.4h7.4V124H43V131.4z M37.7,133.5H26v-11.7h11.7V133.5z M28.2,131.4h7.4V124h-7.4V131.4z M176.4,116.8h-11.7v-11.7h11.7    V116.8z M166.8,114.6h7.4v-7.4h-7.4V114.6z M161.5,116.8h-11.7v-11.7h11.7V116.8z M152,114.6h7.4v-7.4H152V114.6z M52.6,116.8    H40.9v-11.7h11.7V116.8z M43,114.6h7.4v-7.4H43V114.6z M37.7,116.8H26v-11.7h11.7V116.8z M28.2,114.6h7.4v-7.4h-7.4V114.6z     M176.4,100.6h-11.7V88.9h11.7V100.6z M166.8,98.4h7.4V91h-7.4V98.4z M161.5,100.6h-11.7V88.9h11.7V100.6z M152,98.4h7.4V91H152    V98.4z M52.6,100.6H40.9V88.9h11.7V100.6z M43,98.4h7.4V91H43V98.4z M37.7,100.6H26V88.9h11.7V100.6z M28.2,98.4h7.4V91h-7.4V98.4    z M99.9,95.4c-13.5,0-24.5-11-24.5-24.5c0-13.5,11-24.5,24.5-24.5c13.5,0,24.5,11,24.5,24.5C124.4,84.4,113.4,95.4,99.9,95.4z     M99.9,48.4c-12.3,0-22.4,10-22.4,22.4c0,12.3,10,22.4,22.4,22.4c12.3,0,22.4-10,22.4-22.4C122.3,58.5,112.2,48.4,99.9,48.4z     M106.8,86.7H93v-9h-9V63.9h9v-9h13.8v9h9v13.8h-9V86.7z M95.1,84.6h9.5v-9h9v-9.5h-9v-9h-9.5v9h-9v9.5h9V84.6z"></path>
	</g>
	<g id="XMLID_74_">
		<g id="XMLID_76_">
			<path id="XMLID_9_" class="st0" d="M162.5,69.3c1.5,0,2.8-1.3,2.8-2.8h-1c0,1-0.8,1.8-1.8,1.8h-9.8v-3.8h-2.9v3.8h-7.1     c-0.2-0.6-0.6-1-1.1-1c-0.5,0-0.9,0.4-1.1,1h-0.6c-1,0-1.8-0.8-1.8-1.8h-1c0,1.5,1.3,2.8,2.8,2.8h0.4c0,0.1,0,0.2,0,0.4     c0,0.2,0,0.3,0,0.5h-1.7c-1.2,0-2.1,1-2.1,2.1v10.3c0,1.2,1,2.1,2.1,2.1h0.6v2.9h0.2c-0.4,9-4.1,12.8-13.6,14.2     c-1.4,0.2-3.3,0.2-5.2,0.2c-3.7-0.1-7.8-0.1-10.4,1.5c-2.2,1.4-2.9,3.4-3.5,5.4c-0.5,1.6-1,3.2-2.4,4.4c-0.7,0.7-1.5,1.1-2.4,1.4     c-16.3-1.8-16.3-1.8-16.3-1.8v1.2c-10.7,2-16-2.9-16.3-3.2c-1.4-1.4-3.7-1.4-5.1,0c-1.4,1.4-1.5,3.7-0.1,5.2     c0.3,0.3,5.9,5.9,16.5,5.9c1.5,0,3.2-0.1,5-0.4v1.6c-1.7,0.3-3.4,0.4-5,0.4c-10.8,0-16.5-5.5-17.1-6.1c-0.6-0.6-0.9-1.3-1.2-2     c0-0.1,0-0.1-0.1-0.2c-0.1-0.2-0.1-0.4-0.1-0.6c0-0.1,0-0.1,0-0.2c0-0.1,0-0.2,0-0.3c0-0.1,0-0.2,0-0.3c0-0.1,0-0.1,0-0.2     c0-0.2,0-0.3,0.1-0.5c0-0.2,0.1-0.3,0.1-0.5c0-0.1,0.1-0.2,0.1-0.3c0.2-0.8,0.7-1.5,1.3-2.1c0.9-0.9,2.2-1.4,3.5-1.4     c1.3,0,2.6,0.5,3.6,1.5c0.1,0.1,3.3,3.1,9.9,3.1c0.2,0,0.3,0,0.5,0c-5.7-1.9-11.8-5.2-11.8-5.2c-2.7-1.8-6.1-0.5-8.1,1.3     c0,0-0.7,0.6-1.1,1.3c-0.4,0.7-0.8,1.6-0.8,1.6l0,0c-0.7,1.9-0.7,4.4,0.4,6.2c0,0,0.8,1.1,1.7,1.7c0,0,13.1,9,21.3,9.3     c1,0,2,0,2.9,0v1.6h-7.1l-26-13.9c0.4-0.1,0.7-0.4,0.9-0.8c0.4-0.8,0.1-1.8-0.7-2.2l-9-4.7c-0.8-0.4-1.8-0.1-2.2,0.7     c-0.2,0.3-0.2,0.7-0.1,1l-1.2-0.6c-2-1-4.4-0.2-5.4,1.8c-1,2-0.2,4.4,1.8,5.4l35.7,19.1H46.4c-1.3,0-2.4,1.1-2.4,2.4v1.3     c0,1.3,1.1,2.4,2.4,2.4h8.4c0,0.2,0,0.4,0,0.5v20.5c-0.8,0.7-1.4,1.7-1.4,2.8c0,2,1.6,3.6,3.6,3.6c2,0,3.6-1.6,3.6-3.6     c0-1-0.4-1.9-1.1-2.5v-4.5h72.6v4.2c-0.8,0.7-1.4,1.7-1.4,2.8c0,2,1.6,3.6,3.6,3.6c2,0,3.6-1.6,3.6-3.6c0-1-0.4-1.9-1-2.5V144     c0-2.6-2-4.6-4.5-4.8c1.5-0.6,2.6-2,2.6-3.7c0-2.1-1.7-3.9-3.8-4c0.9-5-0.4-13.6-19-15.6c-3-0.3-5.7-0.6-8.1-0.9     c0.3-0.2,0.7-0.5,1-0.8c1.6-1.4,2.2-3.2,2.7-4.9c0.6-1.9,1.2-3.6,3-4.8c2.3-1.4,6.3-1.4,9.7-1.3c2,0,3.9,0.1,5.4-0.2     c10.1-1.5,14.2-5.8,14.6-15.4h0.2v-2.9h1.4V86h1.6v-1.3h0.6c1.2,0,2.1-1,2.1-2.1V72.3c0-1.2-1-2.1-2.1-2.1h-1.7     c0-0.2,0-0.3,0-0.5c0-0.1,0-0.3,0-0.4h7l0,91.7h-1.7c-3,0-5.6,1.9-6.7,4.6c-1.1,0.3-2,1.4-2,2.6c0,1.5,1.2,2.8,2.8,2.8     c1.5,0,2.8-1.2,2.8-2.8c0-0.7-0.3-1.4-0.8-1.9c0.7-1.4,2.2-2.4,3.9-2.4h6.4c1.7,0,3.2,1,3.9,2.4c-0.5,0.5-0.8,1.2-0.8,1.9     c0,1.5,1.2,2.8,2.8,2.8c1.5,0,2.8-1.2,2.8-2.8c0-1.2-0.8-2.3-2-2.6c-1.1-2.7-3.6-4.6-6.7-4.6h-1.9l0-91.7H162.5z M132.2,144v13.1     H59.6V144H132.2z M141.3,69.3h0.6c0,0.1,0,0.2,0,0.4c0,0.2,0,0.4,0,0.5h-0.6c0-0.2,0-0.3,0-0.5C141.2,69.5,141.3,69.4,141.3,69.3     z M143.8,77.8c0,1.2-1,2.3-2.2,2.3c-1.2,0-2.2-1-2.2-2.3c0-1.2,2.2-4.8,2.2-4.8S143.8,76.6,143.8,77.8z"></path>
		</g>
		<g id="XMLID_75_">
			<circle id="XMLID_8_" class="st0" cx="53.5" cy="105.4" r="8"></circle>
		</g>
	</g>
	<g id="XMLID_70_">
		<g id="XMLID_73_">
			<path id="XMLID_10_" class="st0" d="M100.1,11.7c-5.7,0-10.4,4.7-10.4,10.4c0,5.5,9.4,18.6,9.8,19.1c0.1,0.2,0.4,0.3,0.6,0.3     c0.2,0,0.5-0.1,0.6-0.3c0.4-0.6,9.8-13.6,9.8-19.1C110.5,16.4,105.8,11.7,100.1,11.7z"></path>
		</g>
		<g id="XMLID_72_">
			<path id="XMLID_7_" class="st1" d="M100.1,28.3c3.4,0,6.2-2.8,6.2-6.2c0-3.4-2.8-6.2-6.2-6.2c-3.4,0-6.2,2.8-6.2,6.2     c0,1.7,0.6,3.2,1.8,4.4C96.8,27.7,98.4,28.3,100.1,28.3"></path>
		</g>
		<g id="XMLID_71_">
			<path id="XMLID_4_" class="st0" d="M103.7,18.8v6.5c0,0.4-0.3,0.8-0.8,0.8c-0.4,0-0.8-0.3-0.8-0.8v-2.5h-4.3v2.5     c0,0.4-0.3,0.8-0.8,0.8c-0.4,0-0.8-0.3-0.8-0.8v-6.5c0-0.4,0.3-0.8,0.8-0.8c0.4,0,0.8,0.3,0.8,0.8v2.5h4.3v-2.5     c0-0.4,0.3-0.8,0.8-0.8C103.4,18,103.7,18.4,103.7,18.8z"></path>
		</g>
	</g>
	<g id="XMLID_102_">
		<rect id="XMLID_6_" x="0" y="180.5" class="st0" width="108.8" height="2.1"></rect>
	</g>
	<g id="XMLID_101_">
		<rect id="XMLID_5_" x="96.5" y="186.2" class="st0" width="103.4" height="2.1"></rect>
	</g>
	<g id="XMLID_24_">
		<path id="XMLID_3_" class="st0" d="M125.7,34.7c0.2,0.2,0.5,0.3,0.8,0.3s0.5-0.1,0.8-0.3l1.1-1.1l1.1,1.1c0.2,0.2,0.5,0.3,0.8,0.3    s0.5-0.1,0.8-0.3c0.4-0.4,0.4-1.1,0-1.5l-1.1-1.1l1.1-1.1c0.4-0.4,0.4-1.1,0-1.5c-0.4-0.4-1.1-0.4-1.5,0l-1.1,1.1l-1.1-1.1    c-0.4-0.4-1.1-0.4-1.5,0c-0.4,0.4-0.4,1.1,0,1.5l1.1,1.1l-1.1,1.1C125.3,33.6,125.3,34.3,125.7,34.7z"></path>
	</g>
	<g id="XMLID_21_">
		<path id="XMLID_2_" class="st0" d="M46.8,60.2c2.3,0,4.2-1.9,4.2-4.2c0-2.3-1.9-4.2-4.2-4.2c-2.3,0-4.2,1.9-4.2,4.2    C42.5,58.3,44.4,60.2,46.8,60.2z M46.8,53.8c1.2,0,2.1,0.9,2.1,2.1c0,1.2-0.9,2.1-2.1,2.1c-1.2,0-2.1-0.9-2.1-2.1    C44.7,54.8,45.6,53.8,46.8,53.8z"></path>
	</g>
	<g id="XMLID_25_">
		<path id="XMLID_1_" class="st0" d="M194.1,142.2c2.3,0,4.2-1.9,4.2-4.2c0-2.3-1.9-4.2-4.2-4.2c-2.3,0-4.2,1.9-4.2,4.2    C189.9,140.4,191.8,142.2,194.1,142.2z M194.1,135.9c1.2,0,2.1,0.9,2.1,2.1c0,1.2-0.9,2.1-2.1,2.1c-1.2,0-2.1-0.9-2.1-2.1    C192,136.9,193,135.9,194.1,135.9z"></path>
	</g>
</g>
</svg>
