<?xml version="1.0" encoding="UTF-8"?>
<!-- Generator: Adobe Illustrator 19.0.0, SVG Export Plug-In . SVG Version: 6.00 Build 0)  -->
<svg xmlns="http://www.w3.org/2000/svg" xmlns:xlink="http://www.w3.org/1999/xlink" version="1.1" id="Layer_1" x="0px" y="0px" viewBox="0 0 110 90" style="enable-background:new 0 0 110 90;" xml:space="preserve">
<style type="text/css">
	.st0{fill:url(#XMLID_132_);}
	.st1{fill-rule:evenodd;clip-rule:evenodd;fill:#0693E3;}
	.st2{fill-rule:evenodd;clip-rule:evenodd;fill:#FFFFFF;}
</style>
<g id="XMLID_1701_">
	<linearGradient id="XMLID_132_" gradientUnits="userSpaceOnUse" x1="0.5234" y1="45" x2="109.4766" y2="45">
		<stop offset="0" style="stop-color:#6EC1E4"></stop>
		<stop offset="1" style="stop-color:#61CE70"></stop>
	</linearGradient>
	<path id="XMLID_1626_" class="st0" d="M109.5,56.2c0,12-3.9,23.1-10.4,32.1H11c-6.6-9-10.4-20.1-10.4-32.1   C0.5,26.1,24.9,1.7,55,1.7S109.5,26.1,109.5,56.2z"></path>
	<g id="XMLID_1128_">
		<path id="XMLID_1155_" class="st1" d="M55.5,20.6c-3.8,0-7.4,0.8-10.7,2.3l0.7,1l1.2,0.1l0.7-0.7l0.5,0.3l-1,1c0,0-1.4,0-1.3,0    c0.1,0,0.1,0.9,0.1,0.9l1.6,0l0.2-0.4l1.1-0.1l0.1-0.7l-0.7-0.1l0.2-0.6l0.5-0.2l1.8,0.1l-1,0.9l0.2,0.7l1,0.2L50.9,24l1-0.5    l1.7-0.2l2.5,1.1v1l0.8,0.2l-0.4,0.8h-1.1L55,27.1l-2.6-0.6l2-1.1l-0.8-0.7L52,25l-0.2,0.2h0l0,0l-0.5,0.5l-0.8,0.1l0.1,0.4    l0.3,0.1l0,0.1l-0.7,0.1l0,0.4l-0.6,0l-0.1-0.8l-1.2,0.4L45.7,28l0.3,1l0.7,0.4l1.3,0.2v1.5l0.6-0.1l0.6-1.2l1.4-0.4v-1.8l0.8-0.6    l1.9,0.5l-0.1,1.2h0.5l1.4-0.7l0.1,1.6l1,0.6l0,0.9l-1,0.3l0.1,0.3l1.2,0.5l0,0.6l-0.3,0c0,0,0,0,0,0l-1.5-0.5l-0.1-0.5h0l0.4-0.3    v-0.4l-0.5-0.1l-0.1,0.4l-0.8,0.1l-0.1,0v0l-0.3,0l-0.2-0.5l-0.3-0.1H52l-0.3,0.2v0.5l0.5,0.2l0.5,0.1l-0.1,0l-0.4,0.5L52,32.3    l-0.4-0.1l-1.2,1.1l0.2,0.1l-1.8,1l-1.6,1.7L47,36.9L45.4,38l-0.8,0.8l0.1,1.7l-1.1-0.5l0-1h-3.2l-1.6,0.8L38,41.1l-0.3,1l0.5,1    l1.3,0.2l2-1.4l0.2,0.7l-0.6,1.2l1.6,0.3l0.2,2.4l2.1,0.4l1.4-1.6l1.6,0.3l0.6,0.8l1.6-0.1l0-0.5l0.9,0.4l1,1.5l1.7,0l0.6,1.1    l0.1,1.3l1.9,0.7l2.4,0l0.7,1.1l1,0.3l-0.2,0.9L59,54.8L58.7,58l-1,0.8l-1.5,0l-0.5,0.9l0.4,1.7l-1.7,2.1l-0.5,1l-1.6,0.8l-1,0.2    l0,0.4l0.7,0.2l-0.1,0.5l-0.7,0.6l0.4,0.5l0.8,0l0,0.6L52,68.9L52,69.4l1.2,1L53,70.9l-1.6,0l-1.6-1.4l-1.2-2.2l0.2-2.1L47.8,64    l0.4-2.1l-0.6-0.2v-4.6c0,0-1.6-1.2-1.6-1.2c-0.1,0-0.8-0.2-0.8-0.2L45,54.9l-2-2.5l0.2-0.9l0.1-1.5l1.4-1l-0.2-1.7l-2-0.2    l-1.6-1.8L39.7,45l-0.7-0.1l0.1-0.7l-0.9-0.1v0.4l-2.3-0.6l-0.9-1.4l0.4-0.7l-1.5-2.2L33.5,38h-0.6l0.2,1.5l1,1.6L34,41.7    l-0.9-0.1L32,39.8v-2.1l-0.4-0.2c-1,2.7-1.5,5.6-1.5,8.6c0,14.1,11.4,25.5,25.5,25.5c8,0,15.2-3.7,19.9-9.5v-0.8l-1-1.4v-2.1    l-0.8-0.8L73.6,56l1-1.9l-1.9-3.3l0.2-2.3l-1.7-0.2l-0.6-0.6h-1.1l-0.6,0.5h-2l-0.1,0.2h-1.1l-2.6-2.9l0-2.3l0.4-0.2l0.2-0.9h-0.6    l-0.2-0.9l3-2.1v-1.5l1.4-0.8l0.6,0.1h1.2l0.9-0.5l3-0.2v1.5l2.4,0.6l0.5,0.3h0.4v-0.8l1.4-0.1l1.3,1h1c-0.2-0.8-0.5-1.5-0.8-2.2    h0l-0.7-0.8l-0.1-1.1l-0.1-0.1l-0.7,0.4l-0.4,1.5l-1-1.1l0-1l-1-0.9L74.7,33h-1.2l0.4,1l1.4,0.8l0.2,0.3l-0.3,0.1l0,0.8l-0.7,0.3    L74,36.1l-0.4-0.5l0.9,0l0.3-0.3l-2.1-1.4l-0.2-0.6l-0.8,0.8l-0.9-0.2l-1.3,1.7l-0.3,0.7l-0.8,0.1l-1.2,0L66.5,36l-0.2-1.5    l0.3-0.7l1.3-0.3l1.4,0.3l0.2-0.8L68.8,33l0.2-1.2l1.4-0.2l1-1.4l1-0.2l0.9,0.1l0.3,0l-0.2-1.3l-1.1,0.4l-0.4-1l-0.6-0.1l-0.1-0.7    l0.5-0.6l0.6-0.2C67.8,22.9,61.9,20.6,55.5,20.6L55.5,20.6z M42.7,24.1c-0.3,0.2-0.6,0.4-1,0.6l0.1,0l1.1,0.2l0.1,0.4l1.8,0.1    l-0.2-0.6l-1.6,0l0.4-0.3l-0.1-0.4H42.7z M40.5,25.5L40.5,25.5l-0.1,0.2h-0.2c-0.1,0.1-0.3,0.2-0.4,0.3v0.3h1.3l0.3-0.4v-0.4H40.5    z M75.3,30c-0.2-0.3-0.4-0.5-0.7-0.8l-0.8,0.4L74,30L75.3,30z M40.8,27.1c0,0,0.6-0.1,0.6-0.1c0,0,0,0.6,0,0.6l-1.3,0.1l-0.3-0.3    L40.8,27.1z M42.3,30.1l0.7-0.3l0.6,0.1l-0.2,0.9L42.7,31L42.3,30.1z M46,32.2v0.5h-1.6l-0.6-0.2l0.1-0.4l0.8-0.3h1v0.3H46z     M46.7,32.9v0.5l-0.4,0.3l-0.5,0.1c0,0,0-0.8,0-0.9H46.7z M46.3,32.7v-0.6l0.6,0.5L46.3,32.7z M46.5,34v0.5l-0.4,0.4h-0.8l0.1-0.6    l0.4,0l0.1-0.2L46.5,34z M44.4,32.9h0.9l-1.1,1.6l-0.5-0.3l0.1-0.7L44.4,32.9z M48,33.8v0.5h-0.8L47,34v-0.5l0.1,0L48,33.8z     M47.3,33.1l0.2-0.3l0.4,0.3l-0.3,0.3L47.3,33.1z"></path>
		<path id="XMLID_1129_" class="st2" d="M48.7,19.8c0.2-4.2,4.1-4.3,4.9-5.4l0.1-0.5c-1.3-0.6-2.1-2.2-2.1-4c0-2.4,1.5-4.3,3.4-4.3    c1.9,0,3.4,1.9,3.4,4.3c0,1.8-0.9,3.3-2.1,4l0.1,0.6c0.9,1.1,4.5,1.2,4.9,5.1c-1.9-0.4-3.8-0.7-5.8-0.7    C53.2,18.8,50.9,19.2,48.7,19.8L48.7,19.8z M62.7,20.1c2.3-3.6,5.6-1.7,7-2.2l0.4-0.4c-0.8-1.2-0.8-3,0.1-4.5    c1.2-2.1,3.5-2.9,5.1-2c1.6,1,2,3.4,0.8,5.4c-0.9,1.5-2.4,2.4-3.8,2.4l-0.2,0.6c0.3,1.4,3.3,3.3,1.7,6.8c-1.4-1.3-2.9-2.5-4.7-3.4    C67,21.6,64.9,20.7,62.7,20.1L62.7,20.1z M74.6,27.4c3.8-1.9,5.7,1.4,7.2,1.5l0.5-0.2c-0.1-1.4,0.8-2.9,2.4-3.8    c2.1-1.2,4.5-0.8,5.4,0.8c0.9,1.7,0.1,3.9-2,5.1c-1.5,0.9-3.3,0.9-4.5,0.1l-0.5,0.4c-0.5,1.4,1.2,4.5-2,6.8    c-0.6-1.8-1.3-3.6-2.3-5.3C77.7,30.9,76.2,29,74.6,27.4L74.6,27.4z M81.3,39.7c4.2,0.2,4.3,4.1,5.4,4.9l0.5,0.1    c0.6-1.3,2.2-2.2,4-2.2c2.4,0,4.3,1.5,4.3,3.4c0,1.9-1.9,3.4-4.3,3.4c-1.8,0-3.3-0.9-4-2.1l-0.6,0.1c-1.1,0.9-1.2,4.5-5.1,4.9    c0.4-1.8,0.7-3.8,0.7-5.8C82.2,44.2,81.9,41.9,81.3,39.7L81.3,39.7z M80.9,53.7c3.6,2.3,1.7,5.6,2.2,7l0.4,0.4    c1.2-0.8,3-0.8,4.5,0.1c2,1.2,2.9,3.5,2,5.1c-1,1.6-3.4,2-5.4,0.8c-1.5-0.9-2.4-2.4-2.4-3.8l-0.6-0.2c-1.4,0.3-3.3,3.3-6.8,1.7    c1.3-1.4,2.5-2.9,3.4-4.7C79.5,58.1,80.4,55.9,80.9,53.7L80.9,53.7z M73.6,65.7c1.9,3.8-1.4,5.7-1.5,7.2l0.2,0.5    c1.4-0.1,2.9,0.8,3.8,2.4c1.2,2,0.8,4.5-0.8,5.4c-1.6,1-3.9,0.1-5.1-2c-0.9-1.5-0.9-3.3-0.1-4.5l-0.4-0.5c-1.4-0.5-4.5,1.2-6.8-2    c1.8-0.6,3.6-1.3,5.3-2.3C70.2,68.7,72,67.3,73.6,65.7L73.6,65.7z M61.3,72.4c-0.2,4.2-4.1,4.3-4.9,5.4l-0.1,0.5    c1.3,0.6,2.1,2.2,2.1,4c0,2.4-1.5,4.3-3.4,4.3c-1.9,0-3.4-1.9-3.4-4.3c0-1.8,0.9-3.3,2.1-4l-0.1-0.6c-0.9-1.1-4.5-1.2-4.9-5.1    c1.8,0.4,3.8,0.6,5.8,0.6C56.8,73.3,59.1,73,61.3,72.4L61.3,72.4z M47.3,72c-2.3,3.6-5.6,1.7-7,2.2L40,74.7c0.8,1.2,0.8,3-0.1,4.5    c-1.2,2.1-3.5,2.9-5.1,2c-1.6-0.9-2-3.4-0.8-5.4c0.9-1.5,2.4-2.4,3.8-2.4l0.2-0.6c-0.3-1.4-3.3-3.3-1.7-6.8    c1.4,1.3,2.9,2.5,4.7,3.4C43,70.6,45.1,71.4,47.3,72L47.3,72z M35.4,64.7c-3.8,1.9-5.7-1.4-7.2-1.5l-0.5,0.2    c0.1,1.4-0.8,2.9-2.4,3.8c-2,1.2-4.5,0.8-5.4-0.8c-1-1.6-0.1-3.9,2-5.1c1.5-0.9,3.3-0.9,4.5-0.1l0.5-0.4c0.5-1.4-1.2-4.5,2-6.8    c0.6,1.8,1.3,3.6,2.3,5.3C32.3,61.3,33.8,63.1,35.4,64.7L35.4,64.7z M28.7,52.4c-4.2-0.2-4.3-4.1-5.4-4.9l-0.5-0.1    c-0.6,1.3-2.2,2.2-4,2.2c-2.4,0-4.3-1.5-4.3-3.4c0-1.9,1.9-3.4,4.3-3.4c1.8,0,3.3,0.9,4,2.1l0.6-0.1c1.1-0.9,1.2-4.5,5.1-4.9    c-0.4,1.9-0.7,3.8-0.7,5.8C27.8,47.9,28.1,50.2,28.7,52.4L28.7,52.4z M29.1,38.4c-3.6-2.3-1.7-5.6-2.2-7L26.4,31    c-1.2,0.8-3,0.8-4.5-0.1c-2.1-1.2-2.9-3.5-2-5.1c0.9-1.6,3.4-2,5.4-0.8c1.5,0.9,2.4,2.4,2.4,3.8l0.6,0.2c1.4-0.3,3.3-3.3,6.8-1.7    c-1.3,1.4-2.5,2.9-3.4,4.7C30.5,34,29.6,36.2,29.1,38.4L29.1,38.4z M36.4,26.5c-1.9-3.8,1.4-5.7,1.5-7.2l-0.2-0.5    c-1.4,0.1-2.9-0.8-3.8-2.4c-1.2-2.1-0.8-4.5,0.8-5.4c1.6-0.9,3.9-0.1,5.1,2c0.9,1.5,0.9,3.3,0.1,4.5l0.4,0.5    c1.4,0.5,4.5-1.2,6.8,2c-1.8,0.6-3.6,1.3-5.3,2.3C39.8,23.4,38,24.8,36.4,26.5L36.4,26.5z"></path>
	</g>
</g>
</svg>
