<?xml version="1.0" encoding="UTF-8"?>
<!-- Generator: Adobe Illustrator 19.0.0, SVG Export Plug-In . SVG Version: 6.00 Build 0)  -->
<svg xmlns="http://www.w3.org/2000/svg" xmlns:xlink="http://www.w3.org/1999/xlink" version="1.1" id="Layer_1" x="0px" y="0px" viewBox="0 0 200 200" style="enable-background:new 0 0 200 200;" xml:space="preserve">
<style type="text/css">
	.st0{fill:#9B51E0;}
</style>
<g id="XMLID_1_">
	<g id="XMLID_255_">
		<rect id="XMLID_4_" x="1" y="185.9" class="st0" width="135.5" height="2.8"></rect>
	</g>
	<g id="XMLID_256_">
		<rect id="XMLID_3_" x="146.5" y="185.9" class="st0" width="44.2" height="2.8"></rect>
	</g>
	<g id="XMLID_254_">
		<rect id="XMLID_2_" x="23.9" y="193.4" class="st0" width="175.1" height="2.8"></rect>
	</g>
	<g id="XMLID_259_">
		<path id="XMLID_73_" class="st0" d="M24.3,29.9c0.3,0.3,0.6,0.4,1,0.4c0.4,0,0.7-0.1,1-0.4l1.4-1.4l1.4,1.4c0.3,0.3,0.6,0.4,1,0.4    c0.4,0,0.7-0.1,1-0.4c0.5-0.5,0.5-1.4,0-2l-1.4-1.4l1.4-1.4c0.5-0.5,0.5-1.4,0-2c-0.5-0.5-1.4-0.5-2,0l-1.4,1.4l-1.4-1.4    c-0.5-0.5-1.4-0.5-2,0c-0.5,0.5-0.5,1.4,0,2l1.4,1.4l-1.4,1.4C23.8,28.5,23.8,29.3,24.3,29.9z"></path>
	</g>
	<g id="XMLID_260_">
		<path id="XMLID_71_" class="st0" d="M166.3,33.6c0.3,0.3,0.6,0.4,1,0.4s0.7-0.1,1-0.4l1.4-1.4l1.4,1.4c0.3,0.3,0.6,0.4,1,0.4    s0.7-0.1,1-0.4c0.5-0.5,0.5-1.4,0-2l-1.4-1.4l1.4-1.4c0.5-0.5,0.5-1.4,0-2c-0.5-0.5-1.4-0.5-2,0l-1.4,1.4l-1.4-1.4    c-0.5-0.5-1.4-0.5-2,0c-0.5,0.5-0.5,1.4,0,2l1.4,1.4l-1.4,1.4C165.7,32.2,165.7,33.1,166.3,33.6z"></path>
	</g>
	<g id="XMLID_253_">
		<path id="XMLID_67_" class="st0" d="M17.1,85.9c3.1,0,5.5-2.5,5.5-5.5c0-3.1-2.5-5.5-5.5-5.5c-3.1,0-5.5,2.5-5.5,5.5    C11.6,83.4,14.1,85.9,17.1,85.9z M17.1,77.6c1.5,0,2.7,1.2,2.7,2.7c0,1.5-1.2,2.7-2.7,2.7c-1.5,0-2.7-1.2-2.7-2.7    C14.4,78.8,15.6,77.6,17.1,77.6z"></path>
	</g>
	<g id="XMLID_261_">
		<path id="XMLID_63_" class="st0" d="M79.1,14.9c3.1,0,5.5-2.5,5.5-5.5s-2.5-5.5-5.5-5.5c-3.1,0-5.5,2.5-5.5,5.5    S76.1,14.9,79.1,14.9z M79.1,6.6c1.5,0,2.7,1.2,2.7,2.7s-1.2,2.7-2.7,2.7c-1.5,0-2.7-1.2-2.7-2.7S77.6,6.6,79.1,6.6z"></path>
	</g>
	<g id="XMLID_244_">
		<g id="XMLID_265_">
			<g id="XMLID_285_">
				<g id="XMLID_286_">
					<path id="XMLID_59_" class="st0" d="M87.8,73.9c-4.8,0-8.7-3.9-8.7-8.7c0-4.8,3.9-8.7,8.7-8.7c4.8,0,8.7,3.9,8.7,8.7       C96.5,70,92.6,73.9,87.8,73.9z M87.8,61.3c-2.2,0-4,1.8-4,4c0,2.2,1.8,4,4,4s4-1.8,4-4C91.8,63,90,61.3,87.8,61.3z"></path>
				</g>
			</g>
			<g id="XMLID_283_">
				<g id="XMLID_284_">
					
						<rect id="XMLID_56_" x="123.7" y="39.4" transform="matrix(0.838 0.5456 -0.5456 0.838 45.4822 -69.6698)" class="st0" width="32.7" height="4.7"></rect>
				</g>
			</g>
			<g id="XMLID_277_">
				<g id="XMLID_282_">
					
						<rect id="XMLID_53_" x="116.3" y="61.3" transform="matrix(0.7233 0.6905 -0.6905 0.7233 82.1578 -77.7261)" class="st0" width="43.4" height="4.7"></rect>
				</g>
			</g>
			<g id="XMLID_273_">
				<g id="XMLID_274_">
					<path id="XMLID_48_" class="st0" d="M120.9,51c-6.2,0-11.2-5-11.2-11.2c0-6.2,5-11.2,11.2-11.2c6.2,0,11.2,5,11.2,11.2       C132.1,46,127.1,51,120.9,51z M120.9,33.3c-3.6,0-6.5,2.9-6.5,6.5s2.9,6.5,6.5,6.5c3.6,0,6.5-2.9,6.5-6.5       S124.5,33.3,120.9,33.3z"></path>
				</g>
			</g>
			<g id="XMLID_266_">
				<g id="XMLID_271_">
					<g id="XMLID_272_">
						
							<rect id="XMLID_45_" x="104.8" y="41.5" transform="matrix(0.5771 0.8167 -0.8167 0.5771 93.0179 -62.828)" class="st0" width="4.7" height="33.7"></rect>
					</g>
				</g>
				<g id="XMLID_269_">
					<g id="XMLID_270_">
						
							<rect id="XMLID_42_" x="99.4" y="25.4" transform="matrix(0.6689 0.7434 -0.7434 0.6689 67.5291 -60.5834)" class="st0" width="4.7" height="40.3"></rect>
					</g>
				</g>
				<g id="XMLID_267_">
					<g id="XMLID_268_">
						<polygon id="XMLID_39_" class="st0" points="63.8,98.8 61.2,88.4 73.1,84.5 77.6,80.3 76.5,78.9 71.3,72.9 70,71.7 65.3,75.6         59.9,86.9 49.9,83 56.7,65.5 63.7,59.3 78.8,56.3 84.6,57.9 83.3,62.5 78.6,61.1 65.8,63.7 60.6,68.3 56,80.3 57.5,80.9         61.5,72.6 70.3,65.4 74.8,69.7 80.2,76 83.9,80.8 75.6,88.7 66.9,91.5 67.2,93.1 79.8,90 85,85.5 87.9,76.8 88.5,70.5         93.2,71 92.5,77.8 89.1,88.2 82,94.3       "></polygon>
					</g>
				</g>
			</g>
		</g>
		<g id="XMLID_243_">
			<g id="XMLID_298_">
				<path id="XMLID_34_" class="st0" d="M77.6,137.7c-5.7,0-10.3,4.6-10.3,10.3c0,5.7,4.6,10.3,10.3,10.3c5.7,0,10.3-4.6,10.3-10.3      C87.9,142.3,83.3,137.7,77.6,137.7z"></path>
			</g>
			<g id="XMLID_300_">
				<path id="XMLID_32_" class="st0" d="M40.8,137.7c-5.7,0-10.3,4.6-10.3,10.3c0,5.7,4.6,10.3,10.3,10.3c5.7,0,10.3-4.6,10.3-10.3      C51.2,142.3,46.5,137.7,40.8,137.7z"></path>
			</g>
			<g id="XMLID_301_">
				<path id="XMLID_30_" class="st0" d="M151.1,137.7c-5.7,0-10.3,4.6-10.3,10.3c0,5.7,4.6,10.3,10.3,10.3c5.7,0,10.3-4.6,10.3-10.3      C161.5,142.3,156.8,137.7,151.1,137.7z"></path>
			</g>
			<g id="XMLID_302_">
				<path id="XMLID_28_" class="st0" d="M114.3,137.7c-5.7,0-10.3,4.6-10.3,10.3c0,5.7,4.6,10.3,10.3,10.3c5.7,0,10.3-4.6,10.3-10.3      C124.7,142.3,120,137.7,114.3,137.7z"></path>
			</g>
			<g id="XMLID_305_">
				<path id="XMLID_21_" class="st0" d="M153.3,120.3H38.6C23.4,120.3,11,132.7,11,148c0,15.3,12.4,27.7,27.7,27.7h114.7      c15.3,0,27.7-12.4,27.7-27.7C181,132.7,168.5,120.3,153.3,120.3z M40.8,163.1c-8.3,0-15.1-6.8-15.1-15.1      c0-8.3,6.8-15.1,15.1-15.1c8.3,0,15.1,6.8,15.1,15.1C55.9,156.3,49.1,163.1,40.8,163.1z M77.6,163.1c-8.3,0-15.1-6.8-15.1-15.1      c0-8.3,6.8-15.1,15.1-15.1c8.3,0,15.1,6.8,15.1,15.1C92.6,156.3,85.9,163.1,77.6,163.1z M114.3,163.1c-8.3,0-15.1-6.8-15.1-15.1      c0-8.3,6.8-15.1,15.1-15.1s15.1,6.8,15.1,15.1C129.4,156.3,122.6,163.1,114.3,163.1z M151.1,163.1c-8.3,0-15.1-6.8-15.1-15.1      c0-8.3,6.8-15.1,15.1-15.1c8.3,0,15.1,6.8,15.1,15.1C166.2,156.3,159.4,163.1,151.1,163.1z"></path>
			</g>
		</g>
		<g id="XMLID_251_">
			<g id="XMLID_252_">
				<path id="XMLID_18_" class="st0" d="M156.5,175.3h-2.7v-4.7h2.7c14.7,0,26.7-12,26.7-26.7V79.7c0-14.7-12-26.7-26.7-26.7h-0.3      v69.5h-4.7V48.3h5c17.3,0,31.4,14.1,31.4,31.4v64.2C187.9,161.2,173.8,175.3,156.5,175.3z"></path>
			</g>
		</g>
		<g id="XMLID_249_">
			<g id="XMLID_250_">
				<polygon id="XMLID_15_" class="st0" points="52.6,121.4 47.9,121.4 47.9,106 34.8,106 34.8,121.4 30.1,121.4 30.1,101.3       52.6,101.3     "></polygon>
			</g>
		</g>
		<g id="XMLID_247_">
			<g id="XMLID_248_">
				<polygon id="XMLID_12_" class="st0" points="99,121.4 94.3,121.4 94.3,106 81.3,106 81.3,121.4 76.5,121.4 76.5,101.3 99,101.3           "></polygon>
			</g>
		</g>
		<g id="XMLID_245_">
			<g id="XMLID_246_">
				<polygon id="XMLID_9_" class="st0" points="145.5,121.4 140.8,121.4 140.8,106 127.7,106 127.7,121.4 123,121.4 123,101.3       145.5,101.3     "></polygon>
			</g>
		</g>
	</g>
</g>
</svg>
