<?xml version="1.0" encoding="UTF-8"?>
<!-- Generator: Adobe Illustrator 19.0.0, SVG Export Plug-In . SVG Version: 6.00 Build 0)  -->
<svg xmlns="http://www.w3.org/2000/svg" xmlns:xlink="http://www.w3.org/1999/xlink" version="1.1" id="Layer_1" x="0px" y="0px" viewBox="0 0 110 90" style="enable-background:new 0 0 110 90;" xml:space="preserve">
<style type="text/css">
	.st0{fill:url(#XMLID_132_);}
	.st1{fill:#00406B;}
	.st2{fill:#FFFFFF;}
	.st3{fill:#FCB900;}
</style>
<g id="XMLID_1898_">
	<linearGradient id="XMLID_132_" gradientUnits="userSpaceOnUse" x1="0.6689" y1="44.7681" x2="109.3311" y2="44.7681">
		<stop offset="0" style="stop-color:#6EC1E4"></stop>
		<stop offset="1" style="stop-color:#61CE70"></stop>
	</linearGradient>
	<path id="XMLID_1615_" class="st0" d="M109.3,55.9c0,12-3.9,23-10.4,32H11.1c-6.5-9-10.4-20-10.4-32C0.7,25.9,25,1.6,55,1.6   S109.3,25.9,109.3,55.9z"></path>
	<g id="XMLID_1571_">
		<g id="XMLID_1573_">
			<path id="XMLID_1631_" class="st1" d="M84.4,80.1H27.5c-2.6,0-4.7-2.1-4.7-4.7V35.2c0-2.6,2.1-4.7,4.7-4.7h39.5l0,0.8     c0,0.2,0,0.5,0,0.7c0,1.3,0.1,2.7,0.4,4l0.2,0.9H29.7v36.8h52.6V52.5l0.9,0.2c1.7,0.4,3.4,0.6,5.1,0.6h0.7v22     C89.1,78,87,80.1,84.4,80.1z M27.5,32c-1.8,0-3.2,1.4-3.2,3.2v40.2c0,1.8,1.4,3.2,3.2,3.2h56.9c1.8,0,3.2-1.4,3.2-3.2V54.8     c-1.3,0-2.6-0.2-3.8-0.5v20.8H28.2V35.4h37.6c-0.2-1.1-0.3-2.3-0.3-3.4c0,0,0,0,0,0H27.5z"></path>
		</g>
	</g>
	<g id="XMLID_1567_">
		<g id="XMLID_1570_">
			<circle id="XMLID_1627_" class="st2" cx="57.5" cy="47.8" r="7.8"></circle>
			<path id="XMLID_1661_" class="st1" d="M57.5,56.4c-4.7,0-8.6-3.9-8.6-8.6c0-4.7,3.9-8.6,8.6-8.6s8.6,3.9,8.6,8.6     C66,52.6,62.2,56.4,57.5,56.4z M57.5,40.7c-3.9,0-7.1,3.2-7.1,7.1c0,3.9,3.2,7.1,7.1,7.1s7.1-3.2,7.1-7.1     C64.6,43.9,61.4,40.7,57.5,40.7z"></path>
		</g>
	</g>
	<g id="XMLID_1566_">
		<path id="XMLID_1607_" class="st2" d="M71.2,72.1c0-7.6-6.2-13.7-13.7-13.7c-7.6,0-13.7,6.2-13.7,13.7h2v0h23.5v0H71.2z"></path>
		<path id="XMLID_1619_" class="st1" d="M71.9,72.8H43v-0.7c0-8,6.5-14.5,14.5-14.5c8,0,14.5,6.5,14.5,14.5V72.8z M44.5,71.3h25.9    c-0.4-6.8-6.1-12.3-13-12.3S44.9,64.5,44.5,71.3z"></path>
	</g>
	<g id="XMLID_1562_">
		<g id="XMLID_1563_">
			<path id="XMLID_1612_" class="st1" d="M90.8,88.4H21.2c-2,0-3.7-1.7-3.7-3.7c0-2,1.7-3.7,3.7-3.7h69.6c2,0,3.7,1.7,3.7,3.7     C94.5,86.7,92.8,88.4,90.8,88.4z M21.2,82.5c-1.2,0-2.2,1-2.2,2.2c0,1.2,1,2.2,2.2,2.2h69.6c1.2,0,2.2-1,2.2-2.2     c0-1.2-1-2.2-2.2-2.2H21.2z"></path>
		</g>
	</g>
	<path id="XMLID_1559_" class="st3" d="M105.8,32c0-9.7-7.8-17.5-17.5-17.5c-9.7,0-17.5,7.8-17.5,17.5c0,4.1,1.4,7.8,3.7,10.8   l-6.7,6.7h20.6l0,0C98.1,49.4,105.8,41.6,105.8,32z"></path>
	<g id="XMLID_1545_">
		<g id="XMLID_1555_">
			<circle id="XMLID_1558_" class="st2" cx="82.9" cy="32" r="2"></circle>
		</g>
		<g id="XMLID_1551_">
			<circle id="XMLID_1553_" class="st2" cx="88.3" cy="32" r="2"></circle>
		</g>
		<g id="XMLID_1547_">
			<circle id="XMLID_1549_" class="st2" cx="93.8" cy="32" r="2"></circle>
		</g>
	</g>
</g>
</svg>
