<svg width="133" height="40" viewBox="0 0 133 40" fill="none" xmlns="http://www.w3.org/2000/svg">
<g clip-path="url(#clip0_5_2)">
<g filter="url(#filter0_d_5_2)">
<path d="M127.568 0.253579L4.81388 0.413307C2.15525 0.416767 0.00261876 2.43215 0.00584918 4.91478L0.0453311 35.2575C0.0485615 37.7401 2.20643 39.7499 4.86506 39.7464L127.619 39.5867C130.278 39.5832 132.43 37.5679 132.427 35.0852L132.388 4.74253C132.384 2.25989 130.227 0.25012 127.568 0.253579Z" fill="url(#paint0_linear_5_2)"/>
</g>
<path d="M8.86328 28.3584V11.3584H16.8013C18.3889 11.3584 19.7532 11.6094 20.8943 12.1113C22.0519 12.6132 22.9449 13.3418 23.5734 14.297C24.2018 15.236 24.516 16.3532 24.516 17.6484C24.516 18.9275 24.2018 20.0365 23.5734 20.9756C22.9449 21.8984 22.0519 22.6108 20.8943 23.1127C19.7532 23.5984 18.3889 23.8413 16.8013 23.8413H11.592L13.7749 21.8256V28.3584H8.86328ZM19.6044 28.3584L15.2881 22.1656H20.5222L24.8633 28.3584H19.6044ZM13.7749 22.3356L11.592 20.1256H16.5036C17.5289 20.1256 18.2896 19.907 18.7858 19.4699C19.2984 19.0327 19.5548 18.4256 19.5548 17.6484C19.5548 16.8551 19.2984 16.2399 18.7858 15.8027C18.2896 15.3656 17.5289 15.147 16.5036 15.147H11.592L13.7749 12.937V22.3356Z" fill="white"/>
<path d="M50.8633 29.3584V11.3584H60.0014C62.3498 11.3584 64.1025 11.7956 65.2597 12.6699C66.4168 13.527 66.9954 14.6584 66.9954 16.0641C66.9954 16.9899 66.7487 17.8041 66.2552 18.507C65.7787 19.1927 65.098 19.7413 64.2131 20.1527C63.3453 20.547 62.3072 20.7441 61.099 20.7441L61.6095 19.5099C62.8688 19.5099 63.9664 19.707 64.9023 20.1013C65.8383 20.4784 66.5615 21.0356 67.072 21.7727C67.5995 22.4927 67.8633 23.3756 67.8633 24.4213C67.8633 25.9813 67.2337 27.1984 65.9744 28.0727C64.7322 28.9299 62.9113 29.3584 60.5119 29.3584H50.8633ZM55.8663 25.6813H60.1035C60.9714 25.6813 61.6265 25.5356 62.069 25.2441C62.5284 24.9356 62.7582 24.4727 62.7582 23.8556C62.7582 23.2384 62.5284 22.7841 62.069 22.4927C61.6265 22.1841 60.9714 22.0299 60.1035 22.0299H55.5089V18.507H59.3378C60.1886 18.507 60.8267 18.3613 61.2522 18.0699C61.6776 17.7784 61.8903 17.3413 61.8903 16.7584C61.8903 16.1756 61.6776 15.747 61.2522 15.4727C60.8267 15.1813 60.1886 15.0356 59.3378 15.0356H55.8663V25.6813Z" fill="white"/>
<path d="M29.2139 21.8707C29.8601 21.0631 30.161 20.0307 30.0505 19.0003C29.9401 17.9698 29.4272 17.0255 28.6247 16.3748L31.148 13.244C31.6776 13.6811 32.3139 13.9678 32.9909 14.0745C34.0105 14.2329 35.0509 13.9779 35.8835 13.3655C36.7161 12.7531 37.2727 11.8334 37.4309 10.8087L41.3867 11.4385C41.2737 12.1193 41.3443 12.8182 41.5912 13.4622C41.964 14.4282 42.7029 15.206 43.6456 15.625C44.5883 16.044 45.658 16.07 46.6197 15.6972L48.0558 19.4584C47.4142 19.7006 46.8488 20.111 46.4182 20.6468C45.773 21.4531 45.472 22.4835 45.581 23.5124C45.69 24.5413 46.2002 25.4849 46.9998 26.1366L44.4765 29.2675C43.9487 28.834 43.3157 28.5496 42.6424 28.4433C41.6262 28.285 40.5889 28.5376 39.7573 29.1456C38.9258 29.7537 38.3674 30.6679 38.2044 31.6884L34.2509 31.0591C34.3584 30.3857 34.2865 29.6957 34.0427 29.0593C33.6705 28.0946 32.9333 27.3174 31.9923 26.8979C31.0513 26.4783 29.9833 26.4506 29.0221 26.8207L27.5866 23.0559C28.224 22.813 28.7857 22.4039 29.2139 21.8707ZM37.1719 25.3501C37.9786 25.4785 38.805 25.3636 39.5467 25.02C40.2884 24.6763 40.912 24.1194 41.3388 23.4195C41.7656 22.7196 41.9763 21.9082 41.9443 21.088C41.9124 20.2677 41.6391 19.4754 41.1592 18.8112C40.6792 18.1471 40.0141 17.6408 39.248 17.3566C38.4818 17.0723 37.649 17.0228 36.8548 17.2142C36.0606 17.4057 35.3408 17.8295 34.7862 18.4322C34.2317 19.0348 33.8674 19.7892 33.7394 20.6C33.5681 21.6872 33.8335 22.7984 34.4773 23.689C35.121 24.5796 36.0904 25.1767 37.1721 25.3489L37.1719 25.3501Z" fill="white"/>
<path d="M71.7091 15.99C72.7237 15.7259 73.6191 15.0763 74.1987 14.1838C74.7783 13.2914 74.9947 12.229 74.8004 11.2301L78.7475 10.2171C78.8707 10.8825 79.1724 11.4906 79.6213 11.9784C80.2989 12.7113 81.2588 13.1248 82.29 13.1281C83.3213 13.1314 84.3395 12.7241 85.1209 11.9959L87.7398 14.8515C87.2146 15.3306 86.8182 15.9333 86.5919 16.5968C86.2545 17.5934 86.3182 18.6564 86.769 19.5527C87.2198 20.449 88.0209 21.1054 88.9966 21.3776L87.6708 25.2487C87.0241 25.062 86.3273 25.0553 85.6527 25.2294C84.6398 25.4931 83.7456 26.141 83.1659 27.0313C82.5861 27.9217 82.3682 28.9819 82.5596 29.9798L78.6126 30.9928C78.4883 30.3315 78.1876 29.7272 77.7413 29.2419C77.0662 28.5111 76.1104 28.0975 75.0827 28.0914C74.055 28.0852 73.0389 28.487 72.2566 29.209L69.6393 26.3552C70.1554 25.8787 70.5451 25.2824 70.7687 24.6268C71.1059 23.6317 71.043 22.5701 70.5939 21.6744C70.1448 20.7787 69.3461 20.1219 68.3725 19.8478L69.7011 15.9741C70.345 16.1579 71.0381 16.1634 71.7091 15.99ZM75.5518 23.5098C76.0859 24.0921 76.7918 24.4909 77.5804 24.6558C78.3689 24.8208 79.2047 24.7444 79.9821 24.4364C80.7595 24.1283 81.4435 23.6025 81.9476 22.9254C82.4518 22.2482 82.7534 21.4501 82.8145 20.6321C82.8755 19.814 82.6932 19.0127 82.2906 18.3294C81.8879 17.6461 81.283 17.1115 80.5524 16.7933C79.8218 16.4751 78.9982 16.3875 78.1858 16.5416C77.3735 16.6957 76.6088 17.0846 75.9884 17.6591C75.1567 18.4297 74.6436 19.479 74.5619 20.576C74.4802 21.6731 74.8366 22.7281 75.5528 23.509L75.5518 23.5098Z" fill="white"/>
<path d="M88.7273 34.4843C88.0793 34.4843 87.4993 34.3443 86.9873 34.0643C86.4833 33.7843 86.0873 33.4003 85.7993 32.9123C85.5113 32.4243 85.3673 31.8643 85.3673 31.2323C85.3673 30.6003 85.5113 30.0403 85.7993 29.5523C86.0873 29.0643 86.4833 28.6843 86.9873 28.4123C87.4993 28.1323 88.0793 27.9923 88.7273 27.9923C89.3033 27.9923 89.8153 28.1083 90.2633 28.3403C90.7193 28.5643 91.0713 28.9003 91.3193 29.3483L90.4433 29.9123C90.2353 29.6003 89.9793 29.3723 89.6753 29.2283C89.3793 29.0763 89.0593 29.0003 88.7153 29.0003C88.2993 29.0003 87.9273 29.0923 87.5993 29.2763C87.2713 29.4603 87.0113 29.7203 86.8193 30.0563C86.6273 30.3843 86.5313 30.7763 86.5313 31.2323C86.5313 31.6883 86.6273 32.0843 86.8193 32.4203C87.0113 32.7563 87.2713 33.0163 87.5993 33.2003C87.9273 33.3843 88.2993 33.4763 88.7153 33.4763C89.0593 33.4763 89.3793 33.4043 89.6753 33.2603C89.9793 33.1083 90.2353 32.8763 90.4433 32.5643L91.3193 33.1163C91.0713 33.5563 90.7193 33.8963 90.2633 34.1363C89.8153 34.3683 89.3033 34.4843 88.7273 34.4843ZM92.7287 34.4123V25.5083H93.8807V34.4123H92.7287ZM100.028 34.4123V33.0683L99.9683 32.8163V30.5243C99.9683 30.0363 99.8243 29.6603 99.5363 29.3963C99.2563 29.1243 98.8323 28.9883 98.2643 28.9883C97.8883 28.9883 97.5203 29.0523 97.1603 29.1803C96.8003 29.3003 96.4963 29.4643 96.2483 29.6723L95.7683 28.8083C96.0963 28.5443 96.4883 28.3443 96.9443 28.2083C97.4083 28.0643 97.8923 27.9923 98.3963 27.9923C99.2683 27.9923 99.9403 28.2043 100.412 28.6283C100.884 29.0523 101.12 29.7003 101.12 30.5723V34.4123H100.028ZM97.9403 34.4843C97.4683 34.4843 97.0523 34.4043 96.6923 34.2443C96.3403 34.0843 96.0683 33.8643 95.8763 33.5843C95.6843 33.2963 95.5883 32.9723 95.5883 32.6123C95.5883 32.2683 95.6683 31.9563 95.8283 31.6763C95.9963 31.3963 96.2643 31.1723 96.6323 31.0043C97.0083 30.8363 97.5123 30.7523 98.1443 30.7523H100.16V31.5803H98.1923C97.6163 31.5803 97.2283 31.6763 97.0283 31.8683C96.8283 32.0603 96.7283 32.2923 96.7283 32.5643C96.7283 32.8763 96.8523 33.1283 97.1003 33.3203C97.3483 33.5043 97.6923 33.5963 98.1323 33.5963C98.5643 33.5963 98.9403 33.5003 99.2603 33.3083C99.5883 33.1163 99.8243 32.8363 99.9683 32.4683L100.196 33.2603C100.044 33.6363 99.7763 33.9363 99.3923 34.1603C99.0083 34.3763 98.5243 34.4843 97.9403 34.4843ZM105.076 34.4843C104.548 34.4843 104.044 34.4123 103.564 34.2683C103.092 34.1243 102.72 33.9483 102.448 33.7403L102.928 32.8283C103.2 33.0123 103.536 33.1683 103.936 33.2963C104.336 33.4243 104.744 33.4883 105.16 33.4883C105.696 33.4883 106.08 33.4123 106.312 33.2603C106.552 33.1083 106.672 32.8963 106.672 32.6243C106.672 32.4243 106.6 32.2683 106.456 32.1563C106.312 32.0443 106.12 31.9603 105.88 31.9043C105.648 31.8483 105.388 31.8003 105.1 31.7603C104.812 31.7123 104.524 31.6563 104.236 31.5923C103.948 31.5203 103.684 31.4243 103.444 31.3043C103.204 31.1763 103.012 31.0043 102.868 30.7883C102.724 30.5643 102.652 30.2683 102.652 29.9003C102.652 29.5163 102.76 29.1803 102.976 28.8923C103.192 28.6043 103.496 28.3843 103.888 28.2323C104.288 28.0723 104.76 27.9923 105.304 27.9923C105.72 27.9923 106.14 28.0443 106.564 28.1483C106.996 28.2443 107.348 28.3843 107.62 28.5683L107.128 29.4803C106.84 29.2883 106.54 29.1563 106.228 29.0843C105.916 29.0123 105.604 28.9763 105.292 28.9763C104.788 28.9763 104.412 29.0603 104.164 29.2283C103.916 29.3883 103.792 29.5963 103.792 29.8523C103.792 30.0683 103.864 30.2363 104.008 30.3563C104.16 30.4683 104.352 30.5563 104.584 30.6203C104.824 30.6843 105.088 30.7403 105.376 30.7883C105.664 30.8283 105.952 30.8843 106.24 30.9563C106.528 31.0203 106.788 31.1123 107.02 31.2323C107.26 31.3523 107.452 31.5203 107.596 31.7363C107.748 31.9523 107.824 32.2403 107.824 32.6003C107.824 32.9843 107.712 33.3163 107.488 33.5963C107.264 33.8763 106.948 34.0963 106.54 34.2563C106.132 34.4083 105.644 34.4843 105.076 34.4843ZM111.088 34.4843C110.56 34.4843 110.056 34.4123 109.576 34.2683C109.104 34.1243 108.732 33.9483 108.46 33.7403L108.94 32.8283C109.212 33.0123 109.548 33.1683 109.948 33.2963C110.348 33.4243 110.756 33.4883 111.172 33.4883C111.708 33.4883 112.092 33.4123 112.324 33.2603C112.564 33.1083 112.684 32.8963 112.684 32.6243C112.684 32.4243 112.612 32.2683 112.468 32.1563C112.324 32.0443 112.132 31.9603 111.892 31.9043C111.66 31.8483 111.4 31.8003 111.112 31.7603C110.824 31.7123 110.536 31.6563 110.248 31.5923C109.96 31.5203 109.696 31.4243 109.456 31.3043C109.216 31.1763 109.024 31.0043 108.88 30.7883C108.736 30.5643 108.664 30.2683 108.664 29.9003C108.664 29.5163 108.772 29.1803 108.988 28.8923C109.204 28.6043 109.508 28.3843 109.9 28.2323C110.3 28.0723 110.772 27.9923 111.316 27.9923C111.732 27.9923 112.152 28.0443 112.576 28.1483C113.008 28.2443 113.36 28.3843 113.632 28.5683L113.14 29.4803C112.852 29.2883 112.552 29.1563 112.24 29.0843C111.928 29.0123 111.616 28.9763 111.304 28.9763C110.8 28.9763 110.424 29.0603 110.176 29.2283C109.928 29.3883 109.804 29.5963 109.804 29.8523C109.804 30.0683 109.876 30.2363 110.02 30.3563C110.172 30.4683 110.364 30.5563 110.596 30.6203C110.836 30.6843 111.1 30.7403 111.388 30.7883C111.676 30.8283 111.964 30.8843 112.252 30.9563C112.54 31.0203 112.8 31.1123 113.032 31.2323C113.272 31.3523 113.464 31.5203 113.608 31.7363C113.76 31.9523 113.836 32.2403 113.836 32.6003C113.836 32.9843 113.724 33.3163 113.5 33.5963C113.276 33.8763 112.96 34.0963 112.552 34.2563C112.144 34.4083 111.656 34.4843 111.088 34.4843ZM118.108 34.4843C117.428 34.4843 116.828 34.3443 116.308 34.0643C115.796 33.7843 115.396 33.4003 115.108 32.9123C114.828 32.4243 114.688 31.8643 114.688 31.2323C114.688 30.6003 114.824 30.0403 115.096 29.5523C115.376 29.0643 115.756 28.6843 116.236 28.4123C116.724 28.1323 117.272 27.9923 117.88 27.9923C118.496 27.9923 119.04 28.1283 119.512 28.4003C119.984 28.6723 120.352 29.0563 120.616 29.5523C120.888 30.0403 121.024 30.6123 121.024 31.2683C121.024 31.3163 121.02 31.3723 121.012 31.4363C121.012 31.5003 121.008 31.5603 121 31.6163H115.588V30.7883H120.4L119.932 31.0763C119.94 30.6683 119.856 30.3043 119.68 29.9843C119.504 29.6643 119.26 29.4163 118.948 29.2403C118.644 29.0563 118.288 28.9643 117.88 28.9643C117.48 28.9643 117.124 29.0563 116.812 29.2403C116.5 29.4163 116.256 29.6683 116.08 29.9963C115.904 30.3163 115.816 30.6843 115.816 31.1003V31.2923C115.816 31.7163 115.912 32.0963 116.104 32.4323C116.304 32.7603 116.58 33.0163 116.932 33.2003C117.284 33.3843 117.688 33.4763 118.144 33.4763C118.52 33.4763 118.86 33.4123 119.164 33.2843C119.476 33.1563 119.748 32.9643 119.98 32.7083L120.616 33.4523C120.328 33.7883 119.968 34.0443 119.536 34.2203C119.112 34.3963 118.636 34.4843 118.108 34.4843ZM124.447 34.4843C123.919 34.4843 123.415 34.4123 122.935 34.2683C122.463 34.1243 122.091 33.9483 121.819 33.7403L122.299 32.8283C122.571 33.0123 122.907 33.1683 123.307 33.2963C123.707 33.4243 124.115 33.4883 124.531 33.4883C125.067 33.4883 125.451 33.4123 125.683 33.2603C125.923 33.1083 126.043 32.8963 126.043 32.6243C126.043 32.4243 125.971 32.2683 125.827 32.1563C125.683 32.0443 125.491 31.9603 125.251 31.9043C125.019 31.8483 124.759 31.8003 124.471 31.7603C124.183 31.7123 123.895 31.6563 123.607 31.5923C123.319 31.5203 123.055 31.4243 122.815 31.3043C122.575 31.1763 122.383 31.0043 122.239 30.7883C122.095 30.5643 122.023 30.2683 122.023 29.9003C122.023 29.5163 122.131 29.1803 122.347 28.8923C122.563 28.6043 122.867 28.3843 123.259 28.2323C123.659 28.0723 124.131 27.9923 124.675 27.9923C125.091 27.9923 125.511 28.0443 125.935 28.1483C126.367 28.2443 126.719 28.3843 126.991 28.5683L126.499 29.4803C126.211 29.2883 125.911 29.1563 125.599 29.0843C125.287 29.0123 124.975 28.9763 124.663 28.9763C124.159 28.9763 123.783 29.0603 123.535 29.2283C123.287 29.3883 123.163 29.5963 123.163 29.8523C123.163 30.0683 123.235 30.2363 123.379 30.3563C123.531 30.4683 123.723 30.5563 123.955 30.6203C124.195 30.6843 124.459 30.7403 124.747 30.7883C125.035 30.8283 125.323 30.8843 125.611 30.9563C125.899 31.0203 126.159 31.1123 126.391 31.2323C126.631 31.3523 126.823 31.5203 126.967 31.7363C127.119 31.9523 127.195 32.2403 127.195 32.6003C127.195 32.9843 127.083 33.3163 126.859 33.5963C126.635 33.8763 126.319 34.0963 125.911 34.2563C125.503 34.4083 125.015 34.4843 124.447 34.4843Z" fill="white"/>
</g>
<defs>
<filter id="filter0_d_5_2" x="-5.99414" y="-2.74643" width="144.421" height="51.4929" filterUnits="userSpaceOnUse" color-interpolation-filters="sRGB">
<feFlood flood-opacity="0" result="BackgroundImageFix"/>
<feColorMatrix in="SourceAlpha" type="matrix" values="0 0 0 0 0 0 0 0 0 0 0 0 0 0 0 0 0 0 127 0" result="hardAlpha"/>
<feOffset dy="3"/>
<feGaussianBlur stdDeviation="3"/>
<feColorMatrix type="matrix" values="0 0 0 0 0 0 0 0 0 0 0 0 0 0 0 0 0 0 0.161 0"/>
<feBlend mode="normal" in2="BackgroundImageFix" result="effect1_dropShadow_5_2"/>
<feBlend mode="normal" in="SourceGraphic" in2="effect1_dropShadow_5_2" result="shape"/>
</filter>
<linearGradient id="paint0_linear_5_2" x1="0" y1="0.419571" x2="21.5713" y2="72.6766" gradientUnits="userSpaceOnUse">
<stop stop-color="#23B0FF"/>
<stop offset="1" stop-color="#9DB31C"/>
</linearGradient>
<clipPath id="clip0_5_2">
<rect width="132.433" height="39.5054" fill="white" transform="translate(0 0.247314)"/>
</clipPath>
</defs>
</svg>
