<?xml version="1.0" encoding="UTF-8"?>
<!-- Generator: Adobe Illustrator 19.0.0, SVG Export Plug-In . SVG Version: 6.00 Build 0)  -->
<svg xmlns="http://www.w3.org/2000/svg" xmlns:xlink="http://www.w3.org/1999/xlink" version="1.1" id="Layer_1" x="0px" y="0px" viewBox="0 0 100 100" style="enable-background:new 0 0 100 100;" xml:space="preserve">
<style type="text/css">
	.st0{fill:#FFFFFF;}
</style>
<g id="XMLID_1699_">
	<g id="XMLID_47_">
		<path id="XMLID_11_" class="st0" d="M7.8,4.8h63.9V22L59.3,34.4l-8.7,8.7l-6.1,6.1L29.4,64.3l1.4,1.4l51.8-51.8l-1.4-1.4L75.7,18    V2.7c0-0.5-0.2-1.1-0.6-1.4c-0.4-0.4-0.9-0.6-1.4-0.6H5.8c-0.5,0-1.1,0.2-1.4,0.6C4,1.7,3.8,2.2,3.8,2.7v90.7    c0,0.5,0.2,1.1,0.6,1.4c0.4,0.4,0.9,0.6,1.4,0.6h41.5v-4H7.8V4.8z M71.7,38.5v23.4h4.1V34.4L71.7,38.5z"></path>
	</g>
	<g id="XMLID_46_">
		<rect id="XMLID_12_" x="16.9" y="15.2" class="st0" width="49.1" height="5.9"></rect>
	</g>
	<g id="XMLID_45_">
		<polygon id="XMLID_13_" class="st0" points="11.3,34.4 59.3,34.4 65.2,28.5 11.3,28.5   "></polygon>
	</g>
	<g id="XMLID_44_">
		<polygon id="XMLID_14_" class="st0" points="11.5,49.2 44.5,49.2 50.5,43.1 11.5,43.1   "></polygon>
	</g>
	<g id="XMLID_43_">
		<polygon id="XMLID_15_" class="st0" points="68,49.2 68,43.1 67.1,43.1 61,49.2   "></polygon>
	</g>
	<g id="XMLID_42_">
		<polygon id="XMLID_16_" class="st0" points="68,62.9 68,56.8 53.3,56.8 47.3,62.9   "></polygon>
	</g>
	<g id="XMLID_41_">
		<polygon id="XMLID_18_" class="st0" points="11.5,62.9 30.7,62.9 36.8,56.8 11.5,56.8   "></polygon>
	</g>
	<g id="XMLID_32_">
		<polygon id="XMLID_20_" class="st0" points="61,49.2 61,49.2 64.1,46.1   "></polygon>
	</g>
	<g id="XMLID_31_">
		<polygon id="XMLID_21_" class="st0" points="35.3,70.3 87.1,18.5 83.4,14.9 31.6,66.7   "></polygon>
	</g>
	<g id="XMLID_30_">
		<polygon id="XMLID_22_" class="st0" points="37.7,72.5 37.7,72.5 89.5,20.7 88.1,19.3 36.3,71.1   "></polygon>
	</g>
	<g id="XMLID_29_">
		<path id="XMLID_23_" class="st0" d="M29.3,65.7c-0.2-0.2-0.4-0.3-0.7-0.2c-0.2,0-0.4,0.2-0.6,0.4l-2.3,4.7L23,76.2l2.6,2.6    l4.6-2.2l5.8-2.9c0.2-0.1,0.4-0.3,0.4-0.6c0-0.2,0-0.5-0.2-0.7l-2-2L29.3,65.7z"></path>
	</g>
	<g id="XMLID_28_">
		<path id="XMLID_24_" class="st0" d="M21.5,79.4c-0.1,0.3-0.1,0.6,0.1,0.9c0.2,0.2,0.6,0.3,0.9,0.1l3.2-1.6L23,76.2l-0.2,0.4    L21.5,79.4z"></path>
	</g>
	<g id="XMLID_27_">
		<path id="XMLID_25_" class="st0" d="M86.3,7.4l-1,1L83.7,10L82,11.7l8.3,8.3l1.7-1.7l1.6-1.6l1-1c2.3-2.3,2.3-6,0-8.3    C92.2,5.1,88.5,5.1,86.3,7.4z"></path>
	</g>
	<g id="XMLID_8_">
		<path class="st0" d="M69.8,66c-10.2,0-18.5,8.3-18.5,18.5v14.8h14.8c10.3,0,18.6-8.3,18.5-18.5V66H69.8z M63.9,90.5l-6.6-8.2    l3.2-2.5l4,5.1l11.4-9l2.4,3.2L63.9,90.5z"></path>
	</g>
</g>
</svg>
