<?xml version="1.0" encoding="UTF-8"?>
<!-- Generator: Adobe Illustrator 19.0.0, SVG Export Plug-In . SVG Version: 6.00 Build 0)  -->
<svg xmlns="http://www.w3.org/2000/svg" xmlns:xlink="http://www.w3.org/1999/xlink" version="1.1" id="Layer_1" x="0px" y="0px" viewBox="0 0 110 90" style="enable-background:new 0 0 110 90;" xml:space="preserve">
<style type="text/css">
	.st0{fill:url(#XMLID_132_);}
	.st1{fill:#FFFFFF;}
	.st2{fill:#FCB900;}
	.st3{fill:#00406B;}
	.st4{fill:#79C4F2;}
</style>
<g id="XMLID_1897_">
	<linearGradient id="XMLID_132_" gradientUnits="userSpaceOnUse" x1="0.3617" y1="45" x2="109.6383" y2="45">
		<stop offset="0" style="stop-color:#6EC1E4"></stop>
		<stop offset="1" style="stop-color:#61CE70"></stop>
	</linearGradient>
	<path id="XMLID_1609_" class="st0" d="M109.6,56.2c0,12-3.9,23.1-10.5,32.2H10.8c-6.6-9-10.5-20.1-10.5-32.2   C0.4,26.1,24.8,1.6,55,1.6S109.6,26.1,109.6,56.2z"></path>
	<g id="XMLID_1541_">
		<g id="XMLID_1624_">
			<rect id="XMLID_1539_" x="30" y="37.1" class="st1" width="17.9" height="17.3"></rect>
		</g>
		<g id="XMLID_1620_">
			<path id="XMLID_1621_" class="st2" d="M93.5,34.8c-1.5-0.1-2.8-1.1-3.4-2.5c-0.6-1.4-0.3-3,0.6-4.1l1.9-2.3l-2.3-2.3L88,25.5     c-0.7,0.6-1.6,0.9-2.6,0.9c-0.5,0-1.1-0.1-1.6-0.3c-1.4-0.6-2.3-1.9-2.5-3.4l-0.3-3h-3.2l-0.3,3c-0.1,1.5-1.1,2.8-2.5,3.4     c-0.5,0.2-1,0.3-1.6,0.3c-0.9,0-1.9-0.3-2.6-0.9l-2.3-1.9l-2.3,2.3l1.9,2.3c1,1.2,1.2,2.7,0.6,4.2c-0.6,1.4-1.9,2.3-3.4,2.5     l-3,0.3v3.2l3,0.3c1.5,0.1,2.8,1.1,3.4,2.5c0.6,1.4,0.3,3-0.6,4.1l-1.9,2.3l2.3,2.3l2.3-1.9c0.7-0.6,1.6-0.9,2.6-0.9     c0.5,0,1.1,0.1,1.6,0.3c1.4,0.6,2.3,1.9,2.5,3.4l0.3,3h3.2l0.3-3c0.1-1.5,1.1-2.8,2.5-3.4c0.5-0.2,1-0.3,1.6-0.3     c0.9,0,1.9,0.3,2.6,0.9l2.3,1.9l2.3-2.3l-1.9-2.3c-1-1.2-1.2-2.7-0.6-4.2c0.6-1.4,1.9-2.3,3.4-2.5l3-0.3v-3.2L93.5,34.8z      M79.5,45.2c-4.7,0-8.5-3.8-8.5-8.5s3.8-8.5,8.5-8.5c4.7,0,8.5,3.8,8.5,8.5S84.2,45.2,79.5,45.2z"></path>
		</g>
		<g id="XMLID_1618_">
			<path id="XMLID_1536_" class="st1" d="M61.9,81.4h-14l-2.2-3.5H17.5v4.2c0,2.3,1.9,4.2,4.2,4.2h66.5c2.3,0,4.2-1.9,4.2-4.2v-4.2     H64.1L61.9,81.4z"></path>
		</g>
		<g id="XMLID_1616_">
			<path id="XMLID_1535_" class="st3" d="M87.5,77.2H63.3c-0.4,0-0.7-0.3-0.7-0.7c0-0.4,0.3-0.7,0.7-0.7h23.5V54.4     c0-0.4,0.3-0.7,0.7-0.7c0.4,0,0.7,0.3,0.7,0.7v22.2C88.2,76.9,87.9,77.2,87.5,77.2z"></path>
		</g>
		<g id="XMLID_1614_">
			<path id="XMLID_1534_" class="st3" d="M46.5,77.2H22.4c-0.4,0-0.7-0.3-0.7-0.7V32.2c0-1.9,1.6-3.5,3.5-3.5h38.1     c0.4,0,0.7,0.3,0.7,0.7c0,0.4-0.3,0.7-0.7,0.7H25.1c-1.1,0-2.1,0.9-2.1,2.1v43.6h23.5c0.4,0,0.7,0.3,0.7,0.7     C47.2,76.9,46.9,77.2,46.5,77.2z"></path>
		</g>
		<g id="XMLID_1610_">
			<path id="XMLID_1611_" class="st3" d="M88.2,88.3H21.7c-3.4,0-6.2-2.8-6.2-6.2v-5.5c0-0.4,0.3-0.7,0.7-0.7h30.4     c0.2,0,0.5,0.1,0.6,0.3l2,3.1h11.7l2-3.1c0.1-0.2,0.3-0.3,0.6-0.3h30.4c0.4,0,0.7,0.3,0.7,0.7v5.5C94.4,85.5,91.6,88.3,88.2,88.3     z M16.8,77.2v4.8c0,2.7,2.2,4.8,4.8,4.8h66.5c2.7,0,4.8-2.2,4.8-4.8v-4.8H63.7l-2,3.1c-0.1,0.2-0.3,0.3-0.6,0.3H48.7     c-0.2,0-0.5-0.1-0.6-0.3l-2-3.1H16.8z"></path>
		</g>
		<g id="XMLID_1608_">
			<path id="XMLID_1531_" class="st3" d="M80.5,80.7h-3.5c-0.4,0-0.7-0.3-0.7-0.7c0-0.4,0.3-0.7,0.7-0.7h3.5c0.4,0,0.7,0.3,0.7,0.7     C81.2,80.4,80.9,80.7,80.5,80.7z"></path>
		</g>
		<g id="XMLID_1606_">
			<path id="XMLID_1530_" class="st3" d="M87.5,80.7H84c-0.4,0-0.7-0.3-0.7-0.7c0-0.4,0.3-0.7,0.7-0.7h3.5c0.4,0,0.7,0.3,0.7,0.7     C88.2,80.4,87.9,80.7,87.5,80.7z"></path>
		</g>
		<g id="XMLID_1601_">
			<path id="XMLID_1602_" class="st3" d="M82.4,55.8h-5.7c-0.4,0-0.7-0.3-0.7-0.6l-0.4-4.3c-0.1-0.7-0.5-1.4-1.2-1.6     c-0.7-0.3-1.5-0.2-2,0.3L69,52.2c-0.3,0.2-0.7,0.2-0.9,0l-4-4c-0.3-0.3-0.3-0.7,0-0.9l2.7-3.3c0.5-0.6,0.6-1.3,0.3-2     c-0.3-0.7-0.9-1.2-1.6-1.2l-4.3-0.4c-0.4,0-0.6-0.3-0.6-0.7v-5.7c0-0.4,0.3-0.7,0.6-0.7l4.3-0.4c0.7-0.1,1.4-0.5,1.6-1.2     c0.3-0.7,0.2-1.5-0.3-2L64,26.2c-0.2-0.3-0.2-0.7,0-0.9l4-4c0.3-0.3,0.7-0.3,0.9,0l3.3,2.7c0.6,0.5,1.3,0.6,2,0.3     c0.7-0.3,1.2-0.9,1.2-1.6l0.4-4.3c0-0.4,0.3-0.6,0.7-0.6h5.7c0.4,0,0.7,0.3,0.7,0.6l0.4,4.3c0.1,0.7,0.5,1.4,1.2,1.6     c0.7,0.3,1.5,0.2,2-0.3l3.3-2.7c0.3-0.2,0.7-0.2,0.9,0l4,4c0.3,0.3,0.3,0.7,0,0.9l-2.7,3.3c-0.5,0.6-0.6,1.3-0.3,2     c0.3,0.7,0.9,1.2,1.6,1.2l4.3,0.4c0.4,0,0.6,0.3,0.6,0.7v5.7c0,0.4-0.3,0.7-0.6,0.7l-4.3,0.4c-0.7,0.1-1.4,0.5-1.6,1.2     c-0.3,0.7-0.2,1.5,0.3,2l2.7,3.3c0.2,0.3,0.2,0.7,0,0.9l-4,4c-0.3,0.3-0.7,0.3-0.9,0l-3.3-2.7c-0.6-0.5-1.3-0.6-2-0.3     c-0.7,0.3-1.2,0.9-1.2,1.6l-0.4,4.3C83,55.5,82.7,55.8,82.4,55.8z M77.3,54.4h4.5l0.3-3.7c0.1-1.2,0.9-2.3,2.1-2.8     c1.2-0.5,2.5-0.3,3.4,0.5l2.8,2.3l3.1-3.1l-2.3-2.8c-0.8-1-1-2.3-0.5-3.4c0.5-1.2,1.6-2,2.8-2.1l3.7-0.3v-4.5l-3.7-0.3     c-1.2-0.1-2.3-0.9-2.8-2.1c-0.5-1.2-0.3-2.5,0.5-3.4l2.3-2.8l-3.1-3.1L87.6,25c-1,0.8-2.3,1-3.4,0.5c-1.2-0.5-2-1.6-2.1-2.8     l-0.3-3.7h-4.5l-0.3,3.7c-0.1,1.2-0.9,2.3-2.1,2.8c-1.2,0.5-2.5,0.3-3.4-0.5l-2.8-2.3l-3.1,3.1l2.3,2.8c0.8,1,1,2.3,0.5,3.4     c-0.5,1.2-1.6,2-2.8,2.1l-3.7,0.3v4.5l3.7,0.3c1.2,0.1,2.3,0.9,2.8,2.1c0.5,1.2,0.3,2.5-0.5,3.4l-2.3,2.8l3.1,3.1l2.8-2.3     c1-0.8,2.3-1,3.4-0.5c1.2,0.5,2,1.6,2.1,2.8L77.3,54.4z M97.9,39.6L97.9,39.6L97.9,39.6z"></path>
		</g>
		<g id="XMLID_1597_">
			<path id="XMLID_1598_" class="st3" d="M79.5,45.9c-5.1,0-9.2-4.1-9.2-9.2c0-5.1,4.1-9.2,9.2-9.2c5.1,0,9.2,4.1,9.2,9.2     C88.7,41.8,84.6,45.9,79.5,45.9z M79.5,28.9c-4.3,0-7.8,3.5-7.8,7.8c0,4.3,3.5,7.8,7.8,7.8c4.3,0,7.8-3.5,7.8-7.8     C87.3,32.4,83.8,28.9,79.5,28.9z"></path>
		</g>
		<g id="XMLID_1593_">
			<path id="XMLID_1594_" class="st3" d="M79.5,42.3c-3.1,0-5.6-2.5-5.6-5.6s2.5-5.6,5.6-5.6c3.1,0,5.6,2.5,5.6,5.6     S82.6,42.3,79.5,42.3z M79.5,32.5c-2.3,0-4.2,1.9-4.2,4.2c0,2.3,1.9,4.2,4.2,4.2c2.3,0,4.2-1.9,4.2-4.2     C83.7,34.4,81.8,32.5,79.5,32.5z"></path>
		</g>
		<g id="XMLID_1591_">
			<path id="XMLID_1522_" class="st4" d="M79.5,33.2c-2,0-3.5,1.6-3.5,3.5c0,2,1.6,3.5,3.5,3.5c2,0,3.5-1.6,3.5-3.5     C83,34.8,81.5,33.2,79.5,33.2z"></path>
		</g>
		<g id="XMLID_1587_">
			<path id="XMLID_1588_" class="st3" d="M49.4,56.5H28.6c-0.4,0-0.7-0.3-0.7-0.7V35.7c0-0.4,0.3-0.7,0.7-0.7h20.8     c0.4,0,0.7,0.3,0.7,0.7v20.1C50.1,56.1,49.8,56.5,49.4,56.5z M29.3,55.1h19.4V36.4H29.3V55.1z"></path>
		</g>
		<g id="XMLID_1580_">
			<g id="XMLID_1585_">
				<path id="XMLID_1519_" class="st3" d="M35.5,50.2c-0.2,0-0.4-0.1-0.5-0.2l-3.5-3.5c-0.3-0.3-0.3-0.7,0-1l3.5-3.5      c0.3-0.3,0.7-0.3,1,0c0.3,0.3,0.3,0.7,0,1l-3,3l3,3c0.3,0.3,0.3,0.7,0,1C35.9,50.2,35.7,50.2,35.5,50.2z"></path>
			</g>
			<g id="XMLID_1583_">
				<path id="XMLID_1518_" class="st3" d="M42.5,50.2c-0.2,0-0.4-0.1-0.5-0.2c-0.3-0.3-0.3-0.7,0-1l3-3l-3-3c-0.3-0.3-0.3-0.7,0-1      c0.3-0.3,0.7-0.3,1,0l3.5,3.5c0.3,0.3,0.3,0.7,0,1L42.9,50C42.8,50.2,42.6,50.2,42.5,50.2z"></path>
			</g>
			<g id="XMLID_1581_">
				<path id="XMLID_1517_" class="st3" d="M37.6,52.3c-0.1,0-0.1,0-0.2,0c-0.4-0.1-0.6-0.5-0.5-0.8l2.8-11.8      c0.1-0.4,0.5-0.6,0.8-0.5c0.4,0.1,0.6,0.5,0.5,0.8l-2.8,11.8C38.2,52.1,37.9,52.3,37.6,52.3z"></path>
			</g>
		</g>
		<g id="XMLID_1578_">
			<path id="XMLID_1516_" class="st3" d="M57,38.4h-3.5c-0.4,0-0.7-0.3-0.7-0.7c0-0.4,0.3-0.7,0.7-0.7H57c0.4,0,0.7,0.3,0.7,0.7     C57.7,38.1,57.4,38.4,57,38.4z"></path>
		</g>
		<g id="XMLID_1576_">
			<path id="XMLID_1515_" class="st3" d="M62.5,44.7h-9.7c-0.4,0-0.7-0.3-0.7-0.7c0-0.4,0.3-0.7,0.7-0.7h9.7c0.4,0,0.7,0.3,0.7,0.7     C63.2,44.4,62.9,44.7,62.5,44.7z"></path>
		</g>
		<g id="XMLID_1574_">
			<path id="XMLID_1514_" class="st3" d="M61.2,50.9h-8.3c-0.4,0-0.7-0.3-0.7-0.7c0-0.4,0.3-0.7,0.7-0.7h8.3c0.4,0,0.7,0.3,0.7,0.7     C61.8,50.6,61.5,50.9,61.2,50.9z"></path>
		</g>
		<g id="XMLID_1572_">
			<path id="XMLID_1513_" class="st3" d="M71.5,56.5H52.8c-0.4,0-0.7-0.3-0.7-0.7c0-0.4,0.3-0.7,0.7-0.7h18.7c0.4,0,0.7,0.3,0.7,0.7     C72.2,56.1,71.9,56.5,71.5,56.5z"></path>
		</g>
		<g id="XMLID_1568_">
			<path id="XMLID_1569_" class="st3" d="M33.4,65.5h-4.8c-0.4,0-0.7-0.3-0.7-0.7v-4.8c0-0.4,0.3-0.7,0.7-0.7h4.8     c0.4,0,0.7,0.3,0.7,0.7v4.8C34.1,65.1,33.8,65.5,33.4,65.5z M29.3,64.1h3.5v-3.5h-3.5V64.1z"></path>
		</g>
		<g id="XMLID_1564_">
			<path id="XMLID_1565_" class="st3" d="M41.8,65.5h-4.8c-0.4,0-0.7-0.3-0.7-0.7v-4.8c0-0.4,0.3-0.7,0.7-0.7h4.8     c0.4,0,0.7,0.3,0.7,0.7v4.8C42.5,65.1,42.1,65.5,41.8,65.5z M37.6,64.1h3.5v-3.5h-3.5V64.1z"></path>
		</g>
		<g id="XMLID_1560_">
			<path id="XMLID_1561_" class="st3" d="M50.1,65.5h-4.8c-0.4,0-0.7-0.3-0.7-0.7v-4.8c0-0.4,0.3-0.7,0.7-0.7h4.8     c0.4,0,0.7,0.3,0.7,0.7v4.8C50.8,65.1,50.5,65.5,50.1,65.5z M45.9,64.1h3.5v-3.5h-3.5V64.1z"></path>
		</g>
		<g id="XMLID_1556_">
			<path id="XMLID_1557_" class="st3" d="M81.2,65.5h-27c-0.4,0-0.7-0.3-0.7-0.7v-4.8c0-0.4,0.3-0.7,0.7-0.7h27     c0.4,0,0.7,0.3,0.7,0.7v4.8C81.9,65.1,81.6,65.5,81.2,65.5z M54.9,64.1h25.6v-3.5H54.9V64.1z"></path>
		</g>
		<g id="XMLID_1554_">
			<rect id="XMLID_1504_" x="55.6" y="61.3" class="st1" width="24.2" height="2.1"></rect>
		</g>
		<g id="XMLID_1552_">
			<path id="XMLID_1503_" class="st3" d="M81.2,71h-27c-0.4,0-0.7-0.3-0.7-0.7c0-0.4,0.3-0.7,0.7-0.7h27c0.4,0,0.7,0.3,0.7,0.7     C81.9,70.7,81.6,71,81.2,71z"></path>
		</g>
		<g id="XMLID_1550_">
			<path id="XMLID_1502_" class="st3" d="M50.8,71H37.6c-0.4,0-0.7-0.3-0.7-0.7c0-0.4,0.3-0.7,0.7-0.7h13.2c0.4,0,0.7,0.3,0.7,0.7     C51.5,70.7,51.1,71,50.8,71z"></path>
		</g>
		<g id="XMLID_1548_">
			<path id="XMLID_1501_" class="st3" d="M34.1,71h-5.5c-0.4,0-0.7-0.3-0.7-0.7c0-0.4,0.3-0.7,0.7-0.7h5.5c0.4,0,0.7,0.3,0.7,0.7     C34.8,70.7,34.5,71,34.1,71z"></path>
		</g>
		<g id="XMLID_1546_">
			<rect id="XMLID_1500_" x="46.6" y="61.3" class="st1" width="2.1" height="2.1"></rect>
		</g>
		<g id="XMLID_1544_">
			<rect id="XMLID_1499_" x="38.3" y="61.3" class="st1" width="2.1" height="2.1"></rect>
		</g>
		<g id="XMLID_1542_">
			<rect id="XMLID_1127_" x="30" y="61.3" class="st1" width="2.1" height="2.1"></rect>
		</g>
	</g>
</g>
</svg>
