<?xml version="1.0" encoding="UTF-8"?>
<!-- Generator: Adobe Illustrator 19.0.0, SVG Export Plug-In . SVG Version: 6.00 Build 0)  -->
<svg xmlns="http://www.w3.org/2000/svg" xmlns:xlink="http://www.w3.org/1999/xlink" version="1.1" id="Layer_1" x="0px" y="0px" viewBox="0 0 100 100" style="enable-background:new 0 0 100 100;" xml:space="preserve">
<style type="text/css">
	.st0{fill:#FFFFFF;}
</style>
<g id="XMLID_1697_">
	<g id="XMLID_3_">
		<polygon id="XMLID_88_" class="st0" points="52,94 10.5,94 10.5,0.4 82.5,0.4 82.5,62.6 78.5,62.6 78.5,4.4 14.5,4.4 14.5,90     52,90   "></polygon>
	</g>
	<g id="XMLID_2_">
		<path class="st0" d="M74.7,66.3c-10.2,0-18.5,8.3-18.5,18.5v14.8h14.7c10.3,0,18.6-8.4,18.5-18.6V66.3H74.7z M83.6,84.9h-8.8v8.8    h-4v-8.8H62v-4h8.8v-8.8h4v8.8h8.8V84.9z"></path>
	</g>
	<g id="XMLID_6_">
		<g id="XMLID_1262_">
			<path id="XMLID_83_" class="st0" d="M48,10.5c-3.8,0-6.9,3.1-6.9,6.9c0,3.8,3.1,6.9,6.9,6.9s6.9-3.1,6.9-6.9     C54.9,13.6,51.8,10.5,48,10.5z M48,20.4c-1.6,0-2.9-1.3-2.9-2.9s1.3-2.9,2.9-2.9s2.9,1.3,2.9,2.9S49.6,20.4,48,20.4z"></path>
		</g>
		<g id="XMLID_1263_">
			<path id="XMLID_82_" class="st0" d="M60.4,37.5h-4v-5.7c0-1.6-1.3-2.8-2.8-2.8H42.4c-1.6,0-2.8,1.3-2.8,2.8v5.7h-4v-5.7     c0-3.7,3.1-6.8,6.8-6.8h11.2c3.7,0,6.8,3.1,6.8,6.8V37.5z"></path>
		</g>
	</g>
	<g id="XMLID_7_">
		<rect id="XMLID_1706_" x="21.8" y="47.1" class="st0" width="49" height="5.9"></rect>
	</g>
	<g id="XMLID_9_">
		<rect id="XMLID_1704_" x="21.8" y="59.8" class="st0" width="25.6" height="5.9"></rect>
	</g>
	<g id="XMLID_10_">
		<rect id="XMLID_1702_" x="21.8" y="72.5" class="st0" width="25.6" height="5.9"></rect>
	</g>
</g>
</svg>
