<?xml version="1.0" encoding="UTF-8"?>
<!-- Generator: Adobe Illustrator 19.0.0, SVG Export Plug-In . SVG Version: 6.00 Build 0)  -->
<svg xmlns="http://www.w3.org/2000/svg" xmlns:xlink="http://www.w3.org/1999/xlink" version="1.1" id="Layer_1" x="0px" y="0px" viewBox="0 0 110 90" style="enable-background:new 0 0 110 90;" xml:space="preserve">
<style type="text/css">
	.st0{fill:url(#XMLID_133_);}
	.st1{fill:#FFFFFF;}
	.st2{opacity:0.3;}
	.st3{fill:#000072;}
	.st4{fill:#00406B;}
	.st5{fill:#39A1FF;}
	.st6{fill:#FF926B;}
	.st7{opacity:0.55;}
	.st8{clip-path:url(#XMLID_134_);fill:#FFE610;}
	.st9{clip-path:url(#XMLID_134_);fill:#FFE611;}
	.st10{clip-path:url(#XMLID_134_);fill:#FFE512;}
	.st11{clip-path:url(#XMLID_134_);fill:#FFE513;}
	.st12{clip-path:url(#XMLID_134_);fill:#FEE414;}
	.st13{clip-path:url(#XMLID_134_);fill:#FEE415;}
	.st14{clip-path:url(#XMLID_134_);fill:#FEE416;}
	.st15{clip-path:url(#XMLID_134_);fill:#FEE317;}
	.st16{clip-path:url(#XMLID_134_);fill:#FEE318;}
	.st17{clip-path:url(#XMLID_134_);fill:#FEE319;}
	.st18{clip-path:url(#XMLID_134_);fill:#FEE21A;}
	.st19{clip-path:url(#XMLID_134_);fill:#FEE21B;}
	.st20{clip-path:url(#XMLID_134_);fill:#FDE11C;}
	.st21{clip-path:url(#XMLID_134_);fill:#FDE11D;}
	.st22{clip-path:url(#XMLID_134_);fill:#FDE11E;}
	.st23{clip-path:url(#XMLID_134_);fill:#FDE01F;}
	.st24{clip-path:url(#XMLID_134_);fill:#FDE020;}
	.st25{clip-path:url(#XMLID_134_);fill:#FDDF21;}
	.st26{clip-path:url(#XMLID_134_);fill:#FDDF22;}
	.st27{clip-path:url(#XMLID_134_);fill:#FCDF23;}
	.st28{clip-path:url(#XMLID_134_);fill:#FCDE24;}
	.st29{clip-path:url(#XMLID_134_);fill:#FCDE25;}
	.st30{clip-path:url(#XMLID_134_);fill:#FCDE27;}
	.st31{clip-path:url(#XMLID_134_);fill:#FCDD28;}
	.st32{clip-path:url(#XMLID_134_);fill:#FCDD29;}
	.st33{clip-path:url(#XMLID_134_);fill:#FCDC2A;}
	.st34{clip-path:url(#XMLID_134_);fill:#FBDC2B;}
	.st35{clip-path:url(#XMLID_134_);fill:#FBDC2C;}
	.st36{clip-path:url(#XMLID_134_);fill:#FBDB2D;}
	.st37{clip-path:url(#XMLID_134_);fill:#FBDB2E;}
	.st38{clip-path:url(#XMLID_134_);fill:#FBDA2F;}
	.st39{clip-path:url(#XMLID_134_);fill:#FBDA30;}
	.st40{clip-path:url(#XMLID_134_);fill:#FBDA31;}
	.st41{clip-path:url(#XMLID_134_);fill:#FBD932;}
	.st42{clip-path:url(#XMLID_134_);fill:#FAD933;}
	.st43{clip-path:url(#XMLID_134_);fill:#FAD834;}
	.st44{clip-path:url(#XMLID_134_);fill:#FAD835;}
	.st45{clip-path:url(#XMLID_134_);fill:#FAD836;}
	.st46{clip-path:url(#XMLID_134_);fill:#FAD737;}
	.st47{clip-path:url(#XMLID_134_);fill:#FAD738;}
	.st48{clip-path:url(#XMLID_134_);fill:#FAD739;}
	.st49{clip-path:url(#XMLID_134_);fill:#F9D63A;}
	.st50{clip-path:url(#XMLID_134_);fill:#F9D63B;}
	.st51{clip-path:url(#XMLID_134_);fill:#F9D53C;}
	.st52{clip-path:url(#XMLID_134_);fill:#F9D53D;}
	.st53{fill:#FCB900;}
	.st54{fill:#9DA9B9;}
	.st55{fill:#FEDA24;}
	.st56{opacity:0.7;}
</style>
<g id="XMLID_131_">
	<linearGradient id="XMLID_133_" gradientUnits="userSpaceOnUse" x1="0.4573" y1="45" x2="109.5427" y2="45">
		<stop offset="0" style="stop-color:#6EC1E4"></stop>
		<stop offset="1" style="stop-color:#61CE70"></stop>
	</linearGradient>
	<path id="XMLID_1622_" class="st0" d="M109.5,56.2c0,12-3.9,23.1-10.4,32.1H10.9c-6.6-9-10.4-20.1-10.4-32.1   C0.5,26.1,24.9,1.7,55,1.7S109.5,26.1,109.5,56.2z"></path>
	<g id="XMLID_1190_">
		<g id="XMLID_1488_">
			<g id="XMLID_1495_">
				<path id="XMLID_1496_" class="st1" d="M9.4,59.5L35.2,33L51,51c0,0,37.1-8,47.8-4.4L78.5,78.2l-43.3-0.7L9.4,59.5z"></path>
			</g>
			<g id="XMLID_1493_" class="st2">
				<path id="XMLID_1494_" class="st3" d="M9.4,59.5L35.2,33L51,51c0,0,37.1-8,47.8-4.4L78.5,78.2l-43.3-0.7L9.4,59.5z"></path>
			</g>
			<g id="XMLID_1489_">
				<path id="XMLID_1490_" class="st4" d="M78.5,78.8C78.5,78.8,78.5,78.8,78.5,78.8l-43.3-0.7c-0.1,0-0.2,0-0.3-0.1L9.1,60      c-0.1-0.1-0.2-0.3-0.2-0.4c0-0.2,0-0.3,0.2-0.5l25.8-26.5c0.1-0.1,0.3-0.2,0.4-0.2c0.2,0,0.3,0.1,0.4,0.2l15.5,17.7      c4-0.8,37.5-7.8,47.8-4.3c0.2,0.1,0.3,0.2,0.4,0.4c0.1,0.2,0,0.4-0.1,0.5L79,78.5C78.9,78.7,78.7,78.8,78.5,78.8z M35.4,77      l42.8,0.7l19.7-30.7c-11.3-3-46.4,4.5-46.8,4.6c-0.2,0-0.4,0-0.6-0.2L35.2,33.9L10.3,59.4L35.4,77z"></path>
			</g>
		</g>
		<g id="XMLID_1486_">
			<polygon id="XMLID_1487_" class="st5" points="9.4,59.5 9.4,64.7 35.2,80.5 35.2,75.5    "></polygon>
		</g>
		<g id="XMLID_1484_" class="st2">
			<path id="XMLID_1485_" class="st3" d="M33.2,74.2L33.2,74.2c0,1.2-1.3,2-2.4,1.3L9.4,62.4v2.3l25.8,15.8v-5L33.2,74.2z"></path>
		</g>
		<g id="XMLID_1480_">
			<path id="XMLID_1481_" class="st4" d="M35.2,81.1c-0.1,0-0.2,0-0.3-0.1L9.1,65.2c-0.2-0.1-0.3-0.3-0.3-0.5v-5.2     c0-0.2,0.1-0.4,0.3-0.5c0.2-0.1,0.4-0.1,0.6,0l25.8,16c0.2,0.1,0.3,0.3,0.3,0.5v5c0,0.2-0.1,0.4-0.3,0.5     C35.4,81.1,35.3,81.1,35.2,81.1z M10,64.4l24.6,15.1v-3.7L10,60.5V64.4z"></path>
		</g>
		<g id="XMLID_1478_">
			<polygon id="XMLID_1479_" class="st5" points="35.2,75.5 35.2,80.5 78.5,81 78.5,75.5    "></polygon>
		</g>
		<g id="XMLID_1476_" class="st2">
			<path id="XMLID_1477_" class="st3" d="M41.5,78.4c-2,0-3.6-1.2-4.3-3h-2v5L78.5,81v-2.2L41.5,78.4z"></path>
		</g>
		<g id="XMLID_1472_">
			<path id="XMLID_1473_" class="st4" d="M78.5,81.5C78.5,81.5,78.5,81.5,78.5,81.5l-43.3-0.4c-0.3,0-0.6-0.3-0.6-0.6v-5     c0-0.3,0.3-0.6,0.6-0.6h43.3c0.3,0,0.6,0.3,0.6,0.6V81c0,0.2-0.1,0.3-0.2,0.4C78.8,81.5,78.7,81.5,78.5,81.5z M35.8,79.9     l42.1,0.4v-4.3H35.8V79.9z"></path>
		</g>
		<g id="XMLID_1470_">
			<polygon id="XMLID_1471_" class="st6" points="98.8,46.6 78.5,75.5 78.5,81 98.8,53.3    "></polygon>
		</g>
		<g id="XMLID_1468_">
			<polygon id="XMLID_1469_" class="st5" points="98.8,46.6 78.5,75.5 78.5,81 98.8,53.3    "></polygon>
		</g>
		<g id="XMLID_1466_" class="st2">
			<polygon id="XMLID_1467_" class="st3" points="78.5,81 98.8,53.3 98.8,50.8 78.5,78.5    "></polygon>
		</g>
		<g id="XMLID_1462_">
			<path id="XMLID_1463_" class="st4" d="M78.5,81.5c-0.1,0-0.1,0-0.2,0c-0.2-0.1-0.4-0.3-0.4-0.6v-5.5c0-0.1,0-0.2,0.1-0.3     l20.3-28.9C98.5,46,98.7,46,99,46c0.2,0.1,0.4,0.3,0.4,0.6v6.7c0,0.1,0,0.2-0.1,0.3L79,81.3C78.9,81.5,78.7,81.5,78.5,81.5z      M79.1,75.7v3.5l19.1-26.1v-4.6L79.1,75.7z"></path>
		</g>
		<g id="XMLID_1453_">
			<g id="XMLID_1460_">
				<path id="XMLID_1461_" class="st1" d="M35.2,75.5l16.2-25.3c0,0,0.9-14.9-17.9-19.1l-23,28.3C10.6,59.4,24.8,60.6,35.2,75.5z"></path>
			</g>
			<g id="XMLID_1458_" class="st2">
				<path id="XMLID_1459_" class="st3" d="M35.2,75.5l16.2-25.3c0,0,0.9-14.9-17.9-19.1l-23,28.3C10.6,59.4,24.8,60.6,35.2,75.5z"></path>
			</g>
			<g id="XMLID_1454_">
				<path id="XMLID_1455_" class="st4" d="M35.2,76.1c-0.2,0-0.4-0.1-0.5-0.2c-5.3-7.6-11.6-11.5-15.9-13.4      c-4.7-2.1-8.3-2.4-8.3-2.4c-0.2,0-0.4-0.2-0.5-0.4c-0.1-0.2-0.1-0.4,0.1-0.6l23-28.3c0.1-0.2,0.4-0.3,0.6-0.2      c9.9,2.2,14.4,7.5,16.4,11.5c2.2,4.3,2,8.1,2,8.3c0,0.1,0,0.2-0.1,0.3L35.7,75.8C35.6,76,35.4,76.1,35.2,76.1      C35.2,76.1,35.2,76.1,35.2,76.1z M11.7,58.9c1.4,0.2,4.2,0.9,7.6,2.4c4.4,1.9,10.6,5.8,16,13.1L50.9,50c0-0.7,0-4-1.9-7.6      c-2.7-5.4-7.8-9-15.2-10.7L11.7,58.9z"></path>
			</g>
		</g>
		<g id="XMLID_1444_">
			<g id="XMLID_1451_">
				<path id="XMLID_1452_" class="st1" d="M35.2,75.5l16.2-25.3c0,0,0.9-14.9-17.9-19.1L9.9,56.6C9.9,56.6,28.8,57.1,35.2,75.5z"></path>
			</g>
			<g id="XMLID_1449_" class="st2">
				<path id="XMLID_1450_" class="st3" d="M35.7,75.5l15.8-25.3c0,0,0.9-14.9-17.4-19.1l-23,25.6C11.1,56.6,29.4,57.1,35.7,75.5z"></path>
			</g>
			<g id="XMLID_1445_">
				<path id="XMLID_1446_" class="st4" d="M35.2,76.1C35.2,76.1,35.2,76.1,35.2,76.1c-0.3,0-0.5-0.2-0.6-0.4      c-2.6-7.5-7.5-12.8-14.7-16c-5.4-2.4-10-2.5-10.1-2.5c-0.2,0-0.4-0.1-0.5-0.4c-0.1-0.2,0-0.5,0.1-0.6l23.6-25.6      c0.1-0.2,0.4-0.2,0.6-0.2c9.9,2.2,14.4,7.5,16.4,11.5c2.2,4.3,2,8.1,2,8.3c0,0.1,0,0.2-0.1,0.3L35.7,75.8      C35.6,76,35.4,76.1,35.2,76.1z M11.2,56.1c1.8,0.2,5.3,0.8,9.2,2.5c4.9,2.2,11.5,6.6,15,15.6L50.9,50c0-0.7,0-4-1.9-7.6      c-2.7-5.4-7.8-9-15.3-10.7L11.2,56.1z"></path>
			</g>
		</g>
		<g id="XMLID_1435_">
			<g id="XMLID_1442_">
				<path id="XMLID_1443_" class="st1" d="M35.2,75.5l16.2-25.3c0,0,0.9-14.9-17.9-19.1L11.1,54.2C11.1,54.2,31.9,53.6,35.2,75.5z"></path>
			</g>
			<g id="XMLID_1440_" class="st2">
				<path id="XMLID_1441_" class="st3" d="M36,75.5l15.4-25.3c0,0,0.9-14.9-17-19.1L13,54.2C13,54.2,32.8,53.6,36,75.5z"></path>
			</g>
			<g id="XMLID_1436_">
				<path id="XMLID_1437_" class="st4" d="M35.2,76.1c0,0-0.1,0-0.1,0c-0.2-0.1-0.4-0.2-0.5-0.5c-1.4-8.9-5.7-15-13-18.4      c-5.4-2.5-10.6-2.4-10.6-2.4c-0.2,0-0.5-0.1-0.5-0.3c-0.1-0.2-0.1-0.5,0.1-0.6l22.5-23.2c0.1-0.1,0.3-0.2,0.5-0.2      c9.9,2.2,14.4,7.5,16.4,11.5c2.2,4.3,2,8.1,2,8.3c0,0.1,0,0.2-0.1,0.3L35.7,75.8C35.6,76,35.4,76.1,35.2,76.1z M12.4,53.7      c1.9,0.1,5.7,0.6,9.7,2.4c3.3,1.5,6.2,3.7,8.4,6.5c2.5,3.1,4.2,6.9,5.1,11.4L50.9,50c0-0.7,0-4-1.9-7.6      c-2.7-5.4-7.8-9-15.3-10.7L12.4,53.7z"></path>
			</g>
		</g>
		<g id="XMLID_1433_">
			<path id="XMLID_1434_" class="st1" d="M53,48.6L35.2,75.5c7.7-4.4,20.3-7.8,41.2-2.7l20-26.2C96.5,46.6,73.3,33.7,53,48.6z"></path>
		</g>
		<g id="XMLID_1431_" class="st2">
			<path id="XMLID_1432_" class="st3" d="M53,48.6L35.2,75.5c7.5-4.3,19.3-8.8,39.5-4.2c0.8,0.2,1.6-0.1,2.2-0.7l19.6-24     C96.5,46.6,73.3,33.7,53,48.6z"></path>
		</g>
		<g id="XMLID_1427_">
			<path id="XMLID_1428_" class="st4" d="M35.2,76.1c-0.2,0-0.3-0.1-0.4-0.2c-0.2-0.2-0.2-0.5-0.1-0.7l17.8-26.9     c0-0.1,0.1-0.1,0.1-0.1c4.7-3.5,10-5.7,15.6-6.7c4.5-0.8,9.3-0.8,14.2,0c8.3,1.4,14.1,4.5,14.3,4.7c0.1,0.1,0.3,0.2,0.3,0.4     c0,0.2,0,0.3-0.1,0.5l-20,26.2c-0.1,0.2-0.4,0.3-0.6,0.2c-16.9-4.1-30.7-3.3-40.8,2.6C35.4,76,35.3,76.1,35.2,76.1z M53.4,49     L37,73.9c10.1-5,23.3-5.6,39.3-1.7l19.4-25.4c-1.7-0.8-6.7-3.1-13.4-4.2C74.8,41.4,63.7,41.5,53.4,49z"></path>
		</g>
		<g id="XMLID_1425_">
			<path id="XMLID_1426_" class="st1" d="M53,48.6L36.1,74.1c3.9-5.1,18.2-9.5,39.2-4.3l19.4-25.5C94.8,44.3,73.3,33.7,53,48.6z"></path>
		</g>
		<g id="XMLID_1423_" class="st2">
			<path id="XMLID_1424_" class="st3" d="M52.4,47.5L40.2,66c-0.9,1.4,0.5,3.1,2,2.5c6.7-2.6,17.7-3.6,31.6-0.3     c0.7,0.2,1.3-0.1,1.7-0.6L93,44.7c0-1.1-0.3-2-0.8-2.6c-5.2-8-35,3.2-39.2,4.8C52.8,47.1,52.6,47.3,52.4,47.5z"></path>
		</g>
		<g id="XMLID_1419_">
			<path id="XMLID_1420_" class="st4" d="M36.1,74.7c-0.1,0-0.2,0-0.3-0.1c-0.3-0.2-0.3-0.5-0.1-0.8l16.9-25.5     c0-0.1,0.1-0.1,0.1-0.1c4.7-3.4,9.9-5.8,15.3-7.1c4.4-1,8.9-1.3,13.6-0.8c7.9,0.8,13.2,3.4,13.5,3.5c0.2,0.1,0.3,0.2,0.3,0.4     c0,0.2,0,0.3-0.1,0.5L75.8,70.1c-0.1,0.2-0.4,0.3-0.6,0.2C53.5,65,40,70.1,36.6,74.5C36.5,74.6,36.3,74.7,36.1,74.7z M53.4,49     L38.9,71c2.6-1.6,6.2-2.8,10.4-3.5c5.3-0.9,14-1.3,25.9,1.6l18.7-24.6c-1.6-0.7-6.3-2.5-12.5-3.1C74.3,40.7,63.7,41.5,53.4,49z"></path>
		</g>
		<g id="XMLID_1413_">
			<g id="XMLID_1414_">
				<path id="XMLID_1418_" class="st1" d="M53,48.6l-16.6,25c3.9-5.1,17.2-12,38.2-6.9l18.9-24.8C93.6,41.9,73.3,33.7,53,48.6z"></path>
				<path id="XMLID_1415_" class="st3" d="M36.4,74.1c-0.1,0-0.2,0-0.3-0.1c-0.3-0.2-0.3-0.5-0.1-0.8l16.6-25c0-0.1,0.1-0.1,0.1-0.1      c10.6-7.8,21.3-9.2,28.3-9.1c7.6,0.2,12.6,2.2,12.9,2.3c0.2,0.1,0.3,0.2,0.3,0.4c0,0.2,0,0.4-0.1,0.5L75.1,67      c-0.1,0.2-0.4,0.3-0.6,0.2c-9.1-2.2-17.9-2.4-25.2-0.4c-8.2,2.2-11.5,5.9-12.4,7C36.8,74,36.6,74.1,36.4,74.1z M53.4,49      L39.5,69.9c6.3-4.4,18.5-7.8,34.9-3.9l18.2-23.9c-1.7-0.6-6-1.8-11.8-1.9C74,40.1,63.8,41.5,53.4,49z"></path>
			</g>
		</g>
		<g id="XMLID_1411_">
			<path id="XMLID_1412_" class="st1" d="M53,48.6l-16.6,25c3.9-5.1,17.2-12,38.2-6.9l18.9-24.8C93.6,41.9,73.3,33.7,53,48.6z"></path>
		</g>
		<g id="XMLID_1407_">
			<path id="XMLID_1408_" class="st4" d="M36.4,74.1c-0.1,0-0.2,0-0.3-0.1c-0.3-0.2-0.3-0.5-0.1-0.8l16.6-25c0-0.1,0.1-0.1,0.1-0.1     c10.6-7.8,21.3-9.2,28.3-9.1c7.6,0.2,12.6,2.2,12.9,2.3c0.2,0.1,0.3,0.2,0.3,0.4c0,0.2,0,0.4-0.1,0.5L75.1,67     c-0.1,0.2-0.4,0.3-0.6,0.2c-9.1-2.2-17.9-2.4-25.2-0.4c-8.2,2.2-11.5,5.9-12.4,7C36.8,74,36.6,74.1,36.4,74.1z M53.4,49     L39.5,69.9c6.3-4.4,18.5-7.8,34.9-3.9l18.2-23.9c-1.7-0.6-6-1.8-11.8-1.9C74,40.1,63.8,41.5,53.4,49z"></path>
		</g>
		<g id="XMLID_1404_" class="st2">
			<g id="XMLID_1405_">
				<path id="XMLID_1406_" class="st3" d="M51.9,47.9l-16.3,23c2.7-1.1,5.3-2.1,8-3.2c2.7-1.4,6.1-2.7,10.2-3.5      c5.6-1.1,10.3-0.6,12-0.4c2.8,0.5,4.8,0.8,5.8,1.1c0,0,0.2,0,0.3,0.1c0.9,0.1,1.7-0.4,2.3-0.8l17.7-22.4      C91.9,41.7,72,34.2,51.9,47.9z"></path>
			</g>
		</g>
		<g id="XMLID_1402_">
			<path id="XMLID_1403_" class="st1" d="M53,48.6l-16.6,25c3.9-5.1,14.7-15.3,35.7-10.2L90.9,39C90.9,39,73.3,33.7,53,48.6z"></path>
		</g>
		<g id="XMLID_1398_">
			<path id="XMLID_1399_" class="st4" d="M36.4,74.1c-0.1,0-0.2,0-0.3-0.1c-0.3-0.2-0.3-0.5-0.1-0.8l16.6-25c0-0.1,0.1-0.1,0.1-0.1     c10.6-7.8,20.5-10,26.9-10.5c6.9-0.5,11.3,0.8,11.5,0.8c0.2,0.1,0.3,0.2,0.4,0.4c0.1,0.2,0,0.4-0.1,0.5L72.6,63.7     c-0.1,0.2-0.4,0.3-0.6,0.2c-20.8-5.1-31.5,5.3-35.1,10C36.8,74,36.6,74.1,36.4,74.1z M53.4,49l-13,19.5c1.9-1.6,4.3-3.2,7.1-4.4     c7-3.1,15.2-3.6,24.3-1.4l18-23.3c-1.6-0.3-5.3-1-10.3-0.6C73.3,39.3,63.8,41.5,53.4,49z"></path>
		</g>
		<g id="XMLID_1395_">
			<path id="XMLID_1396_" class="st1" d="M36.4,73.5l16.6-25c0,0-0.1-18.9-18.6-19.8L13,50.9C13,50.9,33.2,48.8,36.4,73.5z"></path>
		</g>
		<g id="XMLID_1391_">
			<path id="XMLID_1392_" class="st4" d="M36.4,74.1c0,0-0.1,0-0.1,0c-0.2-0.1-0.4-0.3-0.4-0.5c-1.3-10-5.5-16.8-12.6-20.1     c-5.3-2.5-10.2-2-10.3-2c-0.2,0-0.5-0.1-0.6-0.3c-0.1-0.2-0.1-0.5,0.1-0.7L34,28.3c0.1-0.1,0.3-0.2,0.4-0.2     c9.8,0.5,14.5,6,16.7,10.6c2.4,4.9,2.4,9.6,2.4,9.8c0,0.1,0,0.2-0.1,0.3l-16.6,25C36.8,74,36.6,74.1,36.4,74.1z M14.4,50.3     c1.9,0,5.5,0.3,9.4,2.1c3.3,1.5,6,3.8,8.1,6.8c2.4,3.4,4.1,7.7,4.9,12.7l15.6-23.5c0-0.9-0.3-5-2.3-9.2c-3-6.1-8.2-9.5-15.5-9.9     L14.4,50.3z"></path>
		</g>
		<g id="XMLID_1388_" class="st2">
			<path id="XMLID_1390_" class="st3" d="M55.8,60.4c-2.6,0.5-4.8-1.5-5-3.8c0.8-0.3,1.7-0.5,2.5-0.6c1-0.2,1.9-0.7,2.4-1.6     c0.2-0.4,0.3-0.8,0.2-1.1c-0.2-0.7-2.1-0.7-3.9-0.1l4.4-6.8c-1.1,0.7-2.2,1.5-3.4,2.3c0,0,0-1.6-0.5-3.8L47.2,53     c-0.7-0.6-1.6-1.2-2.4-1.2c-0.5,0-0.9,0.1-1.3,0.3c-1.3,0.8-1.3,2.7,0,3.6c0.3,0.2,0.7,0.5,1.1,0.9c-3.5,3.5-9.3,3.5-12.9-0.1     c-4.8-4.9-11.8-6.9-16.7-7.6L13,50.9c0,0,20.2-2.1,23.5,22.6c3.9-5.1,14.7-15.3,35.7-10.2l1.2-1.6C67.3,59.3,61,59.4,55.8,60.4z"></path>
		</g>
		<g id="XMLID_1332_" class="st7">
			<g id="XMLID_1333_">
				<defs>
					<path id="XMLID_1334_" d="M68.6,28.9c0,3.2-1.4,6.1-3.7,8c-1.3,1.1-2.4,2.3-3.4,3.7l0,0c-0.5,0.6-3.3,0.5-6.6-0.2       c-3.3-0.7-5.9-1.9-6.1-2.6c0,0,0-0.1,0-0.1v0c-0.1-2-0.4-4-0.9-6c-0.2-0.9-0.4-1.9-0.4-2.9c0.1-5.7,4.8-10.4,10.6-10.3       C63.9,18.4,68.6,23.1,68.6,28.9z"></path>
				</defs>
				<clipPath id="XMLID_134_">
					<use xlink:href="#XMLID_1334_" style="overflow:visible;"></use>
				</clipPath>
				<rect id="XMLID_1387_" x="47.6" y="18.4" class="st8" width="21" height="22.8"></rect>
				<path id="XMLID_1385_" class="st8" d="M53.7,41.3h-3.2v0.8c-1.1-0.3-2.1-0.6-3.1-1h0V18.2h21.4v23.1H53.7z"></path>
				<path id="XMLID_1384_" class="st9" d="M53.8,42.4c-2.2-0.4-4.3-0.9-6.2-1.7c-0.2-0.1-0.5-0.2-0.7-0.3h0.6V18.2h21.4v22.9h0.6      c-1,0.3-2,0.6-3,0.9v-0.6H53.8V42.4z"></path>
				<path id="XMLID_1383_" class="st10" d="M53.9,41.9c-2.1-0.4-4.2-0.9-6.1-1.7c-0.2-0.1-0.5-0.2-0.7-0.3h0.4V18.2h21.4v22.4h0.5      c-1,0.3-1.9,0.6-2.9,0.9v-0.2H53.9V41.9z"></path>
				<path id="XMLID_1382_" class="st11" d="M54,41.5c-2.1-0.3-4.1-0.9-6-1.6c-0.5-0.2-1-0.4-1.4-0.6h0.9v-21h21.4v22h0.3      c-0.9,0.3-1.9,0.6-2.9,0.8C62.3,42,58.2,42.2,54,41.5z"></path>
				<path id="XMLID_1379_" class="st12" d="M54,41c-2.1-0.3-4.1-0.9-6-1.6c-0.5-0.2-0.9-0.4-1.4-0.6h0.7V18.2h21.4v21.5h0.2      c-0.9,0.3-1.9,0.6-2.8,0.8C62.3,41.5,58.2,41.7,54,41z"></path>
				<path id="XMLID_1378_" class="st13" d="M54.1,40.5c-2-0.3-4-0.9-5.9-1.6c-0.5-0.2-0.9-0.4-1.4-0.6h0.6V18.2h21.4v21.1h0      c-0.9,0.3-1.8,0.6-2.8,0.8C62.2,41,58.2,41.2,54.1,40.5z"></path>
				<path id="XMLID_1377_" class="st14" d="M54.2,40.1c-2-0.3-3.9-0.9-5.8-1.6c-0.5-0.2-0.9-0.4-1.4-0.6h0.4V18.2h21.4v20.4h0.5      c-0.2,0.1-0.4,0.2-0.7,0.2c-0.9,0.3-1.8,0.6-2.7,0.8C62.2,40.6,58.2,40.7,54.2,40.1z"></path>
				<path id="XMLID_1376_" class="st15" d="M54.3,39.6c-2-0.3-3.9-0.8-5.7-1.5c-0.5-0.2-0.9-0.4-1.3-0.5h0.2V18.2h21.4v19.7h1      c-0.4,0.2-0.9,0.3-1.3,0.5c-0.9,0.3-1.8,0.6-2.7,0.8C62.1,40.1,58.2,40.3,54.3,39.6z"></path>
				<path id="XMLID_1375_" class="st16" d="M54.3,39.2c-1.9-0.3-3.8-0.8-5.6-1.5c-0.4-0.2-0.9-0.4-1.3-0.5c-0.2-0.1-0.4-0.2-0.6-0.3      h0.6V18.2h21.4v19.3h0.9c-0.4,0.2-0.9,0.3-1.3,0.5c-0.9,0.3-1.8,0.6-2.7,0.8C62.1,39.6,58.2,39.8,54.3,39.2z"></path>
				<path id="XMLID_1370_" class="st17" d="M54.4,38.7c-1.9-0.3-3.8-0.8-5.5-1.5c-0.9-0.3-1.7-0.7-2.5-1.1h1.1V18.2h21.4v18.8h0.7      c-0.4,0.2-0.8,0.3-1.3,0.5c-0.9,0.3-1.7,0.6-2.6,0.8C62,39.2,58.2,39.3,54.4,38.7z"></path>
				<path id="XMLID_1369_" class="st18" d="M54.5,38.2c-1.9-0.3-3.7-0.8-5.4-1.5c-0.9-0.3-1.7-0.7-2.5-1.1h0.8V18.2h21.4v18.4h0.5      c-0.4,0.2-0.8,0.3-1.3,0.5c-0.8,0.3-1.7,0.5-2.6,0.8C62,38.7,58.3,38.9,54.5,38.2z"></path>
				<path id="XMLID_1368_" class="st19" d="M54.6,37.8c-1.9-0.3-3.6-0.8-5.3-1.4c-0.8-0.3-1.7-0.7-2.5-1.1h0.6v-17h21.4v18h0.3      c-0.4,0.2-0.8,0.3-1.2,0.5c-0.8,0.3-1.7,0.5-2.5,0.7C61.9,38.2,58.3,38.4,54.6,37.8z"></path>
				<path id="XMLID_1367_" class="st20" d="M54.6,37.3c-1.8-0.3-3.6-0.8-5.2-1.4c-0.8-0.3-1.6-0.7-2.4-1.1h0.4V18.2h21.4v17.5h0.2      c-0.4,0.2-0.8,0.3-1.2,0.5c-0.8,0.3-1.6,0.5-2.5,0.7C61.9,37.8,58.3,37.9,54.6,37.3z"></path>
				<path id="XMLID_1366_" class="st21" d="M54.7,36.9c-1.8-0.3-3.5-0.8-5.1-1.4c-0.8-0.3-1.6-0.7-2.4-1h0.2V18.2h21.4v16.9h0.6      c-0.2,0.1-0.4,0.2-0.6,0.2c-0.4,0.2-0.8,0.3-1.2,0.4c-0.8,0.3-1.6,0.5-2.4,0.7C61.8,37.3,58.3,37.4,54.7,36.9z"></path>
				<path id="XMLID_1365_" class="st22" d="M54.8,36.4c-1.8-0.3-3.4-0.8-5-1.4c-0.8-0.3-1.6-0.7-2.3-1h0V18.2h21.4v16.2h1      c-1.5,0.7-3.1,1.2-4.7,1.6C61.8,36.8,58.3,37,54.8,36.4z"></path>
				<path id="XMLID_1364_" class="st23" d="M54.9,35.9c-1.7-0.3-3.4-0.7-4.9-1.3c-0.8-0.3-1.5-0.6-2.3-1c-0.4-0.2-0.7-0.4-1.1-0.6      h0.9V18.2h21.4V34h0.8c-1.5,0.7-3,1.2-4.6,1.6C61.7,36.3,58.3,36.5,54.9,35.9z"></path>
				<path id="XMLID_1363_" class="st24" d="M54.9,35.5c-1.7-0.3-3.3-0.7-4.9-1.3c-0.8-0.3-1.5-0.6-2.2-1c-0.4-0.2-0.7-0.4-1.1-0.6      h0.7V18.2h21.4v15.3h0.6c-1.4,0.7-3,1.2-4.5,1.6C61.7,35.9,58.3,36,54.9,35.5z"></path>
				<path id="XMLID_1362_" class="st25" d="M55,35c-1.7-0.3-3.3-0.7-4.8-1.3c-0.8-0.3-1.5-0.6-2.2-1c-0.4-0.2-0.7-0.4-1.1-0.6h0.4      v-14h21.4v14.9h0.4c-1.4,0.7-2.9,1.2-4.5,1.5C61.6,35.4,58.3,35.6,55,35z"></path>
				<path id="XMLID_1361_" class="st26" d="M55.1,34.5c-1.6-0.3-3.2-0.7-4.7-1.3c-0.7-0.3-1.5-0.6-2.2-1c-0.4-0.2-0.7-0.4-1-0.6h0.2      V18.2h21.4v14.5H69c-1.4,0.6-2.9,1.1-4.4,1.5C61.6,34.9,58.4,35.1,55.1,34.5z"></path>
				<path id="XMLID_1360_" class="st27" d="M55.2,34.1c-3.2-0.5-6.1-1.7-8.7-3.3h0.9V18.2h21.4v13.6h1c-0.3,0.2-0.7,0.3-1,0.5      c-1.4,0.6-2.8,1.1-4.3,1.5C61.5,34.5,58.4,34.6,55.2,34.1z"></path>
				<path id="XMLID_1359_" class="st28" d="M55.3,33.6c-3.1-0.5-6-1.6-8.5-3.2h0.7V18.2h21.4v13.1h0.8c-0.3,0.2-0.7,0.3-1,0.5      c-1.3,0.6-2.7,1.1-4.2,1.5C61.5,34,58.4,34.1,55.3,33.6z"></path>
				<path id="XMLID_1358_" class="st29" d="M55.3,33.2c-3.1-0.5-5.9-1.6-8.4-3.2h0.4V18.2h21.4V31h0.6c-0.3,0.2-0.6,0.3-1,0.5      c-1.3,0.6-2.7,1.1-4.1,1.4C61.4,33.5,58.4,33.7,55.3,33.2z"></path>
				<path id="XMLID_1357_" class="st30" d="M55.4,32.7c-3-0.5-5.8-1.6-8.2-3.1h0.2V18.2h21.4v12.3h0.3c-0.3,0.2-0.6,0.3-1,0.5      c-1.3,0.6-2.6,1.1-4,1.4C61.4,33.1,58.4,33.2,55.4,32.7z"></path>
				<path id="XMLID_1356_" class="st31" d="M55.5,32.2c-2.9-0.5-5.6-1.5-8-3c-0.3-0.2-0.6-0.4-0.9-0.6h0.8V18.2h21.4v11.4h1      c-0.6,0.3-1.2,0.7-1.8,1c-1.3,0.6-2.6,1-3.9,1.4C61.3,32.6,58.4,32.7,55.5,32.2z"></path>
				<path id="XMLID_1355_" class="st32" d="M55.6,31.8c-2.9-0.5-5.5-1.5-7.8-3c-0.3-0.2-0.6-0.4-0.9-0.6h0.6v-10h21.4v11h0.8      c-0.6,0.3-1.2,0.7-1.8,0.9c-1.2,0.6-2.5,1-3.9,1.3C61.3,32.1,58.4,32.3,55.6,31.8z"></path>
				<path id="XMLID_1354_" class="st33" d="M55.6,31.3c-2.8-0.5-5.4-1.5-7.7-2.9c-0.6-0.4-1.1-0.7-1.6-1.2h1.1v-9h21.4v10.6h0.6      c-0.6,0.3-1.2,0.6-1.8,0.9c-1.2,0.6-2.5,1-3.8,1.3C61.2,31.7,58.4,31.8,55.6,31.3z"></path>
				<path id="XMLID_1353_" class="st34" d="M55.7,30.9c-2.7-0.5-5.3-1.4-7.5-2.8c-0.6-0.4-1.1-0.7-1.6-1.1h0.8v-8.7h21.4v10.2h0.3      c-0.6,0.3-1.1,0.6-1.7,0.9c-1.2,0.5-2.4,1-3.7,1.3C61.2,31.2,58.5,31.3,55.7,30.9z"></path>
				<path id="XMLID_1352_" class="st35" d="M55.8,30.4c-2.7-0.4-5.1-1.4-7.3-2.8c-0.5-0.3-1.1-0.7-1.6-1.1h0.5v-8.3h21.4V28h0.1      c-0.5,0.3-1.1,0.6-1.7,0.9c-1.1,0.5-2.4,0.9-3.6,1.2C61.1,30.7,58.5,30.8,55.8,30.4z"></path>
				<path id="XMLID_1351_" class="st36" d="M55.9,29.9c-2.6-0.4-5-1.4-7.1-2.7c-0.5-0.3-1-0.7-1.5-1.1h0.2v-7.9h21.4v8.9h0.7      c-0.3,0.2-0.5,0.3-0.8,0.5c-0.5,0.3-1.1,0.6-1.6,0.9c-1.1,0.5-2.3,0.9-3.5,1.2C61.1,30.3,58.5,30.4,55.9,29.9z"></path>
				<path id="XMLID_1350_" class="st37" d="M55.9,29.5c-2.6-0.4-4.9-1.3-7-2.6c-0.5-0.3-1-0.7-1.5-1c-0.2-0.2-0.5-0.4-0.7-0.6h0.6      v-7h21.4v8.5h0.4c-0.3,0.2-0.5,0.3-0.8,0.5c-0.5,0.3-1.1,0.6-1.6,0.8c-1.1,0.5-2.2,0.9-3.4,1.2C61,29.8,58.5,29.9,55.9,29.5z"></path>
				<path id="XMLID_1349_" class="st38" d="M56,29c-2.5-0.4-4.8-1.3-6.8-2.6c-1-0.6-1.9-1.4-2.8-2.2h1v-6h21.4v7.6h0.9      C65.8,28.6,61,29.8,56,29z"></path>
				<path id="XMLID_1348_" class="st39" d="M56.1,28.6c-2.4-0.4-4.7-1.3-6.6-2.5c-1-0.6-1.9-1.3-2.7-2.1h0.7v-5.7h21.4v7.2h0.6      C65.7,28.1,60.9,29.4,56.1,28.6z"></path>
				<path id="XMLID_1347_" class="st40" d="M56.2,28.1c-2.4-0.4-4.5-1.2-6.4-2.5c-1-0.6-1.8-1.3-2.6-2.1h0.3v-5.4h21.4v6.9h0.3      C65.5,27.7,60.9,28.9,56.2,28.1z"></path>
				<path id="XMLID_1346_" class="st41" d="M56.2,27.6c-2.3-0.4-4.4-1.2-6.3-2.4c-0.9-0.6-1.8-1.3-2.6-2h0v-5h21.4v6.5h0.1      C65.3,27.2,60.8,28.4,56.2,27.6z"></path>
				<path id="XMLID_1345_" class="st42" d="M56.3,27.2c-2.2-0.4-4.3-1.2-6.1-2.3c-0.9-0.6-1.7-1.2-2.5-2c-0.4-0.4-0.7-0.7-1.1-1.1      h0.8v-3.5h21.4v5.1h1c-0.4,0.3-0.8,0.7-1.2,1C65.1,26.8,60.8,27.9,56.3,27.2z"></path>
				<path id="XMLID_1344_" class="st43" d="M56.4,26.7c-2.2-0.4-4.2-1.1-5.9-2.3c-0.9-0.6-1.7-1.2-2.4-1.9c-0.4-0.4-0.7-0.7-1.1-1.1      h0.4v-3.2h21.4V23h0.7c-0.4,0.3-0.8,0.7-1.2,0.9C65,26.3,60.7,27.4,56.4,26.7z"></path>
				<path id="XMLID_1343_" class="st44" d="M56.5,26.2c-4.2-0.7-7.8-3-10.1-6.3h1v-1.8h21.4v4.4h0.4c-0.4,0.3-0.8,0.6-1.2,0.9      C64.8,25.9,60.7,26.9,56.5,26.2z"></path>
				<path id="XMLID_1342_" class="st45" d="M56.6,25.8c-4.1-0.7-7.5-3-9.8-6.1h0.6v-1.5h21.4v4.1h0.1c-0.4,0.3-0.7,0.6-1.1,0.9      C64.6,25.4,60.6,26.5,56.6,25.8z"></path>
				<path id="XMLID_1341_" class="st46" d="M56.6,25.3c-4-0.7-7.3-2.9-9.5-5.9h0.3v-1.2h21.4V21h0.8c-0.6,0.7-1.3,1.3-2.1,1.8      C64.4,25,60.6,26,56.6,25.3z"></path>
				<path id="XMLID_1340_" class="st47" d="M56.7,24.9c-3.8-0.6-7.1-2.8-9.2-5.7c-0.3-0.4-0.5-0.7-0.7-1.1l0.6,0.2h21.4v2.4h0.5      c-0.6,0.7-1.3,1.3-2,1.8C64.3,24.5,60.5,25.5,56.7,24.9z"></path>
				<path id="XMLID_1339_" class="st48" d="M56.8,24.4c-3.7-0.6-6.8-2.7-8.9-5.5c-0.3-0.4-0.5-0.7-0.7-1.1l0.2,0.4h21.4v2.1h0.1      c-0.6,0.6-1.3,1.2-2,1.7C64.1,24.1,60.5,25,56.8,24.4z"></path>
				<path id="XMLID_1338_" class="st49" d="M56.9,23.9c-3.6-0.6-6.6-2.6-8.5-5.3c-0.2-0.3-0.5-0.7-0.7-1.1v0.7h21.2V19h0.6      c-0.3,0.3-0.5,0.7-0.8,1c-0.6,0.6-1.2,1.2-1.9,1.7C63.9,23.6,60.4,24.5,56.9,23.9z"></path>
				<path id="XMLID_1337_" class="st50" d="M56.9,23.5c-3.5-0.6-6.4-2.5-8.2-5.1c-0.2-0.3-0.5-0.7-0.7-1v0.9h20.7l1-0.5      c-0.9,1.4-2,2.6-3.3,3.5C63.8,23.2,60.4,24.1,56.9,23.5z"></path>
				<path id="XMLID_1336_" class="st51" d="M57,23c-3.3-0.6-6.1-2.4-7.9-4.9v0.2h19.7l0.6-0.7c-0.8,1.3-1.9,2.5-3.2,3.4      C63.6,22.7,60.3,23.6,57,23z"></path>
				<path id="XMLID_1335_" class="st52" d="M57.1,22.6c-3.2-0.5-5.9-2.3-7.6-4.8v0.4h19.3l0.2-1c-0.8,1.3-1.9,2.4-3.1,3.3      C63.4,22.3,60.3,23.1,57.1,22.6z"></path>
			</g>
		</g>
		<g id="XMLID_1330_">
			<path id="XMLID_1331_" class="st53" d="M68.7,28.9c0,3.2-1.4,6.1-3.7,8c-1.3,1.1-2.4,2.3-3.4,3.7l0,0c-0.5,0.6-3.3,0.5-6.6-0.2     c-3.3-0.7-5.9-1.9-6.1-2.6c0,0,0-0.1,0-0.1v0c-0.1-2-0.4-4-0.9-6c-0.2-0.9-0.4-1.9-0.4-2.9c0.1-5.7,4.8-10.4,10.6-10.3     C64,18.4,68.7,23.1,68.7,28.9z"></path>
		</g>
		<g id="XMLID_1328_">
			<path id="XMLID_1329_" class="st1" d="M49.2,46.6l0.1,1.4c0.1,1.6,1.3,2.9,2.9,3.2c0,0,0.1,0,0.1,0c1.5,0.2,2.9-0.5,3.6-1.8     l0.7-1.3L49.2,46.6z"></path>
		</g>
		<g id="XMLID_1324_">
			<path id="XMLID_1325_" class="st4" d="M52.8,51.7c-0.2,0-0.4,0-0.6,0c0,0-0.1,0-0.1,0c-1.8-0.3-3.1-1.8-3.2-3.6l-0.1-1.4     c0-0.1,0-0.3,0.1-0.4c0.1-0.1,0.2-0.1,0.4-0.1l7.4,1.5c0.1,0,0.2,0.1,0.3,0.2s0.1,0.3,0,0.4l-0.7,1.3     C55.6,50.9,54.3,51.7,52.8,51.7z M49.7,47.1l0.1,0.8c0.1,1.4,1.2,2.6,2.5,2.8l0.1,0c1.3,0.2,2.6-0.4,3.2-1.6l0.4-0.7L49.7,47.1z"></path>
		</g>
		<g id="XMLID_1322_">
			<path id="XMLID_1323_" class="st54" d="M58.2,47.1l-9.4-2.3c0,0-0.6,0.9-0.4,1.7c0.2,0.6,2.1,1.4,4.6,2c2.6,0.6,4.3,0.7,4.9,0     C58.3,47.9,58.2,47.1,58.2,47.1z"></path>
		</g>
		<g id="XMLID_1320_" class="st2">
			<path id="XMLID_1321_" class="st3" d="M58.2,47.1l-9.4-2.3c0,0-0.6,0.9-0.4,1.7c0.2,0.6,2.1,1.4,4.6,2c2.6,0.6,4.3,0.7,4.9,0     C58.3,47.9,58.2,47.1,58.2,47.1z"></path>
		</g>
		<g id="XMLID_1313_">
			<path id="XMLID_1315_" class="st4" d="M56.2,49.5c-0.9,0-2-0.2-3.3-0.5c-1.1-0.3-4.5-1.2-4.9-2.3c-0.3-1,0.4-2.1,0.4-2.1     c0.1-0.1,0.3-0.2,0.5-0.2l9.4,2.3c0.2,0,0.3,0.2,0.3,0.3c0,0,0.2,0.9-0.3,1.8c0,0,0,0.1-0.1,0.1C57.8,49.3,57.2,49.5,56.2,49.5z      M49,45.4c-0.1,0.3-0.3,0.7-0.2,1.1c0.1,0.3,1.5,1.1,4.3,1.7c3.2,0.8,4.2,0.4,4.5,0.2c0.2-0.3,0.2-0.6,0.2-0.9L49,45.4z"></path>
		</g>
		<g id="XMLID_1310_">
			<path id="XMLID_1312_" class="st54" d="M59.9,45l-12.1-2.9c0,0-0.8,1.2-0.5,2.1c0.2,0.7,2.6,1.9,5.8,2.6c3.3,0.8,5.5,0.9,6.4,0.1     C60,46.2,59.9,45,59.9,45z"></path>
		</g>
		<g id="XMLID_1306_">
			<path id="XMLID_1307_" class="st4" d="M57.4,47.9c-1.1,0-2.6-0.2-4.5-0.7c-2.7-0.6-5.7-1.8-6.1-2.9c-0.4-1.1,0.5-2.5,0.6-2.5     c0.1-0.1,0.3-0.2,0.5-0.2L60,44.6c0.2,0,0.3,0.2,0.3,0.4c0,0.1,0.1,1.4-0.6,2.3c0,0,0,0.1-0.1,0.1C59.3,47.7,58.5,47.9,57.4,47.9     z M48,42.6c-0.2,0.4-0.5,1-0.3,1.5c0.1,0.4,2.1,1.5,5.5,2.3c4,0.9,5.4,0.7,5.9,0.3c0.3-0.4,0.4-1,0.4-1.4L48,42.6z"></path>
		</g>
		<g id="XMLID_1304_">
			
				<ellipse id="XMLID_1305_" transform="matrix(0.9733 0.2294 -0.2294 0.9733 11.4297 -11.193)" class="st54" cx="53.9" cy="43.6" rx="6.2" ry="1.7"></ellipse>
		</g>
		<g id="XMLID_1302_" class="st2">
			
				<ellipse id="XMLID_1303_" transform="matrix(0.9733 0.2294 -0.2294 0.9733 11.4297 -11.193)" class="st3" cx="53.9" cy="43.6" rx="6.2" ry="1.7"></ellipse>
		</g>
		<g id="XMLID_1298_">
			<path id="XMLID_1299_" class="st4" d="M57.6,46.2c-1.3,0-2.8-0.2-4.2-0.6c-3.1-0.7-6.3-2.2-6-3.6c0.3-1.4,3.8-1.3,7-0.5     c1.7,0.4,3.2,0.9,4.3,1.5c1.3,0.7,1.9,1.4,1.7,2C60.2,45.9,59.1,46.2,57.6,46.2z M50.1,41.9c-1.2,0-1.9,0.2-1.9,0.4     c-0.1,0.3,1.7,1.7,5.4,2.5c3.7,0.9,5.8,0.5,5.9,0.1l0,0c0-0.1-0.2-0.5-1.3-1.1c-1-0.6-2.5-1.1-4.1-1.4     C52.5,42,51.1,41.9,50.1,41.9z"></path>
		</g>
		<g id="XMLID_1296_">
			<path id="XMLID_1297_" class="st54" d="M59.5,42.3L49.7,40c0,0-0.7,0.9-0.4,1.8c0.2,0.6,2.2,1.5,4.8,2.1c2.7,0.6,4.5,0.6,5.1-0.1     C59.7,43.1,59.5,42.3,59.5,42.3z"></path>
		</g>
		<g id="XMLID_1292_" class="st2">
			<path id="XMLID_1293_" class="st3" d="M59.5,42.3L49.7,40c0,0-0.7,0.9-0.4,1.8c0.2,0.6,2.2,1.5,4.8,2.1c2.7,0.6,4.5,0.6,5.1-0.1     C59.7,43.1,59.5,42.3,59.5,42.3z"></path>
		</g>
		<g id="XMLID_1287_">
			<path id="XMLID_1288_" class="st4" d="M57.4,44.8c-0.9,0-2-0.2-3.4-0.5c-1.1-0.2-4.7-1.2-5.1-2.3c-0.4-1,0.4-2.1,0.4-2.2     c0.1-0.1,0.3-0.2,0.5-0.2l9.9,2.2c0.2,0,0.3,0.2,0.3,0.3c0,0,0.2,1-0.3,1.8c0,0,0,0.1-0.1,0.1C59.2,44.6,58.5,44.8,57.4,44.8z      M49.9,40.5c-0.1,0.3-0.3,0.8-0.2,1.1c0.1,0.3,1.6,1.1,4.5,1.8c3.3,0.8,4.4,0.4,4.7,0.1c0.2-0.3,0.2-0.7,0.2-0.9L49.9,40.5z"></path>
		</g>
		<g id="XMLID_1285_">
			<path id="XMLID_1286_" class="st54" d="M61.6,40.4l-12.7-2.8c0,0-0.8,0.9-0.4,1.9c0.3,0.7,2.7,1.9,6.1,2.7     c3.5,0.8,5.8,0.9,6.7,0.1C61.8,41.3,61.6,40.4,61.6,40.4z"></path>
		</g>
		<g id="XMLID_1278_">
			<path id="XMLID_1280_" class="st4" d="M59,43.2c-1.2,0-2.7-0.2-4.6-0.6c-2.9-0.6-6-1.9-6.4-2.9c-0.4-1.2,0.4-2.3,0.5-2.3     c0.1-0.1,0.3-0.2,0.4-0.1L61.7,40c0.2,0,0.3,0.2,0.3,0.3c0,0,0.2,1.1-0.5,2.1c0,0,0,0.1-0.1,0.1C61,42.9,60.2,43.2,59,43.2z      M49.1,38.1c-0.2,0.3-0.4,0.7-0.2,1.2c0.2,0.4,2.3,1.6,5.7,2.4c4.2,0.9,5.7,0.6,6.2,0.2c0.3-0.4,0.3-0.8,0.3-1.1L49.1,38.1z"></path>
		</g>
		<g id="XMLID_1268_">
			<path id="XMLID_1272_" class="st4" d="M59.6,41.6c-1.9,0-4.2-0.5-4.8-0.6c-1-0.2-6.2-1.5-6.5-3.1c0,0,0-0.1,0-0.1c0,0,0,0,0,0     c0,0,0,0,0-0.1c0,0,0-0.1,0-0.1c0,0,0,0,0,0c0,0,0,0,0,0c0.2-0.9,1.6-1,2.6-1c1.3,0,3,0.2,4.7,0.6c1.7,0.4,3.3,0.9,4.5,1.4     c0.9,0.4,2.2,1.1,2,2c0,0,0,0,0,0c0,0.1-0.1,0.2-0.2,0.4C61.6,41.4,60.7,41.6,59.6,41.6z M61.6,40.4L61.6,40.4L61.6,40.4z      M49.6,37.7c0.5,0.5,2.4,1.3,5.5,2c3.1,0.7,5.1,0.7,5.8,0.5c-0.5-0.5-2.4-1.3-5.5-2C52.3,37.5,50.3,37.6,49.6,37.7z M48.3,37.5     C48.3,37.5,48.3,37.5,48.3,37.5C48.3,37.5,48.3,37.5,48.3,37.5z"></path>
		</g>
		<g id="XMLID_1266_">
			
				<ellipse id="XMLID_1267_" transform="matrix(0.9759 0.2183 -0.2183 0.9759 9.8471 -11.1158)" class="st1" cx="55.2" cy="39" rx="6.5" ry="1.4"></ellipse>
		</g>
		<g id="XMLID_1264_" class="st2">
			
				<ellipse id="XMLID_1265_" transform="matrix(0.9759 0.2183 -0.2183 0.9759 9.8651 -11.1097)" class="st3" cx="55.2" cy="39.1" rx="6.5" ry="1"></ellipse>
		</g>
		<g id="XMLID_1256_">
			<path id="XMLID_1258_" class="st4" d="M57.5,39.6C57.4,39.6,57.4,39.6,57.5,39.6c-0.3,0-0.4-0.2-0.4-0.5c0-0.1,0.2-3.6,1.7-7.6     c0-0.1,0.1-0.2,0.1-0.3l-2.7-0.8c-0.1,1.9-0.8,4.5-2.2,8c-0.1,0.2-0.3,0.3-0.6,0.2c-0.2-0.1-0.3-0.3-0.2-0.6     c1.5-3.7,2-6.2,2.1-7.9L55,30.1c-0.2-0.1-1.8-0.6-2.1-1.7c-0.1-0.3-0.1-0.9,0.4-1.4c0.5-0.6,1.2-0.8,1.8-0.4     c0.6,0.4,1.1,1.3,1.1,3l3.1,0.9c0.8-1.3,1.6-1.6,2.1-1.6c0.7-0.1,1.4,0.2,1.7,0.8c0.3,0.4,0.3,0.9,0.1,1.2     c-0.6,1.1-2.6,0.8-3.5,0.6c-0.1,0.1-0.1,0.2-0.1,0.4c-1.5,3.9-1.7,7.3-1.7,7.4C57.9,39.4,57.7,39.6,57.5,39.6z M60.1,30.7     c0.9,0.1,2,0.2,2.3-0.3c0.1-0.1,0-0.3-0.1-0.3c-0.1-0.2-0.5-0.4-0.9-0.4C61,29.7,60.5,30.1,60.1,30.7z M54.4,27.3     c-0.2,0-0.4,0.2-0.5,0.3c-0.3,0.4-0.2,0.6-0.2,0.6c0.1,0.5,1,0.9,1.6,1.1l0.1,0c-0.1-1.2-0.4-1.8-0.7-2     C54.5,27.3,54.4,27.3,54.4,27.3z"></path>
		</g>
		<g id="XMLID_1252_">
			<path id="XMLID_1254_" class="st53" d="M38.3,16.5c1.8,0.1,3.5,1.1,4.8,2.3c0.5,0.5,1.4,1.3,1.4,2.2c0,0.9-0.8,1.4-1.6,1.3     c-1.7-0.2-3.4-1.2-4.6-2.4c-0.5-0.5-1.2-1.3-1.3-2C36.9,17.1,37.5,16.4,38.3,16.5z"></path>
		</g>
		<g id="XMLID_1246_">
			<path id="XMLID_1247_" class="st4" d="M43,22.7c-0.1,0-0.2,0-0.3,0c-1.7-0.2-3.5-1.1-4.9-2.5c-0.7-0.7-1.4-1.5-1.4-2.4     c0-0.5,0.2-1,0.5-1.3c0.4-0.4,0.8-0.6,1.3-0.5c0,0,0,0,0,0c1.7,0.1,3.6,1,5.1,2.5c0.6,0.6,1.5,1.5,1.5,2.5c0,0.5-0.2,1-0.5,1.3     C44,22.6,43.5,22.7,43,22.7z M38.2,17c-0.2,0-0.4,0.1-0.5,0.2c-0.2,0.2-0.2,0.4-0.2,0.6c0,0.6,0.8,1.4,1.1,1.7     c1.2,1.2,2.9,2.1,4.3,2.3c0.3,0,0.7,0,0.9-0.2c0.1-0.1,0.2-0.3,0.2-0.5c0-0.6-0.8-1.4-1.2-1.8C41.3,17.9,39.7,17,38.2,17     C38.2,17,38.2,17,38.2,17z"></path>
		</g>
		<g id="XMLID_1244_">
			<path id="XMLID_1245_" class="st53" d="M50.7,6.9c1.5,1,2.5,2.7,3,4.4c0.2,0.7,0.5,1.8,0.1,2.6c-0.4,0.8-1.4,0.8-2,0.3     c-1.4-1-2.3-2.7-2.8-4.4c-0.2-0.7-0.4-1.7-0.1-2.4C49.2,6.7,50.1,6.5,50.7,6.9z"></path>
		</g>
		<g id="XMLID_1235_">
			<path id="XMLID_1237_" class="st4" d="M52.7,15c-0.4,0-0.9-0.2-1.3-0.5c-1.4-1-2.5-2.7-3-4.7c-0.3-1-0.4-2,0-2.8     c0.2-0.4,0.6-0.8,1.1-0.9c0.5-0.1,1-0.1,1.4,0.2c0,0,0,0,0,0c1.4,0.9,2.6,2.6,3.2,4.7c0.2,0.8,0.6,2,0.1,2.9     c-0.3,0.5-0.6,0.8-1.1,0.9C53,15,52.9,15,52.7,15z M50,7.2c-0.1,0-0.1,0-0.2,0c-0.2,0.1-0.4,0.2-0.5,0.4c-0.3,0.6,0,1.6,0.1,2     c0.4,1.7,1.4,3.2,2.6,4.1c0.3,0.2,0.6,0.3,0.9,0.2c0.2,0,0.3-0.2,0.4-0.4c0.3-0.5,0-1.6-0.2-2.2c-0.5-1.8-1.5-3.3-2.7-4.1     C50.3,7.3,50.2,7.2,50,7.2z"></path>
		</g>
		<g id="XMLID_1232_">
			<path id="XMLID_1234_" class="st53" d="M71.1,11c-0.4,1.7-1.7,3.3-3.1,4.3c-0.6,0.5-1.6,1.1-2.4,1c-0.9-0.1-1.2-1-1-1.8     c0.5-1.6,1.8-3.2,3.1-4.1c0.6-0.4,1.5-1,2.2-0.9C70.7,9.6,71.2,10.3,71.1,11z"></path>
		</g>
		<g id="XMLID_1222_">
			<path id="XMLID_1225_" class="st4" d="M65.8,16.9c-0.1,0-0.2,0-0.3,0c-0.5-0.1-0.9-0.3-1.2-0.7c-0.3-0.5-0.4-1.1-0.2-1.7     c0.5-1.6,1.7-3.3,3.3-4.4c0.8-0.6,1.7-1.1,2.6-1c0.5,0.1,0.9,0.3,1.2,0.7c0.3,0.4,0.4,0.9,0.3,1.4c0,0,0,0,0,0     c-0.4,1.7-1.6,3.4-3.3,4.6C67.7,16.2,66.8,16.9,65.8,16.9z M69.8,10c-0.6,0-1.4,0.5-1.8,0.8c-1.4,1-2.5,2.5-2.9,3.9     c-0.1,0.3-0.1,0.7,0.1,0.9c0.1,0.2,0.3,0.3,0.5,0.3c0.6,0.1,1.5-0.6,2-0.9c1.5-1.1,2.6-2.6,2.9-4c0-0.2,0-0.4-0.1-0.6     c-0.1-0.2-0.3-0.3-0.5-0.3C69.9,10,69.9,10,69.8,10z M71.1,11L71.1,11L71.1,11z"></path>
		</g>
		<g id="XMLID_1219_">
			<path id="XMLID_1220_" class="st55" d="M80,23.4c-1.2,1.3-3.1,2-4.8,2.2c-0.8,0.1-1.9,0.2-2.5-0.3c-0.7-0.6-0.5-1.5,0-2.1     c1.2-1.2,3.1-1.9,4.7-2.1c0.7-0.1,1.8-0.1,2.4,0.3C80.4,22,80.4,22.9,80,23.4z"></path>
		</g>
		<g id="XMLID_1211_">
			<path id="XMLID_1212_" class="st4" d="M74,26.3c-0.6,0-1.3-0.1-1.8-0.5c-0.4-0.3-0.6-0.7-0.7-1.2c0-0.6,0.2-1.1,0.7-1.6     c1.2-1.2,3.1-2,5.1-2.2c1-0.1,2-0.1,2.7,0.4c0.4,0.3,0.7,0.7,0.7,1.2c0.1,0.5-0.1,1-0.4,1.4c0,0,0,0,0,0c-1.1,1.3-3,2.2-5.2,2.4     C74.9,26.2,74.5,26.3,74,26.3z M78.3,21.7c-0.3,0-0.6,0-0.9,0.1C75.7,22,74,22.7,73,23.7c-0.2,0.2-0.4,0.5-0.4,0.8     c0,0.2,0.1,0.3,0.3,0.5c0.5,0.4,1.6,0.3,2.2,0.2c1.9-0.2,3.5-1,4.5-2.1c0.1-0.2,0.2-0.4,0.2-0.6c0-0.2-0.1-0.4-0.3-0.5     C79.2,21.8,78.7,21.7,78.3,21.7z M80,23.4L80,23.4L80,23.4z"></path>
		</g>
		<g id="XMLID_1204_">
			<path id="XMLID_1206_" class="st4" d="M59.6,41.5c-1.9,0-4.4-0.5-4.8-0.6c-0.6-0.1-6.1-1.4-6.4-3c0,0,0-0.1,0-0.1c0,0,0,0,0,0     c0,0,0,0,0,0c-0.1-2-0.4-4-0.9-5.9c-0.3-1-0.4-2-0.4-3c0.1-6,5-10.8,11-10.8c0,0,0,0,0.1,0c6,0,11,5,11,11c0,3.2-1.4,6.3-3.9,8.4     c-1.3,1.1-2.4,2.3-3.3,3.6c-0.1,0.1-0.2,0.2-0.3,0.2C61.3,41.4,60.5,41.5,59.6,41.5z M49.4,37.6c0.2,0.4,2.1,1.4,5.7,2.2     c3.6,0.8,5.8,0.6,6.1,0.4c0-0.1,0.1-0.1,0.2-0.1c0.9-1.3,2.1-2.5,3.3-3.6c2.2-1.9,3.5-4.7,3.5-7.6c0-5.5-4.5-10-10-10     c0,0,0,0,0,0c-5.4,0-9.9,4.4-10,9.8c0,0.9,0.1,1.9,0.3,2.8C49,33.4,49.3,35.5,49.4,37.6C49.4,37.6,49.4,37.6,49.4,37.6     C49.4,37.6,49.4,37.6,49.4,37.6z"></path>
		</g>
		<g id="XMLID_1200_" class="st2">
			<g id="XMLID_1201_">
				<path id="XMLID_1202_" class="st3" d="M67.1,32.1c-0.3,1-0.7,2-1.7,3c-0.7,0.7-1.2,0.9-2.2,2c-0.3,0.3-0.4,0.5-1.2,1.5      c-0.5,0.6-0.9,1.1-1.2,1.4c-2.4,0.1-4.3-0.2-5.6-0.4c-2.2-0.4-3.4-1-4-1.3c-0.6-0.3-1.1-0.7-1.4-0.9c1.7,0.1,3.1,0,4.1-0.2      c1.4-0.2,6.9-1,10.6-5c1-1,1.4-1.9,1.6-2.3c1-2,1-3.9,0.9-5C67.2,25.9,68.2,28.9,67.1,32.1z"></path>
			</g>
		</g>
		<g id="XMLID_1197_" class="st56">
			<g id="XMLID_1198_">
				<path id="XMLID_1199_" class="st1" d="M49.9,26c-0.2-1.7,1.4-3.2,1.9-3.7c0.5-0.5,1.1-0.8,2.2-1.5c0.7-0.4,1-0.5,1.5-0.5      c0.5,0,1.1,0.3,1.2,0.8c0.2,0.6-0.2,1.2-0.7,1.5s-1.1,0.5-1.6,0.7c-0.8,0.4-1.5,1-1.9,1.8c-0.4,0.6-0.3,0.9-0.8,1.3      c-0.1,0.1-0.8,0.8-1.4,0.5C50,26.9,49.9,26.2,49.9,26z"></path>
			</g>
		</g>
		<g id="XMLID_1191_" class="st56">
			<g id="XMLID_1195_">
				<path id="XMLID_1196_" class="st1" d="M58,19.9c-0.3,0.2-0.6,0.6-0.5,1c0.1,0.4,0.5,0.7,0.9,0.8c0.4,0,0.8-0.2,1.1-0.6      c0.1-0.1,0.1-0.2,0.1-0.3c0.1-0.4-0.2-0.8-0.5-1C58.8,19.7,58.3,19.7,58,19.9z"></path>
			</g>
		</g>
	</g>
</g>
</svg>
