<?xml version="1.0" encoding="UTF-8"?>
<!-- Generator: Adobe Illustrator 19.0.0, SVG Export Plug-In . SVG Version: 6.00 Build 0)  -->
<svg xmlns="http://www.w3.org/2000/svg" xmlns:xlink="http://www.w3.org/1999/xlink" version="1.1" id="Layer_1" x="0px" y="0px" viewBox="0 0 100 100" style="enable-background:new 0 0 100 100;" xml:space="preserve">
<style type="text/css">
	.st0{fill:#FFFFFF;}
</style>
<g id="XMLID_1700_">
	<g id="XMLID_26_">
		<polygon id="XMLID_80_" class="st0" points="52,93.5 10.8,93.5 10.8,0.7 68.6,0.7 68.8,13.6 82.2,13.7 82.2,62.4 78.3,62.4     78.3,17.6 64.9,17.5 64.7,4.7 14.8,4.7 14.8,89.6 52,89.6   "></polygon>
	</g>
	<g id="XMLID_33_">
		<path class="st0" d="M74.6,66.3c-10.2,0-18.5,8.3-18.5,18.5v14.5h14.5c10.3,0,18.6-8.3,18.5-18.5V66.3H74.6z M76.4,83.4v7.7h-7.5    v-7.7h-5.2l9-9l8.9,9H76.4z"></path>
	</g>
	<g id="XMLID_34_">
		<rect id="XMLID_1728_" x="22" y="47.1" class="st0" width="48.7" height="5.8"></rect>
	</g>
	<g id="XMLID_35_">
		<rect id="XMLID_1726_" x="22" y="59.7" class="st0" width="25.4" height="5.8"></rect>
	</g>
	<g id="XMLID_36_">
		<rect id="XMLID_1724_" x="22" y="72.3" class="st0" width="25.4" height="5.8"></rect>
	</g>
	<g id="XMLID_40_">
		<polygon id="XMLID_79_" class="st0" points="79.3,16.6 65.7,3.6 68.5,0.8 82,13.7   "></polygon>
	</g>
	<g id="XMLID_48_">
		<path id="XMLID_76_" class="st0" d="M22.5,11.8v28.7h25.8V11.8H22.5z M44.3,36.5H26.4V15.7h17.9V36.5z"></path>
	</g>
	<g id="XMLID_49_">
		<path id="XMLID_73_" class="st0" d="M52.4,25.2v15.3h20.5V25.2H52.4z M68.9,36.5H56.3v-7.4h12.6V36.5z"></path>
	</g>
</g>
</svg>
