<?xml version="1.0" encoding="UTF-8"?>
<!-- Generator: Adobe Illustrator 19.0.0, SVG Export Plug-In . SVG Version: 6.00 Build 0)  -->
<svg xmlns="http://www.w3.org/2000/svg" xmlns:xlink="http://www.w3.org/1999/xlink" version="1.1" id="Layer_1" x="0px" y="0px" viewBox="0 0 200 200" style="enable-background:new 0 0 200 200;" xml:space="preserve">
<style type="text/css">
	.st0{fill:#CF2E2E;}
</style>
<g id="XMLID_27_">
	<g id="XMLID_135_">
		<rect id="XMLID_14_" x="1.2" y="166.6" class="st0" width="194.8" height="2.1"></rect>
	</g>
	<g id="XMLID_134_">
		<rect id="XMLID_13_" x="12.5" y="172.3" class="st0" width="110.7" height="2.1"></rect>
	</g>
	<g id="XMLID_142_">
		<rect id="XMLID_12_" x="130.7" y="172.3" class="st0" width="52.5" height="2.1"></rect>
	</g>
	<g id="XMLID_189_">
		<path id="XMLID_26_" class="st0" d="M35.3,105.7c0.2,0.2,0.6,0.4,0.9,0.4c0.3,0,0.7-0.1,0.9-0.4l1.3-1.3l1.3,1.3    c0.2,0.2,0.6,0.4,0.9,0.4s0.7-0.1,0.9-0.4c0.5-0.5,0.5-1.3,0-1.8l-1.3-1.3l1.3-1.3c0.5-0.5,0.5-1.3,0-1.8c-0.5-0.5-1.3-0.5-1.8,0    l-1.3,1.3l-1.3-1.3c-0.5-0.5-1.3-0.5-1.8,0c-0.5,0.5-0.5,1.3,0,1.8l1.3,1.3l-1.3,1.3C34.8,104.4,34.8,105.2,35.3,105.7z"></path>
	</g>
	<g id="XMLID_30_">
		<path id="XMLID_31_" class="st0" d="M136.3,91.3c0.2,0.2,0.6,0.4,0.9,0.4s0.7-0.1,0.9-0.4l1.3-1.3l1.3,1.3    c0.2,0.2,0.6,0.4,0.9,0.4s0.7-0.1,0.9-0.4c0.5-0.5,0.5-1.3,0-1.8l-1.3-1.3l1.3-1.3c0.5-0.5,0.5-1.3,0-1.8c-0.5-0.5-1.3-0.5-1.8,0    l-1.3,1.3l-1.3-1.3c-0.5-0.5-1.3-0.5-1.8,0c-0.5,0.5-0.5,1.3,0,1.8l1.3,1.3l-1.3,1.3C135.8,90,135.8,90.8,136.3,91.3z"></path>
	</g>
	<g id="XMLID_329_">
		<path id="XMLID_32_" class="st0" d="M141.5,44.4c2.3,0,4.2-1.9,4.2-4.2s-1.9-4.2-4.2-4.2c-2.3,0-4.2,1.9-4.2,4.2    S139.1,44.4,141.5,44.4z M141.5,38.1c1.2,0,2.1,0.9,2.1,2.1c0,1.2-0.9,2.1-2.1,2.1c-1.2,0-2.1-0.9-2.1-2.1    C139.4,39,140.3,38.1,141.5,38.1z"></path>
	</g>
	<g id="XMLID_186_">
		<path id="XMLID_33_" class="st0" d="M54.2,34c2.3,0,4.2-1.9,4.2-4.2s-1.9-4.2-4.2-4.2c-2.3,0-4.2,1.9-4.2,4.2S51.9,34,54.2,34z     M54.2,27.7c1.2,0,2.1,0.9,2.1,2.1c0,1.2-0.9,2.1-2.1,2.1c-1.2,0-2.1-0.9-2.1-2.1C52.1,28.7,53,27.7,54.2,27.7z"></path>
	</g>
	<g id="XMLID_118_">
		<g id="XMLID_122_">
			<path id="XMLID_25_" class="st0" d="M29.2,81.4h1.4c0.6,0,1-0.5,1-1c0-0.6-0.5-1-1-1h-1.4c-2,0-3.7-1.7-3.7-3.7     c0-1.7,1.1-3.1,2.7-3.6c0.4-0.1,0.7-0.5,0.7-0.9c0.2-2.9,2.6-5.2,5.5-5.2c0.9,0,1.9,0.2,2.7,0.7c0.2,0.1,0.5,0.2,0.8,0.1     c0.3-0.1,0.5-0.3,0.6-0.5c1-2.2,3.3-3.6,5.7-3.6c3.5,0,6.3,2.8,6.3,6.3c0,0.6-0.1,1.2-0.2,1.7c-0.1,0.3,0,0.6,0.1,0.8     c0.2,0.2,0.4,0.4,0.7,0.5c1.8,0.3,3.1,1.8,3.1,3.6c0,2-1.7,3.7-3.7,3.7h-11c-0.6,0-1,0.5-1,1c0,0.6,0.5,1,1,1h11     c3.2,0,5.8-2.6,5.8-5.8c0-2.4-1.5-4.6-3.7-5.4c0.1-0.4,0.1-0.9,0.1-1.3c0-4.6-3.8-8.4-8.4-8.4c-2.8,0-5.5,1.5-7,3.8     c-0.9-0.3-1.8-0.5-2.8-0.5c-3.8,0-6.9,2.8-7.5,6.4c-2.1,0.9-3.5,3-3.5,5.3C23.5,78.9,26.1,81.4,29.2,81.4z"></path>
		</g>
		<g id="XMLID_121_">
			<path id="XMLID_24_" class="st0" d="M34.5,79.4c-0.6,0-1,0.5-1,1c0,0.6,0.5,1,1,1h0.6c0.6,0,1-0.5,1-1c0-0.6-0.5-1-1-1H34.5z"></path>
		</g>
	</g>
	<g id="XMLID_124_">
		<g id="XMLID_126_">
			<path id="XMLID_23_" class="st0" d="M165.5,100.3h1.2c0.5,0,0.9-0.4,0.9-0.9c0-0.5-0.4-0.9-0.9-0.9h-1.2c-1.7,0-3.1-1.4-3.1-3.1     c0-1.4,0.9-2.6,2.2-3c0.3-0.1,0.6-0.4,0.6-0.8c0.2-2.4,2.2-4.3,4.6-4.3c0.8,0,1.6,0.2,2.2,0.6c0.2,0.1,0.4,0.1,0.7,0.1     c0.2-0.1,0.4-0.2,0.5-0.4c0.9-1.8,2.7-3,4.7-3c2.9,0,5.2,2.3,5.2,5.2c0,0.5-0.1,1-0.2,1.4c-0.1,0.2,0,0.5,0.1,0.7     c0.1,0.2,0.3,0.3,0.6,0.4c1.5,0.3,2.5,1.5,2.5,3c0,1.7-1.4,3.1-3.1,3.1H174c-0.5,0-0.9,0.4-0.9,0.9c0,0.5,0.4,0.9,0.9,0.9h9.2     c2.6,0,4.8-2.1,4.8-4.8c0-2-1.3-3.8-3.1-4.5c0.1-0.4,0.1-0.7,0.1-1.1c0-3.8-3.1-6.9-6.9-6.9c-2.4,0-4.6,1.2-5.8,3.2     c-0.7-0.3-1.5-0.4-2.3-0.4c-3.1,0-5.8,2.3-6.2,5.3c-1.7,0.7-2.9,2.5-2.9,4.4C160.7,98.2,162.9,100.3,165.5,100.3z"></path>
		</g>
		<g id="XMLID_125_">
			<path id="XMLID_22_" class="st0" d="M169.8,98.6c-0.5,0-0.9,0.4-0.9,0.9c0,0.5,0.4,0.9,0.9,0.9h0.5c0.5,0,0.9-0.4,0.9-0.9     c0-0.5-0.4-0.9-0.9-0.9H169.8z"></path>
		</g>
	</g>
	<g id="XMLID_113_">
		<g id="XMLID_198_">
			<path id="XMLID_21_" class="st0" d="M70,150.4c-2,0-3.6,1.6-3.6,3.6c0,2,1.6,3.6,3.6,3.6s3.6-1.6,3.6-3.6     C73.6,152,72,150.4,70,150.4z"></path>
		</g>
		<g id="XMLID_199_">
			<path id="XMLID_20_" class="st0" d="M126.6,102.8c-0.9-1-2.3-1.6-3.7-1.6H99.4v16.3c0,0,0,0.1,0,0.1H140L126.6,102.8z"></path>
		</g>
		<g id="XMLID_200_">
			<path id="XMLID_19_" class="st0" d="M96.9,117.4v-16.3H74.6c-1.6,0-3.1,0.8-4,2l-10.5,14.4h36.8     C96.9,117.5,96.9,117.4,96.9,117.4z"></path>
		</g>
		<g id="XMLID_203_">
			<path class="st0" d="M161.1,129.5l-11.4-3.1c-1.4-0.4-2.6-1.1-3.6-2.2l-3.8-4.1h-84c-0.6,0.7-1.3,1.2-2.1,1.7l-12.1,6.5     c-1.6,0.9-2.6,2.5-2.6,4.4v15.2c0,2.7,2.2,5,5,5h10.1c0.6-6.8,6.4-12.2,13.4-12.2c7,0,12.8,5.4,13.4,12.2h44.3     c0.6-6.8,6.4-12.2,13.4-12.2c7,0,12.8,5.4,13.4,12.2h5.3c2.7,0,5-2.2,5-5v-13.5C164.8,132,163.3,130,161.1,129.5z M110.4,127.7     h-6.6c-1.8,0-1.8-2.8,0-2.8h6.6C112.2,124.9,112.2,127.7,110.4,127.7z"></path>
		</g>
		<g id="XMLID_206_">
			<path class="st0" d="M141.1,143.1c-6,0-10.9,4.9-10.9,10.9c0,6,4.9,10.9,10.9,10.9c6,0,10.9-4.9,10.9-10.9     C152,148,147.1,143.1,141.1,143.1z M141.1,160.1c-3.4,0-6.1-2.7-6.1-6.1c0-3.4,2.7-6.1,6.1-6.1c3.4,0,6.1,2.7,6.1,6.1     C147.2,157.4,144.5,160.1,141.1,160.1z"></path>
		</g>
		<g id="XMLID_207_">
			<path id="XMLID_18_" class="st0" d="M141.1,150.4c-2,0-3.6,1.6-3.6,3.6c0,2,1.6,3.6,3.6,3.6c2,0,3.6-1.6,3.6-3.6     C144.7,152,143.1,150.4,141.1,150.4z"></path>
		</g>
		<g id="XMLID_210_">
			<path class="st0" d="M70,143.1c-6,0-10.9,4.9-10.9,10.9c0,6,4.9,10.9,10.9,10.9S80.9,160,80.9,154C80.9,148,76,143.1,70,143.1z      M70,160.1c-3.4,0-6.1-2.7-6.1-6.1c0-3.4,2.7-6.1,6.1-6.1s6.1,2.7,6.1,6.1C76.1,157.4,73.4,160.1,70,160.1z"></path>
		</g>
	</g>
	<g id="XMLID_29_">
		<g id="XMLID_281_">
			<path id="XMLID_17_" class="st0" d="M119.4,69.3c0.5,0,1.1-0.2,1.5-0.6c0.8-0.8,0.8-2.2,0-3c-12-12-31.6-12-43.7,0     c-0.8,0.8-0.8,2.2,0,3c0.8,0.8,2.2,0.8,3,0c10.4-10.4,27.3-10.4,37.7,0C118.3,69.1,118.8,69.3,119.4,69.3z"></path>
		</g>
		<g id="XMLID_280_">
			<path id="XMLID_16_" class="st0" d="M111,77.7c0.5,0,1.1-0.2,1.5-0.6c0.8-0.8,0.8-2.2,0-3c-3.6-3.6-8.4-5.6-13.5-5.6     c-5.1,0-9.9,2-13.5,5.6c-0.8,0.8-0.8,2.2,0,3c0.8,0.8,2.2,0.8,3,0c5.8-5.8,15.2-5.8,21,0C109.9,77.5,110.5,77.7,111,77.7z"></path>
		</g>
		<g id="XMLID_279_">
			<path id="XMLID_15_" class="st0" d="M71.5,60c15.2-15.2,39.9-15.2,55.1,0c0.4,0.4,0.9,0.6,1.5,0.6c0.5,0,1.1-0.2,1.5-0.6     c0.8-0.8,0.8-2.2,0-3c-16.8-16.8-44.2-16.8-61,0c-0.8,0.8-0.8,2.2,0,3C69.3,60.8,70.6,60.8,71.5,60z"></path>
		</g>
		<g id="XMLID_278_">
			<circle id="XMLID_1_" class="st0" cx="99" cy="85.1" r="5"></circle>
		</g>
	</g>
	<g id="XMLID_28_">
		<g id="XMLID_311_">
			<path id="XMLID_11_" class="st0" d="M23.6,152.1c-0.5,0-1.1,0-1.6-0.1l-2.1-0.3c0.1-0.6,0.4-1.1,0.8-1.4c0.5-0.3,1-0.5,1.6-0.4     c0.4,0.1,0.9,0.1,1.3,0.1c5.5,0,10-4.5,10-10c0-2-0.6-3.9-1.6-5.5c-0.3-0.4-0.4-0.9-0.3-1.4c0-0.4,0.1-0.7,0.1-1     c0-3.2-1.9-6.1-5-7.2c-0.6-0.2-1.1-0.8-1.3-1.4c-1-3.4-4.1-5.7-7.6-5.7c-3.6,0-6.7,2.4-7.7,5.9c-0.2,0.7-0.7,1.2-1.3,1.5     c-3.1,1.2-5.1,4.1-5.1,7.4c0,1,0.2,1.9,0.5,2.8c0.3,0.7,0.2,1.4-0.2,2c-0.8,1.2-1.2,2.6-1.2,4c0,3.9,3.2,7.1,7.1,7.1     c0.9,0,1.8-0.2,2.6-0.5c0.5-0.2,1.1-0.2,1.6,0c0.5,0.2,0.9,0.6,1.1,1.2l-2,0.8l0,0c-1.1,0.4-2.2,0.7-3.4,0.7     c-5.1,0-9.2-4.1-9.2-9.2c0-1.9,0.6-3.7,1.6-5.2c-0.4-1.2-0.7-2.4-0.7-3.6c0-4.2,2.6-7.9,6.5-9.4c1.2-4.4,5.2-7.5,9.7-7.5     c4.5,0,8.4,3,9.7,7.3c3.8,1.5,6.3,5.1,6.3,9.2c0,0.4,0,0.8-0.1,1.3c1.3,2,2,4.3,2,6.7C35.7,146.6,30.3,152.1,23.6,152.1z"></path>
		</g>
		<g id="XMLID_115_">
			<rect id="XMLID_10_" x="17.1" y="126.7" class="st0" width="2.1" height="41.1"></rect>
		</g>
		<g id="XMLID_132_">
			
				<rect id="XMLID_9_" x="9.9" y="135.4" transform="matrix(0.7071 0.7071 -0.7071 0.7071 100.8255 29.5262)" class="st0" width="9.7" height="2.1"></rect>
		</g>
		<g id="XMLID_370_">
			
				<rect id="XMLID_8_" x="20.9" y="137.3" transform="matrix(0.7071 0.7071 -0.7071 0.7071 107.3514 26.2263)" class="st0" width="2.1" height="10.8"></rect>
		</g>
		<g id="XMLID_371_">
			
				<rect id="XMLID_7_" x="19.4" y="129.3" transform="matrix(0.7305 0.6829 -0.6829 0.7305 96.0617 21.758)" class="st0" width="2.1" height="6.6"></rect>
		</g>
	</g>
	<g id="XMLID_184_">
		<path id="XMLID_6_" class="st0" d="M189.7,155.9c-0.4,0-0.8,0-1.2-0.1c0.1,0,0.1,0,0.2-0.1c0.1,0,0.1-0.1,0.1-0.2l-2.1-0.3    c0.1-0.5,0.3-1,0.7-1.3c0.4-0.3,0.9-0.4,1.4-0.4c0.3,0,0.6,0.1,1,0.1c4.1,0,7.5-3.4,7.5-7.5c0-1.5-0.4-2.9-1.2-4.1    c-0.2-0.4-0.4-0.8-0.3-1.3c0-0.3,0.1-0.5,0.1-0.7c0-2.4-1.4-4.5-3.7-5.4c-0.5-0.2-1-0.7-1.1-1.2c-0.7-2.5-3-4.2-5.6-4.2    c-2.7,0-5,1.8-5.7,4.4c-0.2,0.6-0.6,1.1-1.2,1.3c-2.3,0.9-3.8,3.1-3.8,5.5c0,0.7,0.1,1.4,0.4,2.1c0.2,0.6,0.1,1.2-0.2,1.8    c-0.6,0.9-0.9,1.9-0.9,3c0,2.9,2.3,5.2,5.2,5.2c0.7,0,1.3-0.1,1.9-0.4c0.5-0.2,1-0.2,1.4,0c0.5,0.2,0.8,0.6,1,1l-2,0.8    c0,0.1,0.1,0.1,0.1,0.1s0.1,0,0.2,0c-0.9,0.3-1.8,0.5-2.7,0.5c-4.1,0-7.4-3.3-7.4-7.4c0-1.5,0.4-2.9,1.2-4.1    c-0.3-0.9-0.5-1.8-0.5-2.7c0-3.3,2-6.2,5.1-7.4c1-3.5,4.1-5.9,7.7-5.9c3.5,0,6.6,2.3,7.6,5.7c3,1.2,4.9,4.1,4.9,7.3    c0,0.3,0,0.6-0.1,0.9c1,1.6,1.5,3.4,1.5,5.2C199.3,151.6,195,155.9,189.7,155.9z"></path>
	</g>
	<g id="XMLID_183_">
		<rect id="XMLID_5_" x="184.5" y="136.1" class="st0" width="2.1" height="31.7"></rect>
	</g>
	<g id="XMLID_182_">
		
			<rect id="XMLID_4_" x="179.2" y="142.6" transform="matrix(0.7072 0.7071 -0.7071 0.7072 155.1352 -87.2754)" class="st0" width="7.5" height="2.1"></rect>
	</g>
	<g id="XMLID_175_">
		
			<rect id="XMLID_3_" x="187.4" y="144.3" transform="matrix(0.7071 0.7071 -0.7071 0.7071 160.1863 -89.8182)" class="st0" width="2.1" height="8.3"></rect>
	</g>
	<g id="XMLID_147_">
		
			<rect id="XMLID_2_" x="186.2" y="138.1" transform="matrix(0.7305 0.6829 -0.6829 0.7305 146.5455 -90.0164)" class="st0" width="2.1" height="5.1"></rect>
	</g>
</g>
</svg>
