<?xml version="1.0" encoding="UTF-8"?>
<!-- Generator: Adobe Illustrator 19.0.0, SVG Export Plug-In . SVG Version: 6.00 Build 0)  -->
<svg xmlns="http://www.w3.org/2000/svg" xmlns:xlink="http://www.w3.org/1999/xlink" version="1.1" id="Layer_1" x="0px" y="0px" viewBox="0 0 200 200" style="enable-background:new 0 0 200 200;" xml:space="preserve">
<style type="text/css">
	.st0{fill:#FCB900;}
</style>
<g id="XMLID_192_">
	<g id="XMLID_111_">
		<rect id="XMLID_4_" x="24.9" y="188.8" class="st0" width="123.8" height="2.4"></rect>
	</g>
	<g id="XMLID_110_">
		<rect id="XMLID_3_" x="52.6" y="195.1" class="st0" width="132.3" height="2.4"></rect>
	</g>
	<g id="XMLID_103_">
		<g id="XMLID_154_">
			<g id="XMLID_172_">
				<path id="XMLID_32_" class="st0" d="M37.9,122.6c6.1,0.8,12.4-1.6,16.5-6.8c4.6-5.8,5-13.6,1.8-19.7c-6.7-1.7-14.2,0.6-18.8,6.4      c-4.1,5.2-4.9,11.9-2.7,17.7l4.2-4.4l10.4-11l-8.2,12.7L37.9,122.6z"></path>
			</g>
			<g id="XMLID_171_">
				<path id="XMLID_31_" class="st0" d="M43.4,63.5l10-8.4l-8.2,10.2l-3.3,4.1c5.2,1.2,10.8-0.2,14.8-4.3c4.5-4.6,5.6-11.2,3.4-16.8      c-5.6-2.1-12.2-0.8-16.7,3.7c-4,4.1-5.3,9.8-4,14.9L43.4,63.5z"></path>
			</g>
			<g id="XMLID_170_">
				<path id="XMLID_30_" class="st0" d="M44.9,74.7c-4.7,2.8-7.3,7.8-7.3,12.9l4.6-2.2l11.3-5.5l-10.1,7.5l-4.1,3.1      c4.5,2.4,10.2,2.4,14.8-0.5c5.3-3.2,7.9-9.1,7.2-14.8C56.6,71.9,50.1,71.5,44.9,74.7z"></path>
			</g>
			<g id="XMLID_169_">
				<path id="XMLID_29_" class="st0" d="M158.1,69.4l-3.3-4.1l-8.2-10.2l10,8.4l4,3.4c1.3-5.1,0-10.8-4-14.9      c-4.5-4.6-11-5.8-16.7-3.7c-2.2,5.6-1.1,12.2,3.4,16.8C147.3,69.1,153,70.6,158.1,69.4z"></path>
			</g>
			<g id="XMLID_168_">
				<path id="XMLID_28_" class="st0" d="M145.8,90c4.7,2.8,10.3,2.8,14.8,0.5l-4.1-3.1l-10.1-7.5l11.3,5.5l4.6,2.2      c0-5.1-2.6-10.1-7.3-12.9c-5.3-3.2-11.7-2.8-16.5,0.5C138,80.9,140.6,86.8,145.8,90z"></path>
			</g>
			<g id="XMLID_167_">
				<path id="XMLID_27_" class="st0" d="M165.2,120.2c2.2-5.8,1.4-12.5-2.7-17.7c-4.6-5.8-12-8.1-18.8-6.4      c-3.2,6.2-2.8,13.9,1.8,19.7c4.1,5.2,10.4,7.5,16.5,6.8l-3.3-5.2l-8.2-12.7l10.5,11L165.2,120.2z"></path>
			</g>
			<g id="XMLID_166_">
				<path id="XMLID_26_" class="st0" d="M176.8,79l3.2-12.7l-0.8,13l-0.3,5.3c4.9-2,8.7-6.5,9.5-12.1c1-6.3-2-12.3-7-15.6      c-5.8,1.6-10.4,6.4-11.4,12.7c-0.9,5.6,1.4,11,5.4,14.4L176.8,79z"></path>
			</g>
			<g id="XMLID_165_">
				<path id="XMLID_25_" class="st0" d="M196.5,83.1c-6.9-1.2-14.1,1.6-18.2,7.8c-3.7,5.5-4,12.2-1.4,17.8l3.9-4.8l9.6-11.7      l-7.2,13.3l-2.9,5.4c6.1,0.3,12.3-2.6,16-8C200.4,96.8,200.2,89,196.5,83.1z"></path>
			</g>
			<g id="XMLID_164_">
				<path id="XMLID_24_" class="st0" d="M3.5,83.1c-3.7,5.9-3.8,13.7,0.3,19.8c3.7,5.5,9.8,8.3,16,8l-2.9-5.4L9.6,92.2l9.6,11.7      l3.9,4.8c2.6-5.6,2.3-12.3-1.4-17.8C17.6,84.7,10.3,81.9,3.5,83.1z"></path>
			</g>
			<g id="XMLID_156_">
				<path id="XMLID_102_" class="st0" d="M167.2,77.4c-0.3-0.6-0.6-1.3-0.9-1.9c-0.4-0.7-0.7-1.4-1-1.9c-0.6-1.1-1.9-1.5-2.9-0.9      c-1.1,0.6-1.5,1.9-0.9,2.9c0.4,0.7,0.7,1.3,0.9,1.8c0.3,0.6,0.6,1.2,0.9,1.8c1.9,4.1,3.3,8.5,4.3,13.1c1,4.6,1.4,9.5,1.4,14.4      c0,8.1-1.4,15.9-4,23.1l0,0l-0.1,0l-0.5,0l-0.1,0l-0.4,0l-0.3,0l-0.2,0l-0.5,0h0l-0.5,0l-0.2,0l-0.3,0l-0.4,0l-0.1,0l-0.5,0      l-0.1,0l-0.1,0c-0.5,0-0.9,0-1.4,0h0l-0.5,0l-0.2,0l-0.3,0l-0.4,0l-0.1,0l-0.5,0l-0.1,0l-0.4,0l-0.3,0l-0.2,0l-0.5,0l0,0l-0.5,0      l-0.2,0l-0.1,0l-0.7,0l-0.1,0c-0.7,0-1.4,0.1-2.1,0.1l0,0c-0.5,0-1,0-1.5,0.1l-0.1,0c-16.5,0.8-33.1,2.7-49.4,5.7      c-10.4-1.9-21.2-3.4-32.2-4.4c-10.9-1-22-1.6-33.4-1.7c-2.6-7.2-4-15-4-23.1c0-5,0.5-9.8,1.4-14.4c0.9-4.6,2.4-9,4.3-13.1      c0.3-0.6,0.6-1.2,0.9-1.8c0.2-0.5,0.6-1.1,0.9-1.8c0.6-1.1,0.1-2.4-0.9-2.9c-1.1-0.6-2.4-0.1-2.9,0.9c-0.3,0.5-0.6,1.2-1,1.9      c-0.3,0.7-0.6,1.3-0.9,1.9c-2,4.4-3.5,9.1-4.6,14c-1,5-1.5,10.1-1.5,15.3c0,20.2,8.2,38.5,21.5,51.8      C61.5,171.8,79.8,180,100,180c20.2,0,38.5-8.2,51.8-21.5c13.3-13.3,21.5-31.6,21.5-51.8c0-5.2-0.5-10.3-1.5-15.3      C170.7,86.6,169.2,81.9,167.2,77.4z M101,140.3c15-2.8,33.2-4.7,47.4-5.6c-11.6,2.6-36.6,10.9-47.8,15.4      c-5.5-2.2-11.1-4.2-16.8-6.2C85.3,143.5,97.1,141.3,101,140.3z M68,135.8c7,0.7,13.9,1.5,20.7,2.5c-4.3,0.9-8.4,1.9-12.6,3      c-2.3-0.7-4.6-1.4-6.9-2.1c-5.4-1.6-10.9-3.1-16.5-4.5C57.9,135,63,135.3,68,135.8z M68.1,143.3c9.2,2.8,18.2,5.8,26.8,9.1      l-1,0.4c-1.9,0.8-3.9,1.7-6,2.6c-2,0.9-3.9,1.8-5.9,2.7c-6.9-4.5-14.1-8.9-21.5-13.2c-4.3-2.5-8.7-4.9-13.2-7.2      C54.3,139.4,61.2,141.3,68.1,143.3z M51.2,155.5c-5-5-9.3-10.9-12.6-17.3c6.7,3.3,13.3,6.8,19.7,10.5      c6.6,3.7,12.9,7.6,19.1,11.6c-0.5,0.3-1,0.5-1.6,0.8c-3.5,1.7-7,3.5-10.4,5.4C60.3,163.4,55.5,159.7,51.2,155.5z M95,175.5      c-8.9-0.6-17.3-3-25-6.7c2.5-1.3,5.1-2.7,7.7-4c3.9-1.9,7.9-3.8,11.8-5.5c1.9-0.8,3.9-1.7,5.9-2.6c1.9-0.8,3.8-1.6,5.9-2.4l0,0      c10.1-4,20.7-7.7,31.7-11c4.2-1.2,8.4-2.4,12.6-3.5l0.2-0.1l0.1,0l1-0.3l0.3-0.1l1-0.3l0.2-0.1l0.1,0l0.3-0.1l0.1,0l0.3-0.1      c0.4-0.1,0.9-0.2,1.3-0.3l0,0l0.7-0.2l0.3-0.1c0.8-0.2,1.5-0.4,2.3-0.6l-0.4,0.2l-0.2,0.1l-0.2,0.1l-0.2,0.1l-0.2,0.1l-0.1,0.1      l-0.1,0.1l-0.2,0.1l-0.4,0.2l-0.2,0.1l-0.2,0.1c-0.5,0.3-1,0.5-1.5,0.8l-0.2,0.1l-0.1,0.1l-0.1,0.1l-0.2,0.1l-0.2,0.1l-0.1,0      l-0.1,0.1l-0.2,0.1l-0.4,0.2l-0.2,0.1l-0.2,0.1l0,0l-0.2,0.1l-0.2,0.1l-0.2,0.1l-0.1,0l-0.2,0.1l-0.2,0.1l-0.1,0.1l-0.1,0.1      l-0.2,0.1l-0.2,0.1l-0.1,0l-0.1,0.1l-0.2,0.1l-0.2,0.1l0,0l-0.2,0.1l-0.2,0.1l-0.2,0.1l0,0l-0.4,0.2l-0.1,0.1l-0.1,0l0,0      c-0.3,0.2-0.7,0.4-1,0.6l-0.1,0l-0.5,0.3l0,0l-0.2,0.1c-0.6,0.3-1.2,0.7-1.8,1c-7.8,4.4-15.3,9.1-22.5,13.8l0,0      C110.1,164.2,102.3,169.8,95,175.5z M148.8,155.5c-12.1,12.1-28.6,19.7-46.9,20.2c6-4.5,12.2-9,18.7-13.3l0,0      c7.1-4.7,14.6-9.3,22.3-13.7c5.6-3.2,11.3-6.2,17.1-9.2l0.4-0.2l0.4-0.2l0.1-0.1C157.7,145.1,153.6,150.7,148.8,155.5z"></path>
			</g>
			<g id="XMLID_155_">
				<path id="XMLID_23_" class="st0" d="M29.9,69.8c-1-6.3-5.6-11.2-11.4-12.7c-5,3.3-8,9.3-7,15.6c0.9,5.6,4.6,10.1,9.5,12.1      l-0.3-5.3l-0.8-13L23.2,79l1.3,5.1C28.5,80.8,30.8,75.4,29.9,69.8z"></path>
			</g>
		</g>
	</g>
	<g id="XMLID_105_">
		<g id="XMLID_137_">
			<g id="XMLID_139_">
				<path id="XMLID_22_" class="st0" d="M93.6,99.5L93.6,99.5l2.4-5.2c0.1-0.2,0.2-0.3,0.4-0.4c0.2-0.1,0.4-0.1,0.6,0      c0.4,0.2,0.6,0.6,0.4,1l-0.9,2L100,99l-0.8,1.3l-3.4-2l-0.9,1.8c-0.1,0.3-0.4,0.4-0.7,0.4c-0.1,0-0.2,0-0.3-0.1      c-0.2-0.1-0.3-0.2-0.4-0.4C93.5,99.9,93.5,99.7,93.6,99.5z"></path>
			</g>
			<g id="XMLID_138_">
				<path id="XMLID_21_" class="st0" d="M82.5,102.5v-8.8c0-0.5,0.4-0.9,0.9-0.9c0.5,0,0.9,0.4,0.9,0.9v8.7h7.1      c0.5,0,0.9,0.4,0.9,0.9v0.1c0,0.5-0.4,0.9-0.9,0.9h-1.9v4.4c-2.4-2.7-5.1-4.4-5.1-4.4h-1.5c-0.5,0-0.9-0.4-0.9-0.9v-0.1      C82,102.9,82.2,102.6,82.5,102.5z"></path>
			</g>
		</g>
		<g id="XMLID_152_">
			<path id="XMLID_84_" class="st0" d="M138.9,113.5c-2.5-2.5-5.8-3.9-9.3-3.9v-7.9c0-3-2.4-5.4-5.4-5.4h-5.4v-5.4     c0-0.3-0.3-0.6-0.6-0.6h0v-4.5h-1v4.5h0c-0.3,0-0.6,0.3-0.6,0.6v5.4h-1.8v-3.2h0.3c0.1,0,0.2-0.1,0.1-0.2l-0.4-0.5v-0.1h-0.1     l-0.7-0.7c0-0.1-0.2-0.1-0.2,0l-0.7,0.7h-0.1v0.1l-0.4,0.5c-0.1,0.1,0,0.2,0.1,0.2h0.3v3.2H99.6v0c-0.8,0.1-1.5,0.8-1.5,1.6v2.8     c0,0.8,0.6,1.5,1.5,1.6v6.9h-8.9c-0.3-0.6-0.7-1.1-1.1-1.6c-1.8-2.4-4.2-4.2-7-5.4c-2.1-0.9-4.5-1.4-7-1.4c-3,0-5.9,0.7-8.5,2.1     c-0.5,0.3-0.7,0.9-0.4,1.4c0.3,0.5,0.9,0.7,1.4,0.4c2.3-1.2,4.9-1.9,7.5-1.9c8.6,0,15.7,7,15.7,15.7c0,1.5-0.2,2.9-0.6,4.3     c-0.2,0.6,0.2,1.1,0.7,1.3c0.1,0,0.2,0,0.3,0c0.4,0,0.9-0.3,1-0.7c0.1-0.4,0.2-0.7,0.3-1.1h23.7c0.1,0,0.2,0.1,0.2,0.1     c0,0,0.1,0,0.1,0c0.5,0,0.9-0.4,1-0.9c0.8-5.6,5.6-9.8,11.3-9.8c3,0,5.9,1.2,8.1,3.3c0.4,0.4,1.1,0.4,1.5,0     C139.3,114.6,139.3,113.9,138.9,113.5z M110.5,107.8c0,0.4-0.3,0.7-0.7,0.7s-0.7-0.3-0.7-0.7v-5.4c0-0.4,0.3-0.7,0.7-0.7     s0.7,0.3,0.7,0.7V107.8z M114,107.8c0,0.4-0.3,0.7-0.7,0.7c-0.4,0-0.7-0.3-0.7-0.7v-5.4c0-0.4,0.3-0.7,0.7-0.7     c0.4,0,0.7,0.3,0.7,0.7V107.8z M117.6,107.8c0,0.4-0.3,0.7-0.7,0.7c-0.4,0-0.7-0.3-0.7-0.7v-5.4c0-0.4,0.3-0.7,0.7-0.7     c0.4,0,0.7,0.3,0.7,0.7V107.8z M121.1,107.8c0,0.4-0.3,0.7-0.7,0.7c-0.4,0-0.7-0.3-0.7-0.7v-5.4c0-0.4,0.3-0.7,0.7-0.7     c0.4,0,0.7,0.3,0.7,0.7V107.8z"></path>
		</g>
		<g id="XMLID_127_">
			<g id="XMLID_131_">
				<path id="XMLID_20_" class="st0" d="M77.7,118c0,1.1-0.9,2-2,2c-1.1,0-2-0.9-2-2c0-1.1,0.9-2,2-2C76.9,116,77.7,116.9,77.7,118z      "></path>
			</g>
			<g id="XMLID_143_">
				<path id="XMLID_77_" class="st0" d="M89.1,116.4h-0.4c-0.2-1.2-0.5-2.3-0.9-3.4l0.4-0.2c0.2-0.1,0.3-0.4,0.2-0.6l-1.2-2.1      c-0.1-0.2-0.4-0.3-0.6-0.2l-0.4,0.2c-0.7-0.9-1.6-1.8-2.5-2.5l0.2-0.4c0.1-0.2,0-0.5-0.2-0.6l-2.1-1.2c-0.2-0.1-0.5,0-0.6,0.2      l-0.2,0.4c-1.1-0.5-2.2-0.7-3.4-0.9v-0.4c0-0.2-0.2-0.5-0.4-0.5h-2.4c-0.2,0-0.4,0.2-0.4,0.5v0.4c-1.2,0.2-2.3,0.4-3.4,0.9      l-0.2-0.4c-0.1-0.2-0.4-0.3-0.6-0.2l-2.1,1.2c-0.2,0.1-0.3,0.4-0.2,0.6l0.2,0.4c-0.9,0.7-1.8,1.5-2.5,2.5l-0.4-0.2      c-0.2-0.1-0.5-0.1-0.6,0.2l-1.2,2.1c-0.1,0.2,0,0.5,0.2,0.6l0.4,0.2c-0.5,1.1-0.7,2.2-0.9,3.4h-0.4c-0.2,0-0.5,0.2-0.5,0.4v2.4      c0,0.2,0.2,0.4,0.5,0.4h0.4c0.2,1.2,0.4,2.3,0.9,3.4l-0.4,0.2c-0.2,0.1-0.3,0.4-0.2,0.6l1.2,2.1c0.1,0.2,0.4,0.3,0.6,0.2      l0.4-0.2c0.7,0.9,1.5,1.8,2.5,2.5l-0.2,0.4c-0.1,0.2-0.1,0.5,0.2,0.6l2.1,1.2c0.2,0.1,0.5,0,0.6-0.2l0.2-0.4      c1.1,0.4,2.2,0.7,3.4,0.9v0.4c0,0.2,0.2,0.4,0.4,0.4H77c0.2,0,0.4-0.2,0.4-0.4v-0.4c1.2-0.2,2.3-0.5,3.4-0.9l0.2,0.4      c0.1,0.2,0.4,0.3,0.6,0.2l2.1-1.2c0.2-0.1,0.3-0.4,0.2-0.6l-0.2-0.4c0.9-0.7,1.8-1.6,2.5-2.5l0.4,0.2c0.2,0.1,0.5,0,0.6-0.2      l1.2-2.1c0.1-0.2,0.1-0.5-0.2-0.6l-0.4-0.2c0.4-1.1,0.7-2.2,0.9-3.4h0.4c0.2,0,0.4-0.2,0.4-0.4v-2.4      C89.6,116.6,89.4,116.4,89.1,116.4z M75.8,123.4c-3,0-5.4-2.4-5.4-5.4s2.4-5.4,5.4-5.4s5.4,2.4,5.4,5.4S78.7,123.4,75.8,123.4z"></path>
			</g>
			<g id="XMLID_128_">
				<g id="XMLID_120_">
					<path id="XMLID_19_" class="st0" d="M77.7,118c0,1.1-0.9,2-2,2c-1.1,0-2-0.9-2-2c0-1.1,0.9-2,2-2C76.9,116,77.7,116.9,77.7,118       z"></path>
				</g>
				<g id="XMLID_129_">
					<g id="XMLID_2_">
						<path id="XMLID_18_" class="st0" d="M77.7,118c0,1.1-0.9,2-2,2c-1.1,0-2-0.9-2-2c0-1.1,0.9-2,2-2        C76.9,116,77.7,116.9,77.7,118z"></path>
					</g>
				</g>
			</g>
		</g>
		<g id="XMLID_109_">
			<path id="XMLID_66_" class="st0" d="M138.1,120.8h-0.4c-0.1-0.5-0.2-1.1-0.4-1.5l0.4-0.2c0.2-0.1,0.3-0.4,0.1-0.6l-1.1-1.9     c-0.1-0.2-0.4-0.3-0.6-0.1l-0.3,0.2c-0.3-0.4-0.7-0.8-1.1-1.1l0.2-0.3c0.1-0.2,0-0.4-0.1-0.6l-1.9-1.1c-0.2-0.1-0.4,0-0.6,0.1     l-0.2,0.4c-0.5-0.2-1-0.3-1.5-0.4v-0.4c0-0.2-0.2-0.4-0.4-0.4h-2.1c-0.2,0-0.4,0.2-0.4,0.4v0.4c-0.5,0.1-1.1,0.2-1.5,0.4     l-0.2-0.4c-0.1-0.2-0.4-0.3-0.6-0.1l-1.9,1.1c-0.2,0.1-0.3,0.4-0.1,0.6l0.2,0.3c-0.4,0.3-0.8,0.7-1.1,1.1l-0.3-0.2     c-0.2-0.1-0.4,0-0.6,0.1l-1.1,1.9c-0.1,0.2,0,0.4,0.1,0.6l0.4,0.2c-0.2,0.5-0.3,1-0.4,1.5h-0.4c-0.2,0-0.4,0.2-0.4,0.4v2.1     c0,0.2,0.2,0.4,0.4,0.4h0.4c0.1,0.5,0.2,1.1,0.4,1.5l-0.4,0.2c-0.2,0.1-0.3,0.4-0.1,0.6l1.1,1.9c0.1,0.2,0.4,0.3,0.6,0.1l0.3-0.2     c0.3,0.4,0.7,0.8,1.1,1.1l-0.2,0.3c-0.1,0.2,0,0.4,0.1,0.6l1.9,1.1c0.2,0.1,0.4,0,0.6-0.1l0.2-0.4c0.5,0.2,1,0.3,1.5,0.4v0.4     c0,0.2,0.2,0.4,0.4,0.4h2.1c0.2,0,0.4-0.2,0.4-0.4v-0.4c0.5-0.1,1.1-0.2,1.5-0.4l0.2,0.4c0.1,0.2,0.4,0.3,0.6,0.1l1.9-1.1     c0.2-0.1,0.3-0.4,0.1-0.6l-0.2-0.3c0.4-0.3,0.8-0.7,1.1-1.1l0.3,0.2c0.2,0.1,0.4,0,0.6-0.1l1.1-1.9c0.1-0.2,0-0.4-0.1-0.6     l-0.4-0.2c0.2-0.5,0.3-1,0.4-1.5h0.4c0.2,0,0.4-0.2,0.4-0.4v-2.1C138.5,121,138.4,120.8,138.1,120.8z M129.1,125.9     c-2,0-3.6-1.6-3.6-3.6c0-2,1.6-3.6,3.6-3.6c2,0,3.6,1.6,3.6,3.6C132.7,124.3,131.1,125.9,129.1,125.9z"></path>
		</g>
		<g id="XMLID_99_">
			<circle id="XMLID_17_" class="st0" cx="129.1" cy="122.3" r="1.3"></circle>
		</g>
	</g>
	<g id="XMLID_112_">
		<g id="XMLID_185_">
			<path id="XMLID_16_" class="st0" d="M84.8,24.8l13.3,52.6c0.2,0.7,0.9,1.2,1.7,1c0.7-0.2,1.2-0.9,1-1.7L87.4,24.1     c-0.2-0.7-0.9-1.2-1.7-1C85,23.3,84.6,24,84.8,24.8z"></path>
		</g>
		<g id="XMLID_181_">
			<path id="XMLID_15_" class="st0" d="M92.8,79.5c0.4,0.7,1.2,0.9,1.9,0.5c0.7-0.4,0.9-1.2,0.5-1.9L68.7,30.8     c-0.4-0.7-1.2-0.9-1.9-0.5c-0.7,0.4-0.9,1.2-0.5,1.9L92.8,79.5z"></path>
		</g>
		<g id="XMLID_180_">
			<path id="XMLID_14_" class="st0" d="M69.6,75.6c-0.6-0.4-1.5-0.2-1.9,0.5c-0.4,0.6-0.2,1.5,0.5,1.9l16.4,9.8     c0.6,0.4,1.5,0.2,1.9-0.5c0.4-0.6,0.2-1.5-0.5-1.9L69.6,75.6z"></path>
		</g>
		<g id="XMLID_179_">
			<path id="XMLID_13_" class="st0" d="M82.6,16.4c0.2,0.7,0.9,1.2,1.7,1c0.7-0.2,1.2-0.9,1-1.7L82.2,3.5c-0.2-0.7-0.9-1.2-1.7-1     c-0.7,0.2-1.2,0.9-1,1.7L82.6,16.4z"></path>
		</g>
		<g id="XMLID_178_">
			<path id="XMLID_12_" class="st0" d="M105.1,78c0.8,0,1.4-0.6,1.4-1.4l0.7-54.2c0-0.8-0.6-1.4-1.4-1.4c-0.8,0-1.4,0.6-1.4,1.4     l-0.7,54.2C103.7,77.4,104.3,78,105.1,78z"></path>
		</g>
		<g id="XMLID_106_">
			<path id="XMLID_11_" class="st0" d="M135.1,83.3c0.7-0.4,0.9-1.2,0.5-1.9c-0.4-0.7-1.2-0.9-1.9-0.5L122,87     c-0.7,0.4-0.9,1.2-0.5,1.9c0.4,0.7,1.2,0.9,1.9,0.5"></path>
		</g>
		<g id="XMLID_174_">
			<path id="XMLID_10_" class="st0" d="M110.2,79.1c0.7,0.2,1.5-0.2,1.7-1L126.6,26c0.2-0.7-0.2-1.5-1-1.7c-0.7-0.2-1.5,0.2-1.7,1     l-14.7,52.2C109,78.2,109.5,78.9,110.2,79.1z"></path>
		</g>
		<g id="XMLID_173_">
			<path id="XMLID_9_" class="st0" d="M137.5,66.4c-0.5-0.5-1.4-0.6-1.9,0l-16.9,16.4c-0.5,0.5-0.6,1.4,0,1.9s1.4,0.6,1.9,0     l16.9-16.4C138,67.8,138,67,137.5,66.4z"></path>
		</g>
		<g id="XMLID_153_">
			<path id="XMLID_8_" class="st0" d="M127.3,18.7c0.7,0.2,1.5-0.2,1.7-1l3.5-12.5c0.2-0.7-0.2-1.5-1-1.7c-0.7-0.2-1.5,0.2-1.7,1     L126.3,17C126.1,17.7,126.5,18.5,127.3,18.7z"></path>
		</g>
		<g id="XMLID_150_">
			<path id="XMLID_7_" class="st0" d="M114.8,81.4c0.6,0.4,1.5,0.2,1.9-0.5L138,45.2c0.4-0.6,0.2-1.5-0.5-1.9     c-0.6-0.4-1.5-0.2-1.9,0.5l-21.3,35.8C113.9,80.2,114.1,81,114.8,81.4z"></path>
		</g>
		<g id="XMLID_148_">
			<path id="XMLID_6_" class="st0" d="M88.1,83c0.5,0.5,1.4,0.6,1.9,0c0.5-0.5,0.6-1.4,0-1.9L67,57.4c-0.5-0.5-1.4-0.6-1.9,0     c-0.5,0.5-0.6,1.4,0,1.9L88.1,83z"></path>
		</g>
		<g id="XMLID_141_">
			<path id="XMLID_5_" class="st0" d="M174.9,30c-0.5-0.5-1.4-0.6-1.9,0l-9.3,9.1c-0.5,0.5-0.6,1.4,0,1.9c0.5,0.5,1.4,0.6,1.9,0     l9.3-9.1C175.4,31.4,175.4,30.5,174.9,30z"></path>
		</g>
		<g id="XMLID_116_">
			<path id="XMLID_1_" class="st0" d="M37.9,27.5c-0.5-0.5-1.4-0.6-1.9,0c-0.5,0.5-0.6,1.4,0,1.9l8.4,8.6c0.5,0.5,1.4,0.6,1.9,0     c0.5-0.5,0.6-1.4,0-1.9L37.9,27.5z"></path>
		</g>
	</g>
</g>
</svg>
